<?xml version="1.0" encoding="UTF-8" standalone="no"?>
<svg
   version="1.0"
   width="71.263405pt"
   height="30.3384pt"
   viewBox="0 0 345.45422 147.06746"
   preserveAspectRatio="xMidYMid"
   id="svg12"
   sodipodi:docname="abc.svg"
   inkscape:version="1.4.2 (2aeb623e1d, 2025-05-12)"
   xmlns:inkscape="http://www.inkscape.org/namespaces/inkscape"
   xmlns:sodipodi="http://sodipodi.sourceforge.net/DTD/sodipodi-0.dtd"
   xmlns="http://www.w3.org/2000/svg"
   xmlns:svg="http://www.w3.org/2000/svg">
  <defs
     id="defs12" />
  <sodipodi:namedview
     id="namedview12"
     pagecolor="#ffffff"
     bordercolor="#000000"
     borderopacity="0.25"
     inkscape:showpageshadow="2"
     inkscape:pageopacity="0.0"
     inkscape:pagecheckerboard="0"
     inkscape:deskcolor="#d1d1d1"
     inkscape:document-units="pt"
     inkscape:zoom="5.44"
     inkscape:cx="55.974265"
     inkscape:cy="77.757353"
     inkscape:window-width="1085"
     inkscape:window-height="1266"
     inkscape:window-x="26"
     inkscape:window-y="23"
     inkscape:window-maximized="0"
     inkscape:current-layer="svg12" />
     <g allowDrag="true">
  <g
     transform="matrix(0.01999185,0,0,-0.01999185,-19.192176,265.41922)"
     fill="#000000"
     stroke="none"
     id="g12">
    <path
       d="m 9460,13270 c -415,-23 -1139,-94 -1485,-147 -49,-7 -781,-307 -807,-330 -17,-15 -18,-140 -18,-3388 0,-3199 1,-3373 18,-3388 25,-23 43,-25 312,-42 1070,-65 1938,-71 2549,-19 178,15 251,25 431,59 47,9 132,25 190,36 349,66 730,230 1057,456 226,156 483,399 634,599 343,455 507,987 468,1523 -44,616 -378,1188 -887,1516 -97,62 -295,156 -411,194 -165,55 -392,91 -570,91 h -76 l 80,48 c 446,269 703,532 828,848 67,168 81,326 52,579 -53,459 -176,777 -379,981 -208,207 -485,309 -1006,370 -162,19 -735,27 -980,14 z m 708,-147 c 78,-3 142,-9 142,-12 0,-4 -84,-47 -187,-97 l -188,-91 -88,13 c -430,63 -1053,54 -1857,-25 -102,-11 -186,-18 -188,-16 -1,1 37,19 85,39 80,34 110,40 318,66 779,99 1506,144 1963,123 z m 511,-54 c 68,-11 169,-34 225,-50 99,-30 236,-86 236,-98 0,-3 -119,-59 -265,-123 l -266,-118 -77,45 c -43,25 -117,61 -165,79 -91,36 -255,86 -281,86 -39,0 -4,21 175,105 105,50 193,94 196,98 6,10 36,6 222,-24 z m 655,-291 c 94,-96 198,-250 180,-268 -12,-12 -497,-290 -506,-290 -3,0 -24,33 -46,73 -57,103 -124,192 -204,268 -43,41 -65,69 -59,74 21,13 526,235 535,235 5,0 50,-42 100,-92 z m -1667,27 c 822,-86 1209,-390 1284,-1009 16,-135 6,-404 -20,-516 -85,-373 -323,-684 -725,-951 -117,-78 -322,-188 -427,-229 -30,-12 -62,-29 -71,-37 -24,-22 -23,-78 2,-103 26,-26 59,-25 157,4 603,181 1147,66 1533,-324 135,-136 222,-258 314,-445 193,-387 253,-784 191,-1261 -52,-399 -193,-759 -413,-1053 -70,-94 -233,-264 -327,-341 -256,-209 -595,-362 -910,-409 -274,-41 -907,-66 -1425,-57 -514,9 -1280,41 -1472,62 l -58,6 v 3269 c 0,2476 3,3269 12,3269 6,0 99,11 207,25 412,52 934,98 1304,115 244,11 661,4 844,-15 z m 1917,-460 c 47,-147 109,-507 90,-525 -5,-4 -128,-54 -274,-110 -146,-56 -270,-104 -276,-107 -7,-3 -13,35 -17,114 -7,132 -28,263 -57,356 -11,33 -17,64 -14,67 16,17 510,296 516,291 3,-3 18,-42 32,-86 z m 96,-783 c -20,-125 -100,-322 -148,-365 -23,-20 -552,-267 -552,-257 0,4 14,40 31,81 44,109 78,247 91,380 l 12,117 285,110 286,110 3,-51 c 2,-29 -2,-85 -8,-125 z m -350,-605 c -153,-148 -340,-281 -566,-403 l -89,-48 33,39 c 86,103 103,125 151,195 l 51,75 248,117 c 136,64 252,117 257,117 6,0 -33,-41 -85,-92 z m -144,-698 c 148,-20 447,-111 427,-129 -4,-5 -82,-47 -172,-96 l -165,-87 -45,27 c -215,128 -460,204 -711,222 l -105,7 70,18 c 63,17 226,43 330,53 61,6 284,-3 371,-15 z m 610,-217 c 136,-81 364,-268 364,-297 0,-8 -427,-235 -442,-235 -3,0 -34,37 -70,83 -63,79 -211,229 -272,275 -16,12 -26,26 -22,30 9,8 348,191 357,192 3,0 41,-21 85,-48 z m 496,-449 c 92,-124 162,-245 218,-376 27,-61 51,-122 54,-134 6,-19 -20,-38 -246,-179 -139,-86 -260,-159 -268,-161 -12,-3 -19,11 -29,59 -32,154 -125,395 -216,555 -24,43 -40,82 -36,86 9,9 443,236 452,237 3,0 35,-39 71,-87 z m 327,-700 c 35,-154 44,-256 39,-473 -3,-119 -9,-213 -15,-225 -12,-22 -581,-351 -590,-341 -3,3 0,47 6,98 26,200 25,435 -2,681 -1,13 66,60 263,182 146,91 268,165 272,165 3,0 15,-39 27,-87 z m -23,-934 c -46,-179 -135,-390 -233,-552 l -35,-58 -260,-130 c -143,-72 -262,-128 -264,-126 -2,2 16,47 41,99 61,128 110,268 150,421 l 33,129 293,168 c 162,92 296,164 297,159 2,-5 -8,-54 -22,-110 z m -413,-811 c -68,-89 -302,-322 -403,-401 -118,-94 -284,-203 -418,-277 -63,-34 -115,-60 -117,-58 -2,2 31,32 72,68 120,102 316,331 385,450 18,31 52,51 267,157 135,67 250,122 254,122 5,1 -13,-27 -40,-61 z"
       id="path1" />
    <path
       d="m 8750,11840 c -175,-20 -233,-32 -257,-56 l -23,-23 v -500 c 0,-350 3,-507 11,-525 20,-43 52,-49 205,-36 419,33 710,139 877,320 99,107 143,231 135,386 -7,164 -85,277 -243,355 -122,60 -226,79 -445,84 -102,2 -219,0 -260,-5 z m 465,-160 c 28,-5 69,-15 93,-21 l 42,-12 v -56 -56 l -356,-135 c -195,-74 -359,-136 -364,-138 -6,-2 -10,74 -10,202 v 205 l 33,6 c 131,24 451,27 562,5 z m 321,-205 c 13,-35 16,-63 11,-123 -5,-68 -28,-152 -42,-152 -3,0 -5,75 -5,166 0,98 4,163 9,159 5,-3 17,-25 27,-50 z m -186,-235 v -210 l -94,-45 c -138,-67 -435,-135 -591,-135 h -45 v 163 162 l 353,137 c 193,75 358,136 365,137 9,1 12,-47 12,-209 z"
       id="path2" />
    <path
       d="m 7481,11821 c -12,-21 -16,-4166 -5,-4208 7,-27 40,-39 60,-23 12,11 14,287 12,2129 l -3,2116 -27,3 c -18,2 -30,-3 -37,-17 z"
       id="path3" />
    <path
       d="m 9100,8953 c -89,-9 -245,-36 -343,-59 -79,-19 -111,-31 -122,-47 -13,-19 -15,-124 -15,-790 v -768 l 25,-24 c 22,-23 31,-25 123,-25 224,0 549,38 757,89 448,110 711,300 798,576 31,99 30,273 -2,400 -93,365 -345,578 -757,640 -90,14 -364,18 -464,8 z m 250,-191 v -47 l -285,-143 c -157,-78 -287,-142 -290,-142 -3,0 -4,71 -3,157 l 3,157 90,18 c 125,26 294,46 398,47 l 87,1 z m 320,6 c 303,-76 477,-279 521,-603 20,-150 -21,-289 -114,-389 l -42,-46 -120,-10 c -66,-5 -186,-12 -267,-16 l -148,-7 v 552 552 l 48,-7 c 26,-3 81,-15 122,-26 z m -320,-478 c 0,-323 0,-330 -19,-320 -15,8 -33,3 -83,-23 -35,-19 -156,-82 -270,-141 l -208,-107 v 320 321 l 278,139 c 152,77 283,140 290,140 9,1 12,-71 12,-329 z m -12,-623 c -7,-5 -137,-59 -288,-122 l -275,-113 -3,86 c -2,47 1,89 5,93 5,5 130,72 278,149 148,77 274,145 280,151 7,7 11,-30 13,-113 2,-92 0,-125 -10,-131 z m 387,-116 c -37,-34 -512,-144 -556,-129 -7,2 52,30 131,62 141,59 143,59 273,66 73,4 139,8 147,8 8,1 10,-1 5,-7 z"
       id="path4" />
    <path
       d="m 11360,7205 c -114,-240 -355,-483 -598,-604 -272,-136 -734,-237 -1242,-272 -96,-7 -181,-16 -187,-22 -19,-14 -16,-45 6,-56 10,-6 47,-8 82,-6 271,20 362,29 488,46 627,87 1010,247 1281,536 130,139 266,358 258,415 -2,16 -11,24 -30,26 -24,3 -30,-3 -58,-63 z"
       id="path5" />
    <path
       d="m 15940,13269 c -700,-52 -1260,-229 -1555,-490 -27,-25 -88,-66 -135,-93 -631,-360 -948,-1055 -1020,-2233 -21,-353 -10,-1258 20,-1713 98,-1448 466,-2253 1197,-2619 210,-105 455,-167 758,-192 176,-15 654,-6 821,15 849,107 1454,476 1837,1121 215,361 352,836 374,1286 7,163 3,185 -40,204 -34,16 -1124,225 -1169,225 -37,0 -777,-305 -793,-327 -7,-9 -16,-51 -19,-92 -4,-42 -14,-105 -23,-141 -19,-81 -86,-228 -107,-236 -41,-16 -167,80 -249,189 -230,303 -396,847 -448,1472 -15,180 -6,665 15,835 38,296 99,578 165,760 36,98 135,303 155,319 18,15 106,-32 174,-93 127,-116 219,-319 250,-553 10,-76 31,-103 80,-103 19,0 306,56 636,125 l 601,125 375,155 c 206,85 381,163 389,172 17,23 9,232 -14,373 -32,196 -106,432 -182,585 -262,520 -716,827 -1358,915 -107,15 -579,21 -735,9 z m 455,-150 c -11,-5 -132,-36 -269,-69 -137,-33 -254,-64 -260,-67 -6,-4 -144,-8 -306,-9 -200,-1 -335,-7 -420,-17 -68,-9 -126,-15 -127,-13 -8,8 228,70 382,101 277,55 546,81 865,83 103,0 148,-2 135,-9 z m 425,-39 c 155,-32 280,-74 419,-142 88,-43 120,-63 109,-69 -22,-12 -558,-209 -570,-209 -5,0 -29,13 -52,29 -144,99 -449,216 -644,246 -24,4 -41,9 -38,12 10,11 631,160 651,157 11,-2 67,-13 125,-24 z m -886,-275 c 487,-69 828,-254 1077,-585 181,-240 308,-588 337,-924 8,-94 7,-99 -13,-107 -17,-7 -980,-206 -1024,-212 -11,-1 -20,19 -31,68 -89,381 -301,630 -590,691 -111,23 -271,15 -374,-20 -322,-109 -558,-438 -696,-972 -87,-337 -139,-824 -126,-1197 35,-1035 376,-1882 814,-2017 163,-51 458,0 643,110 92,54 197,154 256,243 60,91 117,229 140,340 14,70 21,87 35,87 15,0 303,-54 836,-157 l 132,-25 v -49 c 0,-26 -7,-101 -15,-166 -114,-872 -544,-1494 -1190,-1723 -236,-83 -431,-114 -725,-114 -295,0 -484,28 -710,103 -555,186 -910,616 -1119,1356 -150,534 -221,1269 -221,2310 0,690 41,1127 144,1526 223,868 735,1324 1606,1430 254,31 614,33 814,4 z m 1564,-29 c 72,-55 195,-183 251,-260 47,-64 134,-206 129,-211 -2,-2 -129,-40 -283,-84 -154,-45 -292,-85 -306,-90 -25,-9 -30,-4 -99,103 -54,80 -109,147 -202,240 -71,71 -127,130 -126,131 3,2 569,213 576,214 2,1 29,-19 60,-43 z m 456,-638 c 41,-107 84,-255 93,-314 l 5,-41 -278,-71 c -154,-40 -289,-75 -301,-78 -15,-4 -24,-1 -27,7 -51,170 -75,240 -108,317 -22,51 -39,94 -37,96 6,5 592,175 606,175 6,1 27,-41 47,-91 z m 116,-438 c 0,-5 5,-55 11,-110 6,-56 9,-103 6,-106 -9,-9 -560,-234 -573,-234 -10,0 -14,13 -14,41 0,22 -7,90 -16,150 -9,61 -15,111 -13,113 4,3 577,153 592,155 4,1 7,-3 7,-9 z m -2510,-105 c 0,-3 -25,-57 -56,-120 -49,-101 -124,-313 -154,-431 l -10,-41 -262,-75 c -145,-42 -265,-75 -266,-73 -14,13 118,308 183,410 106,166 264,286 417,320 64,14 148,19 148,10 z m -265,-820 c -13,-77 -31,-198 -39,-268 -8,-71 -16,-130 -18,-132 -6,-6 -563,-213 -566,-211 -11,12 72,477 101,564 l 12,36 265,76 c 146,42 266,76 267,76 1,-1 -9,-64 -22,-141 z m -65,-782 c 1,-164 3,-327 4,-362 l 1,-63 -284,-109 c -189,-73 -288,-106 -295,-99 -12,12 -11,579 1,660 l 8,55 280,107 c 154,58 281,106 281,107 1,1 3,-133 4,-296 z m 24,-525 c 3,-13 10,-63 16,-113 16,-130 66,-386 96,-486 3,-12 -4,-19 -22,-23 -15,-4 -146,-50 -292,-102 -146,-51 -270,-94 -277,-94 -7,0 -15,15 -18,33 -4,17 -18,88 -32,157 -32,158 -66,412 -55,423 7,8 554,223 572,226 4,1 10,-9 12,-21 z m 162,-770 c 46,-140 103,-278 166,-401 34,-64 59,-119 57,-121 -9,-7 -585,-196 -600,-196 -31,0 -154,268 -219,478 -18,57 -29,106 -25,110 6,6 573,210 587,211 3,1 19,-36 34,-81 z m 1778,-98 c 201,-39 204,-40 183,-51 -9,-5 -113,-49 -230,-98 l -214,-88 -178,34 c -98,18 -180,35 -182,37 -2,2 25,15 59,30 35,14 137,57 228,95 91,38 167,70 169,70 3,1 77,-13 165,-29 z m 528,-102 c 93,-17 165,-35 161,-39 -5,-3 -109,-48 -233,-98 l -225,-92 -173,32 c -95,18 -169,36 -165,40 10,9 444,188 458,189 5,0 85,-14 177,-32 z m 364,-150 c -3,-13 -7,-59 -11,-103 -10,-143 -59,-401 -79,-422 -11,-12 -559,-233 -564,-228 -1,1 9,63 22,137 14,74 30,186 36,249 6,63 14,125 18,137 6,20 51,42 282,137 151,63 281,114 288,115 8,0 11,-8 8,-22 z m -2352,-288 c 51,-66 145,-152 201,-181 25,-13 45,-26 45,-29 -1,-12 -94,-74 -157,-105 -110,-54 -219,-79 -353,-79 -112,-1 -116,0 -178,33 -58,31 -212,178 -212,201 0,7 578,207 605,209 6,1 28,-22 49,-49 z m 2236,-353 c 0,-46 -105,-310 -186,-468 l -65,-126 -282,-125 c -155,-69 -283,-124 -285,-123 -2,2 21,52 51,111 64,129 134,303 172,430 l 27,91 277,111 c 152,61 279,111 284,111 4,1 7,-5 7,-12 z m -340,-721 c 0,-16 -173,-216 -251,-291 -164,-156 -323,-265 -534,-366 -109,-52 -282,-119 -307,-119 -5,0 14,16 43,36 141,95 327,275 429,416 l 55,77 280,125 c 312,139 285,128 285,122 z"
       id="path6" />
    <path
       d="m 15265,12663 c -135,-20 -338,-72 -460,-118 -137,-51 -331,-152 -445,-233 -105,-75 -281,-239 -364,-341 -131,-160 -259,-391 -316,-567 -30,-93 -28,-124 9,-124 26,0 35,15 61,95 84,261 282,558 500,751 275,244 628,401 1037,462 124,19 150,33 127,70 -15,23 -30,23 -149,5 z"
       id="path7" />
    <path
       d="m 16399,7948 c -138,-276 -312,-458 -544,-573 -172,-85 -355,-124 -529,-111 -94,6 -116,0 -116,-35 0,-30 40,-39 164,-39 239,0 458,67 657,200 91,61 265,240 331,340 70,106 148,257 148,286 0,21 -17,34 -46,34 -8,0 -37,-45 -65,-102 z"
       id="path8" />
    <path
       d="m 3118,12947 c -203,-84 -377,-161 -387,-172 -13,-14 -86,-279 -246,-895 C 2208,10812 2135,10529 1479,8007 1194,6908 960,6000 960,5989 c 0,-11 11,-31 25,-44 l 24,-25 h 575 575 l 378,155 c 208,86 386,163 395,173 10,10 53,159 108,372 50,195 93,363 96,373 5,15 24,17 215,17 193,0 209,-1 209,-18 0,-9 22,-244 50,-522 49,-503 49,-505 75,-527 l 26,-23 h 929 929 l 378,155 c 207,86 385,163 395,172 11,10 18,30 18,52 0,20 -38,392 -85,826 -47,435 -203,1875 -346,3200 -143,1326 -267,2481 -276,2569 -13,122 -21,164 -36,182 l -18,24 -1057,-1 H 3485 Z m 770,-63 c -71,-35 -128,-69 -128,-74 0,-6 -104,-10 -287,-10 -157,0 -283,3 -279,8 4,4 78,37 164,73 l 157,67 h 250 l 250,1 z m 752,40 c -25,-14 -88,-48 -141,-75 l -96,-49 -249,2 -249,3 140,72 140,72 h 250 l 250,1 z m 519,22 c -2,-2 -82,-36 -178,-75 l -174,-71 h -111 c -66,0 -106,4 -100,9 5,5 54,33 109,62 55,29 104,59 108,66 6,10 49,13 179,13 94,0 169,-2 167,-4 z m 366,-280 c 14,-131 25,-240 23,-241 -16,-13 -571,-275 -575,-271 -7,7 -64,518 -59,523 11,11 581,240 583,235 1,-4 14,-114 28,-246 z m -761,-48 c 3,-18 44,-393 91,-833 47,-440 115,-1068 150,-1395 36,-327 114,-1056 175,-1620 61,-564 151,-1399 200,-1856 50,-457 90,-833 90,-837 0,-4 -376,-7 -835,-7 -547,0 -835,3 -835,10 0,55 -103,1028 -111,1041 -5,10 -18,23 -29,29 -12,6 -236,10 -640,10 h -621 l -22,-22 c -17,-18 -51,-136 -156,-545 l -135,-523 h -473 c -405,0 -473,2 -473,14 0,8 87,351 194,763 107,411 402,1547 656,2523 254,976 490,1885 525,2020 168,644 325,1250 325,1255 0,3 432,5 960,5 h 959 z m 796,-282 c 0,-3 16,-150 35,-327 20,-177 32,-326 28,-330 -4,-4 -135,-68 -290,-142 l -282,-135 -5,27 c -15,78 -67,636 -60,638 5,2 133,64 284,138 262,128 290,141 290,131 z m 84,-783 c 13,-83 68,-625 64,-628 -2,-3 -132,-61 -288,-130 -166,-74 -286,-122 -289,-116 -11,18 -73,633 -64,641 11,12 545,268 560,269 6,1 14,-16 17,-36 z m 77,-715 c 0,-2 15,-137 32,-300 l 33,-296 -290,-141 c -159,-78 -290,-140 -291,-139 -9,10 -66,623 -59,626 5,2 133,59 284,127 257,116 289,129 291,123 z m 103,-953 c 15,-143 29,-268 31,-278 3,-15 -51,-45 -286,-162 -190,-95 -291,-141 -294,-132 -4,13 -63,561 -61,564 8,11 573,279 577,274 3,-3 18,-123 33,-266 z m 46,-405 c 0,-11 15,-163 34,-338 19,-174 36,-332 38,-351 l 3,-33 -289,-99 c -159,-55 -292,-99 -295,-99 -4,0 -22,147 -42,328 l -35,327 281,142 c 154,78 286,142 293,142 6,1 12,-8 12,-19 z m 113,-1060 c 15,-134 24,-246 22,-248 -6,-6 -579,-232 -581,-229 -4,4 -54,472 -54,504 0,37 -29,24 330,147 135,46 248,81 251,77 3,-3 18,-116 32,-251 z m 37,-337 c 0,-5 16,-160 36,-346 21,-194 33,-342 28,-346 -18,-15 -565,-263 -570,-258 -8,7 -84,721 -78,727 6,6 564,228 577,229 4,1 7,-2 7,-6 z m 115,-1062 c 14,-139 24,-255 23,-256 -9,-7 -566,-245 -574,-245 -12,0 -69,523 -57,527 4,2 134,62 288,133 243,113 281,127 287,112 3,-9 18,-131 33,-271 z m -3155,-18 c -1,-13 -58,-234 -62,-237 -13,-9 -529,-169 -532,-165 -4,4 84,359 99,396 3,10 62,13 250,13 135,0 245,-3 245,-7 z m -122,-485 c -22,-84 -46,-158 -54,-164 -19,-15 -535,-226 -540,-221 -2,2 17,86 44,187 l 47,184 265,86 c 146,48 268,85 271,84 3,-2 -12,-72 -33,-156 z m 3312,155 c 1,-5 9,-79 18,-167 l 18,-158 -45,-20 c -190,-81 -534,-218 -538,-214 -11,10 -37,320 -28,323 6,2 132,57 280,122 267,118 295,128 295,114 z"
       id="path9" />
    <path
       d="m 2933,12418 c -6,-7 -40,-119 -76,-248 -36,-129 -141,-498 -232,-819 -91,-321 -165,-590 -165,-597 0,-18 35,-35 54,-28 8,3 18,13 20,22 3,10 100,352 216,762 116,410 218,769 226,797 l 15,53 511,2 c 457,3 512,5 521,19 6,9 7,24 4,33 -6,15 -56,16 -545,16 -420,0 -542,-3 -549,-12 z"
       id="path10" />
    <path
       d="m 3269,10518 c -14,-5 -31,-19 -37,-31 -14,-27 -592,-2262 -592,-2289 0,-10 11,-30 25,-43 l 24,-25 h 426 426 l 24,25 c 14,13 25,35 25,48 0,63 -221,2265 -229,2283 -12,28 -58,44 -92,32 z m 36,-936 c 21,-216 36,-394 34,-396 -14,-13 -329,-165 -329,-159 -2,22 245,961 251,955 3,-4 23,-184 44,-400 z m 49,-514 c 10,-63 38,-379 34,-383 -16,-17 -524,-239 -525,-231 -2,6 23,112 55,236 l 58,225 180,92 c 98,51 182,92 186,93 4,0 9,-15 12,-32 z m 59,-595 c 4,-27 9,-81 13,-120 l 7,-73 h -273 c -151,0 -271,3 -267,6 7,7 499,233 508,234 4,0 9,-21 12,-47 z"
       id="path11" />
    <path
       d="m 5172,7108 c -6,-6 -12,-21 -12,-32 0,-17 92,-660 105,-728 l 5,-28 h -548 c -558,0 -572,-1 -572,-36 0,-7 7,-20 16,-28 14,-14 80,-16 583,-16 463,0 571,3 586,14 18,13 16,27 -40,412 -31,220 -63,410 -69,424 -13,28 -36,36 -54,18 z"
       id="path12" />
  </g>
  <path
     allowFill="true" fill="#d35f8d"
     style="stroke-width:0.404412"
     d="m 1.2927995,39.439912 C 1.1630604,39.229989 1.3951355,38.303678 6.4251263,18.954613 8.603623,10.574504 10.386029,3.6880145 10.386029,3.6513044 c 0,-0.03671 2.357537,-0.066746 5.238971,-0.066746 4.864274,0 5.239472,0.023008 5.245985,0.3216912 0.0039,0.1769302 0.863596,8.2215074 1.910526,17.8768384 1.046932,9.655331 1.864086,17.596508 1.815903,17.647059 -0.128449,0.134756 -8.645515,0.112438 -8.780963,-0.02301 C 15.753241,39.343927 15.56023,38.0204 15.38753,36.46596 l -0.314001,-2.826255 -3.621982,-0.04981 C 8.1429958,33.54439 7.8147322,33.56825 7.6581677,33.865627 7.5638996,34.04468 7.1756029,35.411305 6.795286,36.902574 L 6.1038007,39.613971 H 3.7520873 c -1.2934424,0 -2.4001219,-0.07833 -2.4592878,-0.174059 z M 24.172794,38.33277 c 0,-0.777224 -0.591515,-4.334882 -0.747693,-4.496985 -0.35561,-0.369105 -0.409336,0.154452 -0.192195,1.872941 0.124487,0.985201 0.268383,1.936035 0.319767,2.112965 0.0863,0.297155 -0.138039,0.321691 -2.941202,0.321691 -2.759024,0 -3.450169,0.09635 -3.112601,0.43392 0.06465,0.06465 1.592735,0.117551 3.395738,0.117551 3.138842,0 3.278186,-0.01539 3.278186,-0.362083 z M 14.481926,28.1633 c 0.05011,-0.13059 -0.187849,-3.005131 -0.528803,-6.387869 -0.340954,-3.382737 -0.621266,-6.244982 -0.622916,-6.360543 -0.0041,-0.284716 -0.575036,-0.486236 -0.784416,-0.276855 -0.256162,0.256162 -3.4377627,12.704 -3.3233088,13.002263 0.1391266,0.362557 5.1207828,0.384347 5.2594438,0.023 z M 8.9059245,13.373162 C 9.0095871,12.994026 9.5794912,10.988051 10.172378,8.9154412 l 1.077976,-3.7683824 2.876661,-0.050624 C 16.756077,5.0501688 17.490258,4.9135528 16.712907,4.615255 16.132846,4.392665 11.204913,4.4929691 10.905723,4.7334556 10.667817,4.9246824 8.1801471,13.26695 8.1801471,13.873526 c 0,0.103936 0.1208924,0.188974 0.26865,0.188974 0.1543838,0 0.348816,-0.293199 0.4571274,-0.689338 z"
     id="path13"
     transform="scale(3.6356762)" />
  <path
     allowFill="true" fill="#975cf6"
     style="stroke-width:0.404412"
     d="m 36.534927,39.301938 -1.516545,-0.07048 V 21.319597 3.4077397 l 0.413603,-0.087739 c 0.227482,-0.048256 1.282169,-0.177216 2.34375,-0.2865766 9.647603,-0.9938644 14.309734,-0.2793082 16.132524,2.4726022 1.119991,1.690877 1.268737,4.6909147 0.336772,6.7922437 -0.683378,1.54083 -2.674764,3.456897 -4.670304,4.493662 -0.840518,0.436683 -1.575307,0.916691 -1.632864,1.066684 -0.21617,0.563328 0.233605,0.658976 1.57064,0.334009 1.896583,-0.460965 4.188504,-0.315829 5.58817,0.353871 1.740912,0.832976 2.971868,2.109489 3.899976,4.044309 0.913149,1.90364 1.201557,3.075862 1.201557,4.88369 0,4.742382 -2.336873,8.810426 -6.158088,10.720038 -2.158075,1.078474 -2.401314,1.107875 -9.466912,1.14427 -3.589154,0.01849 -7.20818,0.0019 -8.042279,-0.03686 z M 49.632353,38.42362 c 3.070354,-0.500629 4.849631,-1.214931 6.25645,-2.511692 0.810894,-0.747454 1.923697,-2.310437 1.923697,-2.701919 0,-0.487573 -0.548572,-0.159022 -0.98884,0.592239 -0.579926,0.98957 -2.05721,2.342895 -3.118103,2.856465 -1.143274,0.553451 -3.507069,1.111695 -5.760294,1.360379 -1.237998,0.136634 -1.98708,0.300766 -2.035427,0.445982 -0.106491,0.319851 1.624878,0.300569 3.722517,-0.04145 z m -3.125,-5.535456 c 3.631898,-0.675035 5.519496,-2.518732 5.145505,-5.025829 -0.266904,-1.789228 -1.164225,-3.017379 -2.708505,-3.707092 -0.847467,-0.378498 -1.237908,-0.430072 -3.172294,-0.419021 -1.393935,0.008 -2.476532,0.107804 -2.941177,0.271243 l -0.735294,0.25864 -0.04929,4.369798 c -0.04852,4.301426 -0.04322,4.372046 0.33904,4.513452 0.514221,0.190222 2.30317,0.07687 4.122019,-0.261191 z M 36.305147,19.577206 c 0,-10.3349674 -0.03351,-11.764706 -0.275735,-11.764706 -0.242226,0 -0.275735,1.4297386 -0.275735,11.764706 0,10.334967 0.03351,11.764706 0.275735,11.764706 0.242226,0 0.275735,-1.429739 0.275735,-11.764706 z m 8.747865,-5.776269 c 1.994468,-0.610912 3.016841,-1.74147 3.016841,-3.336076 0,-1.9475009 -1.344748,-2.7405544 -4.447874,-2.6230954 -1.041721,0.039431 -1.997439,0.1365796 -2.123817,0.2158859 -0.16879,0.1059204 -0.22978,0.9533463 -0.22978,3.1926995 v 3.048507 l 1.424633,-0.105708 c 0.783548,-0.05814 1.845546,-0.234636 2.359997,-0.392213 z"
     id="path14"
     transform="scale(3.6356762)" />
  <path
     allowFill="true" fill="#17a2b8"
     style="stroke-width:0.404412"
     d="m 76.399325,39.139605 c -3.115872,-0.837963 -5.365991,-3.150353 -6.562991,-6.74462 -0.754383,-2.265206 -1.150357,-4.976097 -1.395715,-9.555242 -0.258322,-4.8211 -0.03856,-9.281089 0.584816,-11.868766 1.365049,-5.6663902 4.824318,-8.3000014 10.9378,-8.327169 4.635071,-0.020598 7.306859,1.3193878 8.928822,4.4780847 0.595336,1.1593904 1.08957,2.845184 1.089544,3.7163613 l -1.5e-5,0.558805 -2.773996,0.569047 c -1.856732,0.380884 -2.792181,0.502452 -2.828989,0.367648 -0.492229,-1.802699 -1.51844,-3.2621735 -2.617182,-3.7221494 -0.325337,-0.1361987 -1.058628,-0.247634 -1.629535,-0.247634 -2.595795,0 -4.450775,2.2787604 -5.361314,6.5861334 -0.470072,2.223714 -0.422696,7.890365 0.08402,10.049896 0.738728,3.148305 1.953958,5.528302 3.223338,6.312822 0.742889,0.45913 2.292439,0.535404 3.518389,0.173185 1.053338,-0.311217 2.583885,-1.859709 2.885917,-2.919751 0.126761,-0.444898 0.292879,-0.881116 0.369151,-0.969375 0.115285,-0.133407 3.685404,0.413128 4.808539,0.736117 0.42949,0.123513 0.415266,0.861491 -0.05437,2.82062 -0.565893,2.360672 -1.485123,4.106775 -2.916152,5.539318 -2.031907,2.034053 -3.938851,2.745514 -7.304172,2.725114 -1.124099,-0.0068 -2.428015,-0.128408 -2.985906,-0.278445 z m 5.761758,-6.309434 c 1.66894,-0.821616 3.641549,-3.190031 3.330985,-3.999349 -0.149308,-0.38909 -0.367707,-0.188039 -0.986188,0.907851 -1.086753,1.925619 -2.805273,3.017129 -5.048159,3.206312 -0.682445,0.05756 -1.240809,0.161598 -1.240809,0.231186 0,0.324958 0.369924,0.403787 1.518186,0.323511 0.897766,-0.06276 1.570789,-0.248498 2.425985,-0.669511 z M 70.848827,9.5684344 C 72.237338,6.6997746 74.837759,4.698021 78.04441,4.0294152 79.541839,3.7171925 79.740217,3.6347496 79.587738,3.3880334 79.435408,3.1415581 78.865821,3.1759869 77.493362,3.5146285 c -2.532681,0.6249156 -4.807287,2.1031029 -6.165868,4.0069844 -0.86645,1.2142209 -1.566465,2.6653611 -1.566465,3.2473031 0,0.707396 0.352769,0.318084 1.087798,-1.2004816 z"
     id="path15"
     transform="scale(3.6356762)" />
     </g>
</svg>
