<?xml version="1.0" encoding="UTF-8" standalone="no"?>
<svg
   version="1.0"
   width="300pt"
   height="457.82416pt"
   viewBox="0 0 300 457.82406"
   preserveAspectRatio="xMidYMid"
   id="svg14"
   sodipodi:docname="bear_color.svg"
   inkscape:version="1.4.2 (2aeb623e1d, 2025-05-12)"
   xmlns:inkscape="http://www.inkscape.org/namespaces/inkscape"
   xmlns:sodipodi="http://sodipodi.sourceforge.net/DTD/sodipodi-0.dtd"
   xmlns:xlink="http://www.w3.org/1999/xlink"
   xmlns="http://www.w3.org/2000/svg"
   xmlns:svg="http://www.w3.org/2000/svg">
  
        
 
  <defs
     id="defs1">
    <color-profile
       name="Artifex-Software-A98-ICC-Profile"
       xlink:href="file:///snap/inkscape/10823/usr/share/color/icc/ghostscript/a98.icc"
       id="color-profile1" />
  </defs>
  <sodipodi:namedview
     id="namedview1"
     pagecolor="#ffffff"
     bordercolor="#000000"
     borderopacity="0.25"
     inkscape:showpageshadow="2"
     inkscape:pageopacity="0.0"
     inkscape:pagecheckerboard="0"
     inkscape:deskcolor="#d1d1d1"
     inkscape:document-units="pt"
     inkscape:zoom="3.0846996"
     inkscape:cx="199.85739"
     inkscape:cy="305.21611"
     inkscape:window-width="3774"
     inkscape:window-height="2091"
     inkscape:window-x="0"
     inkscape:window-y="0"
     inkscape:window-maximized="1"
     inkscape:current-layer="svg14" />
 <g allowDrag="true">
  <g
     transform="matrix(0.05122598,0,0,-0.05122598,-20.584589,488.02587)"
     fill="#000000"
     stroke="none"
     id="g14">
    <path
       d="m 3550,9421 c -141,-58 -320,-187 -320,-232 0,-5 -24,11 -54,35 -55,45 -92,63 -104,52 -3,-4 -1,-24 4,-45 l 10,-38 -67,-11 c -80,-14 -336,-97 -430,-140 l -66,-29 -25,51 c -36,73 -91,136 -189,214 -99,80 -160,108 -277,129 -265,47 -563,-66 -693,-262 -18,-27 -37,-52 -41,-53 -5,-2 -28,-32 -53,-67 -100,-139 -130,-256 -122,-465 6,-154 27,-245 83,-350 72,-136 185,-260 293,-321 23,-12 41,-26 41,-30 0,-4 -14,-33 -31,-65 -23,-44 -29,-67 -25,-92 7,-47 -40,-173 -119,-315 -36,-64 -65,-121 -65,-127 0,-6 5,-18 11,-29 10,-15 3,-31 -44,-102 -67,-101 -79,-140 -48,-161 19,-14 20,-19 10,-42 -10,-21 -10,-34 -1,-60 9,-24 9,-47 1,-91 -7,-40 -7,-86 0,-151 10,-96 23,-134 44,-134 8,0 17,-28 24,-72 16,-102 51,-186 94,-229 20,-20 51,-64 69,-98 18,-34 51,-82 73,-107 41,-47 120,-99 135,-90 5,3 46,-34 91,-83 45,-48 103,-101 128,-117 l 45,-28 -23,-19 c -13,-11 -58,-39 -99,-63 -86,-49 -91,-54 -232,-229 -137,-170 -211,-270 -284,-380 -33,-49 -103,-151 -156,-225 -200,-283 -340,-539 -392,-720 -28,-97 -64,-360 -71,-520 -8,-175 8,-315 50,-449 24,-76 47,-112 116,-183 l 36,-37 -58,-46 c -33,-26 -71,-67 -86,-93 -15,-26 -53,-82 -86,-125 -83,-110 -99,-150 -99,-255 -1,-104 34,-219 109,-365 50,-96 146,-225 189,-253 14,-10 41,-42 61,-73 146,-229 443,-469 725,-585 160,-66 213,-78 359,-83 313,-12 528,51 657,193 88,95 173,219 198,287 17,47 27,62 41,61 37,-3 241,-25 319,-36 44,-6 118,-8 165,-5 295,21 380,28 429,36 30,5 57,7 59,5 2,-2 13,-31 25,-66 25,-74 88,-173 180,-279 56,-65 79,-84 156,-123 133,-69 211,-86 420,-93 170,-5 178,-4 290,25 261,67 423,156 666,363 88,76 120,110 198,214 21,28 79,93 130,146 104,110 140,165 197,305 101,247 92,372 -39,530 -27,32 -68,88 -90,124 -23,36 -64,83 -91,105 -28,22 -50,44 -51,48 0,10 89,121 101,125 14,6 56,158 74,271 22,130 15,303 -21,546 -50,334 -131,504 -503,1055 -94,140 -200,292 -234,337 -34,45 -84,114 -112,154 -65,94 -91,119 -189,184 -44,30 -96,67 -115,83 l -35,29 55,36 c 30,20 76,58 103,86 28,28 54,47 62,44 8,-3 26,3 42,12 48,31 149,142 175,195 14,28 38,61 53,72 42,34 98,173 119,293 3,22 15,47 27,56 28,22 44,174 30,280 -7,60 -7,76 4,82 22,13 17,64 -17,172 -43,139 -44,143 -72,210 -48,114 -99,298 -104,380 -3,44 -14,99 -24,123 l -18,42 53,24 c 171,76 332,262 401,465 46,136 58,331 29,464 -20,91 -94,246 -138,291 -19,18 -42,48 -51,66 -9,18 -50,66 -90,106 -212,212 -598,266 -821,114 -87,-59 -200,-165 -230,-215 l -25,-44 -48,35 c -104,74 -354,174 -495,198 l -70,12 52,32 c 91,56 65,71 -91,53 -60,-6 -111,-10 -114,-8 -2,3 19,19 47,36 41,26 49,35 40,46 -11,13 -30,11 -92,-13 l -27,-11 31,49 c 44,71 26,86 -62,51 z m -1502,-81 c 132,-32 252,-101 285,-166 10,-20 33,-54 50,-77 18,-23 43,-63 57,-89 l 24,-47 -24,-26 c -14,-15 -45,-38 -70,-52 -25,-14 -62,-36 -82,-49 -45,-29 -65,-30 -73,-5 -10,34 -109,123 -163,148 -29,14 -81,30 -115,35 -53,9 -74,8 -146,-10 -175,-45 -279,-157 -312,-335 -23,-127 22,-269 115,-362 28,-28 70,-60 93,-70 l 41,-20 -45,-60 c -25,-33 -62,-94 -81,-135 -20,-41 -37,-77 -38,-79 -6,-7 -97,52 -147,97 -70,62 -122,129 -154,199 -22,47 -27,72 -26,131 1,70 1,72 -24,72 -24,0 -25,1 -18,64 6,54 5,64 -10,70 -15,5 -16,15 -10,62 14,116 74,282 125,347 11,14 33,28 50,32 34,7 48,38 28,62 -11,14 -2,26 67,91 109,102 220,158 315,156 36,-1 76,-3 90,-5 20,-3 26,1 28,19 3,19 9,22 45,22 23,0 79,-9 125,-20 z m 1496,8 c -4,-7 -30,-45 -57,-85 -64,-93 -60,-110 19,-83 60,21 223,54 230,47 2,-2 -14,-18 -36,-36 -57,-46 -53,-61 18,-61 113,0 280,-49 447,-132 90,-45 195,-118 207,-143 6,-13 32,-31 61,-44 60,-24 189,-131 263,-217 28,-32 77,-104 109,-159 31,-55 79,-123 105,-150 58,-62 180,-305 239,-475 21,-63 46,-132 55,-152 20,-46 20,-48 0,-48 -12,0 -14,-5 -8,-17 4,-10 22,-76 41,-148 40,-157 59,-217 85,-269 18,-35 18,-40 4,-48 -22,-13 -20,-25 12,-67 33,-41 79,-151 88,-210 6,-36 5,-39 -14,-35 -32,9 -33,-9 -7,-97 20,-64 25,-102 23,-159 -3,-74 -3,-75 -29,-72 l -26,2 -6,-97 c -4,-72 -13,-120 -35,-183 -27,-79 -31,-85 -55,-82 -23,2 -28,-3 -41,-46 -8,-27 -22,-65 -32,-83 -24,-47 -128,-172 -132,-159 -8,22 -40,7 -87,-41 -28,-28 -63,-58 -80,-66 -16,-9 -73,-46 -125,-83 -122,-87 -179,-114 -266,-128 -39,-6 -110,-23 -158,-37 -258,-75 -284,-79 -531,-81 -162,-2 -259,-7 -329,-19 -128,-23 -212,-16 -391,28 -108,27 -178,38 -310,47 -159,11 -177,15 -315,60 -80,26 -181,65 -225,85 -44,20 -131,56 -192,80 -62,24 -132,54 -155,68 -24,14 -99,82 -166,151 -68,69 -127,126 -132,126 -5,0 -10,-5 -12,-12 -2,-6 -9,-8 -16,-4 -24,14 -92,143 -102,193 -13,59 -24,71 -46,52 -20,-16 -26,-7 -56,81 -14,41 -24,102 -27,165 l -6,100 h -28 c -21,-1 -29,5 -34,23 -9,39 6,158 27,215 26,67 25,77 -5,77 -14,0 -25,1 -25,3 0,2 11,27 25,55 30,62 30,61 5,70 -19,7 -16,14 40,107 62,104 70,125 45,125 -8,0 -15,2 -15,4 0,2 22,45 49,97 27,52 65,139 85,194 20,55 45,119 55,141 14,31 17,44 8,53 -8,8 -6,20 6,46 9,19 33,79 53,132 20,54 45,116 56,138 45,89 178,275 254,355 44,47 96,108 116,135 71,98 198,204 295,246 26,11 73,44 103,74 71,67 175,119 355,178 141,46 237,67 308,67 34,0 37,2 27,19 -17,33 -12,33 45,1 l 54,-31 25,38 c 32,47 78,85 181,146 83,49 101,56 89,35 z m 1451,-143 c 0,-16 6,-19 30,-17 93,9 135,4 200,-26 93,-44 175,-105 236,-174 48,-56 50,-60 33,-73 -26,-19 -7,-48 36,-55 29,-4 37,-13 66,-68 53,-104 86,-218 92,-314 4,-78 3,-88 -12,-88 -15,0 -16,-8 -10,-59 6,-56 5,-58 -19,-64 -23,-6 -24,-10 -23,-75 1,-93 -39,-173 -140,-281 -60,-64 -92,-89 -156,-121 -44,-22 -86,-40 -93,-40 -7,0 -22,31 -35,73 -12,39 -39,104 -60,144 l -39,72 57,26 c 31,14 76,45 100,68 221,215 167,565 -107,696 -71,34 -82,36 -172,36 -90,0 -99,-2 -171,-38 -69,-34 -96,-57 -145,-126 -1,-2 -25,17 -53,43 -29,25 -79,62 -113,82 -34,21 -64,39 -66,40 -9,8 26,70 70,125 26,33 51,69 54,79 6,20 93,77 168,110 63,28 162,49 222,47 43,-2 50,-5 50,-22 z M 2015,8931 c 79,-37 165,-124 165,-167 0,-7 -26,-31 -57,-55 -100,-75 -176,-165 -310,-364 -22,-35 -45,-65 -51,-69 -16,-9 -109,43 -142,80 -16,19 -42,58 -57,87 -24,45 -27,64 -28,147 0,77 4,106 23,151 33,83 93,145 176,185 61,29 81,34 146,34 62,0 86,-5 135,-29 z m 3050,-126 c 255,-66 357,-376 195,-591 -29,-39 -56,-61 -104,-84 -36,-18 -72,-30 -80,-27 -9,4 -22,22 -30,42 -48,115 -210,357 -309,461 l -38,41 33,44 c 45,58 105,99 170,114 71,18 94,18 163,0 z M 2145,5587 c 50,-19 131,-54 180,-77 161,-75 257,-99 424,-105 80,-3 171,-12 201,-20 288,-76 424,-90 556,-59 64,14 126,18 329,19 l 250,1 100,32 c 126,40 187,56 300,77 63,11 116,29 177,60 l 87,44 78,-60 c 43,-33 108,-81 145,-108 43,-31 88,-76 126,-127 32,-44 86,-111 119,-151 33,-39 108,-150 166,-245 58,-95 142,-224 186,-286 105,-148 162,-248 227,-393 93,-207 124,-312 135,-457 6,-70 19,-183 30,-252 10,-69 19,-142 19,-163 0,-48 -27,-219 -41,-254 -9,-25 -10,-25 -24,-7 -13,16 -16,17 -25,4 -5,-8 -10,-33 -10,-54 0,-43 -37,-116 -71,-140 -17,-11 -27,-12 -45,-4 -28,13 -29,15 -8,63 26,63 19,175 -12,175 -10,0 -14,-12 -14,-42 0,-50 -15,-105 -34,-131 -12,-16 -20,-14 -112,27 -248,109 -367,124 -507,64 l -49,-21 -45,24 c -26,14 -46,33 -50,47 -6,24 1,90 13,130 4,16 2,22 -8,22 -27,0 -60,-47 -65,-92 l -5,-44 h -82 l -81,1 -30,60 c -29,59 -30,64 -30,205 1,127 4,157 28,244 31,111 103,256 177,358 36,48 71,81 130,120 71,47 99,78 70,78 -34,0 -124,-47 -172,-90 -31,-27 -58,-50 -61,-50 -2,0 -7,22 -11,48 -11,86 -106,384 -143,452 -20,36 -56,103 -80,150 -71,138 -90,145 -52,18 26,-89 54,-154 85,-199 16,-24 39,-91 63,-190 53,-213 52,-209 44,-209 -5,0 -35,32 -68,71 -55,65 -143,140 -339,287 -181,137 -433,251 -666,303 -90,21 -131,24 -290,23 -166,0 -197,-3 -305,-28 -214,-50 -398,-127 -560,-235 -220,-146 -266,-181 -362,-278 -57,-57 -103,-97 -103,-88 0,21 80,285 96,317 8,15 27,46 42,70 31,47 112,231 112,254 0,19 -13,18 -26,-3 -68,-106 -136,-217 -157,-253 -32,-58 -143,-354 -157,-417 -23,-106 -14,-101 -74,-45 -55,52 -141,102 -176,102 -34,0 -23,-17 39,-59 98,-67 176,-161 236,-287 87,-181 107,-255 112,-421 l 5,-143 -35,-75 -36,-75 -69,2 c -38,0 -74,-2 -81,-6 -7,-5 -11,6 -11,34 0,48 -22,95 -52,111 -20,11 -21,10 -13,-27 9,-49 7,-106 -5,-138 -16,-44 -38,-46 -120,-14 -96,38 -183,46 -278,24 -107,-24 -230,-65 -294,-97 -32,-16 -62,-29 -67,-29 -14,0 -32,63 -34,121 -2,59 -21,76 -37,34 -14,-38 -12,-84 6,-139 15,-45 15,-48 -2,-61 -30,-23 -51,-17 -79,20 -19,24 -29,53 -35,100 -5,37 -11,69 -15,73 -3,3 -15,0 -26,-7 -12,-7 -23,-11 -25,-9 -9,9 -44,218 -44,263 0,28 7,91 15,140 8,50 22,163 30,252 21,222 65,367 178,587 62,122 182,306 275,421 8,10 149,224 188,285 147,233 239,347 330,413 131,94 270,178 289,174 11,-3 61,-21 110,-40 z m 1520,-901 c 156,-37 212,-57 372,-135 170,-83 268,-148 388,-255 158,-143 199,-189 245,-277 23,-46 50,-92 58,-101 14,-16 13,-20 0,-35 -25,-29 -63,-110 -109,-238 l -43,-120 -1,-161 v -160 l 36,-73 36,-72 -31,-13 c -99,-43 -291,-216 -405,-366 -19,-25 -51,-63 -71,-85 -40,-45 -207,-350 -239,-435 -60,-164 -86,-372 -63,-500 12,-63 12,-63 -63,-84 -108,-31 -167,-38 -360,-43 -219,-6 -308,4 -455,53 l -76,24 14,101 c 13,88 13,113 -1,209 -21,147 -53,233 -161,443 -97,191 -180,306 -351,493 -80,86 -259,224 -293,224 -17,0 -16,3 20,73 30,57 32,71 36,177 6,171 -29,317 -125,522 l -35,76 39,59 c 22,32 54,81 72,108 41,66 67,93 191,200 155,134 175,148 300,213 206,108 353,159 570,198 120,21 369,12 505,-20 z M 1945,3020 c 47,-24 55,-25 55,-5 0,25 27,18 123,-32 72,-37 112,-67 185,-138 92,-89 207,-230 274,-335 62,-99 155,-283 186,-370 48,-136 48,-132 18,-124 -44,11 -43,-20 3,-77 23,-29 44,-63 48,-77 18,-71 -31,-366 -75,-445 -31,-57 -179,-244 -221,-280 -40,-33 -118,-62 -223,-82 -45,-9 -116,-23 -157,-32 -72,-16 -75,-16 -210,11 -304,63 -483,139 -661,282 -79,64 -371,368 -393,409 -9,17 -56,82 -106,145 -51,64 -99,138 -110,166 -25,65 -71,268 -71,312 0,47 69,175 138,256 31,37 76,92 98,122 53,69 145,139 263,199 100,51 231,86 341,92 90,5 100,3 190,-30 52,-19 120,-46 150,-59 84,-38 111,-15 45,40 l -36,29 23,15 c 22,15 48,24 73,27 6,0 28,-8 50,-19 z m 2785,-25 c 0,-19 17,-19 50,0 38,22 84,18 129,-11 l 40,-27 -40,-29 c -22,-16 -37,-33 -34,-38 11,-18 54,-10 157,30 158,61 189,66 300,46 146,-27 348,-115 467,-205 18,-14 59,-57 90,-96 30,-38 65,-79 76,-90 67,-65 155,-226 155,-282 0,-89 -41,-266 -80,-343 -10,-19 -49,-73 -87,-120 -38,-47 -85,-107 -103,-135 -19,-27 -113,-129 -210,-225 -261,-261 -406,-349 -690,-420 -220,-54 -341,-71 -378,-51 -10,5 -67,18 -127,29 -136,25 -210,52 -262,97 -42,35 -189,226 -216,281 -40,79 -87,353 -73,427 4,20 24,57 46,84 50,59 53,87 10,81 -27,-4 -29,-3 -23,21 34,144 180,429 298,581 64,83 237,267 281,299 44,33 193,110 212,111 6,0 12,-7 12,-15 z"
       id="path1" />
    <path
       d="m 2687,8256 c -78,-29 -197,-128 -217,-182 -20,-52 -8,-84 31,-84 6,0 31,20 57,44 61,56 114,89 182,111 86,28 102,42 98,84 l -3,36 -55,2 c -30,2 -72,-4 -93,-11 z"
       id="path2" />
    <path
       d="m 4126,8164 c -9,-8 -16,-21 -16,-28 0,-27 43,-67 111,-102 49,-26 79,-50 103,-83 51,-69 71,-84 101,-77 21,5 25,12 25,42 0,131 -250,323 -324,248 z"
       id="path3" />
    <path
       d="m 2633,7546 c -39,-19 -60,-37 -88,-78 -38,-58 -60,-149 -49,-201 6,-27 4,-28 -17,-22 -23,8 -23,7 -6,-16 42,-59 42,-59 -6,-53 -25,4 -52,2 -62,-3 -15,-9 -14,-11 11,-17 16,-4 70,-27 120,-52 79,-39 101,-45 177,-51 l 87,-6 -103,-106 c -110,-113 -150,-178 -145,-233 l 3,-33 24,45 c 34,65 103,142 206,232 208,182 516,281 727,234 94,-21 288,-116 382,-188 130,-98 263,-252 311,-360 17,-37 33,-68 38,-68 14,0 7,79 -12,122 -18,42 -116,179 -160,226 l -22,22 h 68 c 37,0 93,7 123,15 30,8 87,15 125,15 64,1 68,2 50,16 -11,8 -36,17 -57,21 -41,6 -49,18 -19,28 10,3 27,15 37,27 19,20 19,20 -14,13 -31,-6 -32,-6 -22,20 14,37 12,153 -4,197 -64,178 -250,225 -353,90 -55,-73 -81,-211 -59,-310 l 8,-32 -59,35 c -181,110 -358,175 -479,175 -115,0 -275,-43 -438,-119 -49,-22 -90,-41 -91,-41 -1,0 10,23 24,51 19,40 26,72 29,139 11,227 -115,345 -285,266 z m 101,-52 c 40,-39 -11,-133 -73,-134 -62,0 -81,71 -32,121 33,33 80,39 105,13 z m 126,-118 c 15,-41 -4,-30 -23,12 -9,21 -17,43 -17,48 0,13 28,-30 40,-60 z m 1302,-3 c 26,-23 23,-69 -7,-98 -46,-47 -115,-23 -115,41 0,59 79,96 122,57 z m 127,-101 c 5,-18 6,-32 1,-32 -4,0 -11,11 -14,24 -3,13 -9,32 -12,43 -5,13 -4,15 5,7 6,-6 15,-25 20,-42 z m -1713,-18 c -4,-18 -11,-34 -16,-34 -8,0 -7,7 6,65 9,40 18,13 10,-31 z m 1422,-123 c 0,-43 -7,-58 -19,-40 -10,17 -12,61 -3,84 10,25 22,0 22,-44 z"
       id="path4" />
    <path
       d="m 3244,7090 c -61,-12 -131,-48 -159,-82 -69,-82 15,-220 217,-354 37,-24 77,-44 88,-44 53,0 246,121 298,187 113,145 72,224 -144,278 -100,26 -216,31 -300,15 z m 282,-84 c 90,-33 97,-43 38,-53 -78,-13 -304,-10 -346,5 -51,18 -48,38 10,56 78,24 219,20 298,-8 z"
       id="path5" />
    <path
       d="m 2684,6521 c -18,-11 -34,-25 -37,-33 -7,-21 12,-48 36,-48 17,0 30,-16 61,-76 28,-54 63,-101 120,-159 291,-295 561,-339 891,-144 90,53 210,159 256,225 22,32 37,44 54,44 53,0 17,92 -40,102 -17,3 -20,-3 -20,-38 0,-35 -8,-50 -70,-124 -180,-214 -450,-296 -725,-220 -178,50 -335,179 -437,358 -31,55 -34,67 -24,88 21,46 -11,58 -65,25 z"
       id="path6" />
    <path
       d="m 1194,2806 c -36,-16 -100,-87 -120,-133 -8,-18 -14,-53 -14,-78 0,-37 5,-51 26,-70 56,-52 190,-21 242,55 37,55 25,167 -25,222 -19,21 -65,23 -109,4 z m -23,-123 c -11,-20 -49,-63 -56,-63 -12,0 -3,30 16,54 24,30 56,37 40,9 z"
       id="path7" />
    <path
       d="m 2060,2605 c 0,-3 42,-54 93,-114 159,-187 240,-307 330,-487 104,-207 147,-351 147,-493 0,-67 10,-95 26,-69 32,51 19,236 -26,369 -44,133 -159,352 -251,479 -88,121 -276,320 -303,320 -9,0 -16,-2 -16,-5 z"
       id="path8" />
    <path
       d="m 894,2460 c -34,-13 -121,-117 -139,-164 -17,-43 -17,-47 2,-83 23,-44 89,-83 142,-83 74,0 131,64 131,147 0,51 -29,130 -62,165 -27,29 -39,32 -74,18 z m -14,-99 c 0,-17 -49,-67 -50,-52 0,8 10,25 22,38 24,25 28,27 28,14 z m -55,-142 c 12,-19 -5,-23 -22,-6 -16,16 -16,17 -1,17 9,0 20,-5 23,-11 z"
       id="path9" />
    <path
       d="m 1663,2420 c -98,-18 -228,-80 -311,-149 -47,-39 -156,-195 -192,-275 -60,-134 24,-312 248,-528 149,-143 384,-279 540,-314 169,-38 286,0 423,136 65,65 78,83 90,130 20,81 17,201 -9,294 -68,239 -278,528 -482,661 -74,49 -75,49 -165,52 -49,1 -113,-2 -142,-7 z m 258,-92 c 46,-23 90,-58 159,-128 275,-279 376,-521 311,-752 -22,-83 -54,-126 -131,-178 -51,-35 -71,-42 -141,-51 -120,-15 -212,1 -326,55 -240,116 -444,302 -538,491 -55,111 -55,170 -1,275 73,143 109,184 200,231 124,65 205,88 312,89 82,0 97,-3 155,-32 z"
       id="path10" />
    <path
       d="m 5413,2748 c -68,-75 -67,-196 2,-257 68,-59 158,-64 214,-12 24,23 31,37 31,68 0,71 -67,165 -145,203 -53,26 -77,25 -102,-2 z m 81,-99 c 29,-35 33,-49 11,-49 -20,0 -55,40 -55,62 0,26 15,22 44,-13 z m 126,-81 c 0,-6 -7,-5 -15,2 -8,7 -15,17 -15,22 0,6 7,5 15,-2 8,-7 15,-17 15,-22 z"
       id="path11" />
    <path
       d="m 4620,2566 c -53,-35 -196,-189 -276,-296 -134,-179 -238,-379 -279,-537 -22,-85 -30,-222 -15,-267 20,-62 34,-38 41,70 10,144 51,280 140,456 60,119 221,341 366,505 90,101 95,116 23,69 z"
       id="path12" />
    <path
       d="m 5753,2388 c -73,-80 -80,-210 -16,-279 49,-53 149,-44 203,17 56,65 49,119 -27,204 -72,81 -123,99 -160,58 z m 77,-109 c 0,-17 -29,-9 -40,11 -17,32 0,47 22,21 10,-13 18,-27 18,-32 z m 97,-116 c -9,-9 -19,-14 -23,-11 -10,10 6,28 24,28 15,0 15,-1 -1,-17 z"
       id="path13" />
    <path
       d="m 4785,2365 c -217,-117 -455,-434 -516,-690 -17,-73 -20,-108 -15,-182 3,-51 12,-107 19,-125 19,-44 174,-190 234,-219 68,-34 193,-38 301,-11 150,38 358,154 496,277 163,145 257,291 264,411 4,60 2,67 -44,151 -88,162 -156,238 -280,311 -100,59 -211,94 -319,99 -83,5 -94,3 -140,-22 z m 253,-60 c 73,-17 183,-69 262,-124 61,-42 104,-99 158,-211 30,-61 37,-86 36,-135 -1,-170 -220,-414 -506,-560 -136,-70 -213,-89 -336,-82 -111,6 -181,35 -244,100 -47,49 -61,75 -79,147 -29,121 -10,269 51,396 63,132 267,364 389,443 60,38 69,41 135,41 39,0 99,-7 134,-15 z"
       id="path14" />
  </g>
  <path
     
     allowFill="true" fill="#f4a460"
     style="stroke-width:0.713198"
     d="M 214.43359 11.712891 C 214.23137 11.510676 208.06495 15.033669 204.46289 17.408203 C 200.60363 19.952278 197.69739 22.634202 195.9668 25.251953 C 195.25917 26.322333 194.57665 27.204166 194.44141 27.222656 L 194.43945 27.222656 C 194.31186 27.227574 192.73897 26.40818 190.94531 25.402344 C 189.19349 24.41996 187.67195 23.691221 187.50977 23.75 L 187.50781 23.75 L 187.50586 23.751953 L 187.50391 23.753906 C 187.40484 23.852974 187.48108 24.227743 187.67383 24.587891 C 187.86657 24.948039 188.02539 25.545743 188.02539 25.914063 C 188.02539 26.519206 187.82894 26.582284 185.99805 26.583984 C 181.05321 26.588648 172.82351 28.488139 162.77148 31.941406 C 152.73646 35.388834 147.07356 38.159561 142.60938 41.808594 C 137.19849 46.231457 135.58441 47.38082 132.75195 48.832031 C 128.94909 50.780421 125.02926 53.490056 121.40625 56.673828 C 118.30172 59.401983 116.72847 61.118901 112.59375 66.294922 C 111.16946 68.077916 108.48597 71.216933 106.62891 73.271484 C 101.08124 79.409106 95.040957 87.397391 90.953125 94.005859 C 88.453911 98.046139 87.75221 99.540493 84.939453 106.78516 C 83.548039 110.36894 81.871159 114.60122 81.212891 116.18945 C 80.215986 118.59472 80.073217 119.20636 80.367188 119.85156 C 80.922145 121.06956 80.842779 121.4025 78.666016 126.90625 C 77.535583 129.76445 75.897676 133.92751 75.027344 136.15625 C 74.157012 138.385 72.018914 143.10024 70.275391 146.63477 C 68.531869 150.16929 67.105469 153.12322 67.105469 153.19922 L 67.105469 153.20117 L 67.105469 153.20313 L 67.105469 153.20508 L 67.107422 153.20508 L 67.107422 153.20703 L 67.109375 153.20898 C 67.110207 153.21017 67.111001 153.21234 67.111328 153.21289 C 67.161449 153.28107 67.504438 153.33789 67.916016 153.33789 C 68.603331 153.33789 68.726563 153.48774 68.726563 154.32617 C 68.726562 155.51431 68.513215 155.94561 64.632813 162.5918 C 62.962128 165.45328 61.59375 168.03452 61.59375 168.32813 C 61.59375 168.62173 61.996005 169.06004 62.486328 169.30078 C 63.66183 169.87794 63.566459 170.53408 61.746094 174.42969 C 60.949306 176.13483 60.296875 177.62952 60.296875 177.75195 C 60.296875 177.75291 60.296796 177.75491 60.296875 177.75586 C 60.316646 177.87567 60.956392 177.97461 61.734375 177.97461 C 63.738119 177.97461 63.815259 178.51654 62.427734 182.80859 C 61.033956 187.11997 60.300528 191.42326 60.298828 195.29297 C 60.297225 198.84855 60.632705 199.37109 62.917969 199.37109 L 64.464844 199.37109 L 64.630859 201.07227 C 64.721938 202.00835 64.959005 204.93947 65.158203 207.58594 C 65.36914 210.38836 65.837186 213.64777 66.279297 215.39063 C 67.13189 218.75165 68.949768 223.36133 69.421875 223.36133 C 69.59239 223.36133 70.151266 223.14313 70.666016 222.87695 C 72.330261 222.01633 72.525038 222.23993 73.753906 226.43945 C 75.049825 230.86811 78.02419 236.76584 80.103516 239.0332 L 81.041016 240.05664 L 81.644531 239.2832 C 82.080079 238.72593 82.389204 238.59058 82.755859 238.79688 C 83.035234 238.95408 86.301734 242.07529 90.015625 245.73242 C 99.242207 254.81799 101.9956 257.17089 105.17773 258.68164 C 106.61414 259.3636 111.21816 261.30951 115.4082 263.00586 C 119.59824 264.70221 124.41163 266.70123 126.10547 267.44922 C 133.14483 270.55778 146.19895 275.08498 151.38477 276.2168 C 152.92489 276.55294 156.94882 277.05337 160.32617 277.32813 C 173.10791 278.36791 176.35026 278.86844 188.6582 281.70117 C 191.05652 282.25316 194.48367 282.914 196.27539 283.16992 C 200.36153 283.75357 205.86857 283.58693 211.68945 282.70508 C 216.44914 281.984 227.81991 281.39472 237.13867 281.38672 C 248.26028 281.37669 253.36529 280.6028 266.15234 276.98828 C 270.34238 275.80388 276.45641 274.27303 279.74023 273.58594 C 285.01875 272.48149 286.12837 272.13284 289.30469 270.57227 C 291.28071 269.60142 295.6232 266.93261 298.95508 264.64258 C 302.28696 262.35256 306.08087 259.79353 307.38477 258.95508 C 308.68867 258.11663 311.1698 256.13045 312.89844 254.54297 C 316.35172 251.37167 317.72618 250.57446 318.69531 251.17969 C 319.40628 251.6237 319.89664 251.22557 322.62109 247.99805 C 326.56759 243.3228 328.31366 240.40327 329.69141 236.16602 C 330.89837 232.454 331.13997 232.11328 332.56836 232.11328 C 334.15967 232.11328 334.65051 231.55572 335.88281 228.35547 C 337.9547 222.97486 338.46137 220.19099 339.27344 209.70703 L 339.46484 207.23633 L 340.86719 207.39453 C 342.83256 207.61606 343.02058 207.13067 343.01758 201.86914 C 343.0147 197.49206 342.8456 196.41534 341.22461 190.5293 C 340.74463 188.78644 340.39607 186.81653 340.45117 186.15234 C 340.54868 184.97634 340.58481 184.94531 341.84766 184.94531 L 343.14453 184.94531 L 343.04102 183.48633 C 342.79775 180.06708 339.6208 172.3916 336.6543 168.05859 C 334.9935 165.63275 334.83858 164.6137 336.01367 163.84375 C 336.45942 163.55169 336.82436 163.14768 336.82422 162.94531 C 336.82409 162.74294 336.36945 161.6277 335.81445 160.46875 C 334.25931 157.22133 333.13019 153.67177 330.33203 143.23633 C 328.91416 137.94851 327.60597 133.23566 327.42578 132.76172 C 326.92139 131.43509 327.02698 130.99852 327.9082 130.77734 C 328.91051 130.52579 328.91695 130.2014 327.95508 128.00977 C 327.53452 127.05151 326.34936 123.86186 325.32227 120.91992 C 322.34681 112.39712 320.49429 107.9905 316.39063 99.685547 C 312.38094 91.570777 309.88344 87.408597 307.05859 84.125 C 306.13825 83.055204 304.32611 80.5349 303.03125 78.523438 C 295.03909 66.108194 294.24859 65.007694 290.65039 61.314453 C 284.80062 55.310183 280.2694 51.719258 275.08203 48.976563 C 273.2925 48.030393 271.85618 46.938208 270.38281 45.40625 C 262.29645 36.998351 238.59044 27.243332 226.21875 27.232422 C 223.60235 27.230115 222.38867 26.830131 222.38867 25.96875 C 222.38867 25.596239 223.4152 24.401233 224.90039 23.044922 L 227.41211 20.75 L 226.31445 20.748047 C 224.72356 20.746435 217.64831 22.255842 213.24609 23.535156 C 211.15878 24.141739 209.08823 24.638672 208.64453 24.638672 C 206.64996 24.638672 207.15625 23.12264 211.20703 16.960938 C 213.05609 14.148299 214.50739 11.786731 214.43359 11.712891 z M 103.6582 11.738281 L 101.36133 11.832031 L 100.98047 12.966797 L 100.59766 14.101563 L 95.117188 14.107422 C 89.407225 14.112834 88.469294 14.259755 84.621094 15.765625 C 79.407892 17.805647 72.366812 23.114827 67.455078 28.708984 C 66.493608 29.804037 66.473368 29.889836 66.941406 30.794922 C 68.017558 32.87597 67.13317 34.511667 64.505859 35.298828 C 62.469314 35.908992 60.86026 37.785611 58.853516 41.890625 C 55.774722 48.188633 52.841797 58.424292 52.841797 62.871094 C 52.841797 64.206411 52.967488 64.521157 53.695313 64.998047 L 54.550781 65.556641 L 54.324219 69.712891 L 54.097656 73.867188 L 55.496094 74.142578 L 56.894531 74.417969 L 57.091797 78.494141 C 57.335291 83.5033 57.520446 84.535762 58.660156 87.205078 C 61.762164 94.470295 68.678884 102.00133 76.650391 106.79492 C 77.709698 107.43192 78.735741 107.95313 78.931641 107.95313 C 79.127541 107.95313 80.012099 106.47023 80.896484 104.6582 C 83.117323 100.10789 85.571592 95.99863 88.082031 92.626953 C 89.250589 91.057504 90.149561 89.723049 90.082031 89.662109 C 90.014498 89.601166 89.164665 89.151155 88.191406 88.662109 C 82.069729 85.586072 76.944848 79.580815 74.640625 72.779297 C 71.85114 64.545407 72.985025 54.753627 77.568359 47.492188 C 79.123802 45.027879 82.559177 41.578953 85.166016 39.863281 C 90.117762 36.604327 97.246006 34.488457 102.2793 34.783203 C 105.70936 34.984064 109.54678 35.931584 112.49023 37.306641 C 116.44058 39.152077 122.29029 44.298874 123.79883 47.255859 C 124.35866 48.353227 124.67149 48.626953 125.36719 48.626953 C 126.36834 48.626953 134.99685 43.586336 137.87109 41.322266 C 140.53676 39.222488 140.66093 38.811768 139.38281 36.277344 C 138.80716 35.135847 137.80042 33.398616 137.14648 32.417969 C 136.49254 31.437323 134.98634 29.175572 133.79883 27.392578 C 130.28231 22.11263 129.90755 21.645595 127.88672 20.017578 C 125.54615 18.131973 120.81123 15.6628 116.90039 14.289063 C 112.76557 12.836649 106.4623 11.622591 103.6582 11.738281 z M 310.10156 20.816406 C 304.7355 20.637933 298.54235 22.18373 292.69531 25.164063 C 287.37658 27.875112 284.92488 29.742551 283.2207 32.376953 C 282.42475 33.607364 280.8425 35.832958 279.70508 37.324219 C 277.62543 40.050822 275.80401 43.0126 275.41992 44.289063 C 275.2432 44.876341 275.55506 45.179238 277.57031 46.369141 C 281.53346 48.709188 284.56822 50.84944 287.80664 53.587891 L 290.90039 56.205078 L 291.7168 55.089844 C 293.78685 52.263133 296.79728 49.768864 300.38281 47.910156 C 305.2098 45.407887 306.70511 45.060547 312.67188 45.060547 C 318.50944 45.060547 320.13378 45.411245 324.66602 47.650391 C 332.07359 51.310096 337.30241 57.249549 339.79492 64.835938 C 340.68859 67.555985 340.82434 68.465535 340.95703 72.617188 C 341.08489 76.617886 341.0055 77.741183 340.42773 80.162109 C 338.75123 87.186832 334.59134 93.59399 329.22852 97.408203 C 327.78025 98.438258 322.1155 101.48464 321.35938 101.64063 C 321.32291 101.64815 322.41812 103.91108 323.79492 106.66797 C 325.17171 109.42485 326.79418 113.13889 327.39844 114.92188 C 328.00271 116.70487 328.83688 118.85014 329.25391 119.68945 L 330.01367 121.2168 L 331.23242 120.78516 C 333.63715 119.93672 339.61702 116.75121 341.58984 115.26758 C 345.73625 112.14933 352.00569 104.78795 354.16211 100.50586 C 355.75716 97.338519 356.29207 95.203393 356.47461 91.257813 C 356.69914 86.404721 356.69305 86.420248 358.24023 85.8125 L 359.57031 85.291016 L 359.46289 81.464844 C 359.35756 77.741262 359.37321 77.639136 360.0625 77.541016 C 361.07545 77.396817 361.22647 76.251646 360.83203 71.708984 C 360.17187 64.106178 358.28467 57.671602 354.62695 50.550781 C 352.79167 46.97787 351.75482 45.899188 349.86914 45.597656 C 347.27868 45.183423 346.08265 43.257193 347.52148 41.818359 C 348.36949 40.970351 348.34213 40.649647 347.29688 39.255859 C 342.21264 32.476223 331.64272 25.118244 324.63281 23.478516 C 323.00856 23.098578 321.25712 22.987389 318.22266 23.068359 C 313.73455 23.188122 314.09753 23.301795 313.20508 21.476563 C 312.97832 21.012784 312.41268 20.893276 310.10156 20.816406 z M 166.24805 85.826172 L 166.4707 87.617188 C 166.96562 91.578386 166.52192 92.047725 159.95898 94.498047 C 155.43215 96.18817 152.88638 97.620998 149.60938 100.32227 C 148.18299 101.49806 146.3102 103.03791 145.44727 103.74609 C 143.68306 105.19392 142.49538 105.38539 141.29688 104.41406 C 140.65892 103.89701 140.53619 103.50659 140.55469 102.06445 C 140.56805 101.02196 140.86134 99.697514 141.29297 98.732422 C 142.78904 95.38737 150.84855 88.655722 155.49414 86.871094 C 157.01105 86.28836 158.27267 86.110864 161.81836 85.984375 L 166.24805 85.826172 z M 257.14453 91.769531 C 257.32854 91.761495 257.51914 91.761937 257.71484 91.771484 C 258.65424 91.817314 259.7332 92.066583 260.99414 92.511719 C 264.1474 93.624884 267.56245 95.980899 270.85938 99.318359 C 274.72385 103.23035 276.25465 106.03987 276.46094 109.60352 C 276.59436 111.90828 276.55218 112.11121 275.84375 112.60742 C 274.78158 113.35139 273.25031 113.2693 271.96094 112.40039 C 271.35833 111.9943 269.69526 110.23872 268.26563 108.49805 C 265.44578 105.06471 264.57049 104.34186 260.1543 101.79492 C 253.85156 98.159946 251.91477 95.477121 253.98242 93.246094 C 254.84676 92.313456 255.8565 91.825788 257.14453 91.769531 z M 159.71094 133.56641 C 161.40205 133.61911 162.99 133.98474 164.29883 134.65625 C 167.66749 136.38459 169.86814 139.51102 171.23633 144.51758 C 171.79475 146.56101 171.91706 147.93128 171.91406 152.04102 C 171.9102 157.74044 171.51396 159.82373 169.69922 163.66602 C 169.1469 164.83544 168.83211 165.75813 168.92773 165.87891 C 168.92869 165.87973 168.93257 165.88211 168.93359 165.88281 C 168.94447 165.88855 168.96108 165.89001 168.97852 165.88281 C 169.20173 165.79074 171.56151 164.74451 174.22266 163.55664 C 190.36596 156.35072 201.21745 154.16104 211.04102 156.12891 C 217.65046 157.45293 228.12671 161.90575 236.76953 167.06445 C 238.90127 168.33683 240.59743 169.20168 240.74219 169.09961 L 240.74414 169.09766 L 240.74609 169.09766 L 240.74805 169.0957 L 240.75 169.09375 L 240.75 169.0918 L 240.75195 169.08984 L 240.75195 169.08789 L 240.75195 169.08594 L 240.75195 169.08398 C 240.75237 169.07779 240.75129 169.06901 240.74805 169.06055 C 240.15733 167.52114 239.82336 163.86849 239.99219 160.80664 C 240.62276 149.37042 246.04339 141.65116 253.83398 141.09375 C 260.94993 140.5846 268.10226 146.96564 269.37695 154.95898 C 269.98951 158.80016 269.7419 164.84082 268.88086 167.07031 C 268.63703 167.7017 268.76457 167.70075 271.58203 167.05078 C 273.45769 166.61807 271.09901 169.54461 268.80664 170.49414 C 267.46493 171.0499 267.7307 171.30635 270.34766 171.97852 C 272.90813 172.63617 274.99068 173.66322 274.81836 174.18359 C 274.73278 174.44201 273.28819 174.64651 270.48828 174.79492 C 268.17723 174.91742 264.83404 175.3212 263.05859 175.69336 C 261.28315 176.06552 257.62335 176.53485 254.92578 176.73633 L 250.02148 177.10352 L 252.81836 180.57031 C 256.25732 184.83407 259.92057 190.13388 261.2207 192.72656 C 262.36742 195.01331 262.91016 197.36281 262.91016 200.03516 C 262.91016 201.46261 262.79317 201.96484 262.46094 201.96484 C 261.88341 201.96484 261.21553 200.92766 259.82617 197.87891 C 255.74702 188.9278 244.50872 176.60751 234.70703 170.3418 C 229.08969 166.75092 218.77261 161.89199 213.66602 160.43164 C 204.43421 157.79158 191.15874 159.82031 178.84766 165.75195 C 170.29752 169.87152 165.0516 173.67205 157.53125 181.19531 C 152.54592 186.18257 149.51813 190.08471 148.01758 193.45508 C 147.68021 194.21285 147.29845 194.83203 147.16992 194.83203 C 146.68752 194.83203 146.6198 191.38414 147.06836 189.66016 C 147.95513 186.252 150.59883 182.74524 158.1875 174.90625 L 163.21875 169.70898 L 161.60156 169.48633 C 160.71196 169.36435 158.3609 169.10745 156.37891 168.91602 C 152.13926 168.50653 150.88346 168.10634 144.42188 165.0957 C 141.74739 163.84957 138.79349 162.57831 137.85742 162.27148 C 136.91838 161.96368 136.15625 161.51726 136.15625 161.27539 C 136.15625 160.5793 137.40041 160.32674 140.45117 160.40234 C 141.95035 160.43952 143.18688 160.35789 143.28125 160.2207 C 143.28264 160.21818 143.28583 160.21252 143.28711 160.20898 L 143.28711 160.20703 L 143.28711 160.20508 C 143.28711 160.05763 142.63245 158.99958 141.83203 157.85352 C 140.23475 155.56651 140.08739 155.1594 140.9375 155.39648 C 141.24952 155.48349 141.8062 155.64143 142.17383 155.74609 C 142.81832 155.92957 142.84103 155.81746 142.83203 152.61133 C 142.82121 148.87687 143.38224 146.30438 144.9375 142.96875 C 147.0772 138.37969 149.7947 135.93229 154.50781 134.34961 C 156.22657 133.77244 158.01983 133.5137 159.71094 133.56641 z M 198.87891 165.75195 C 205.11794 165.47242 212.82656 166.49159 218.95313 168.5625 C 226.19365 171.00995 229.35862 174.246 228.71484 178.53906 C 228.4007 180.63389 226.12903 184.80326 224.04883 187.10352 C 220.96287 190.51593 213.08351 195.95814 207.92773 198.23828 C 204.97655 199.54342 203.76699 199.57618 201.51758 198.41406 C 198.61256 196.91325 194.68536 194.20105 191.21094 191.29492 C 183.68373 184.99889 180.25186 178.52908 182.00391 173.94141 C 183.12009 171.01872 188.12274 167.69505 193.24219 166.47461 C 194.88256 166.08356 196.79923 165.84513 198.87891 165.75195 z M 159.30664 203.96094 C 159.39999 203.95858 159.48937 203.96272 159.57227 203.9707 C 160.47809 204.05792 160.64663 204.21224 160.74023 205.03516 C 160.80042 205.56463 160.67408 206.52987 160.45898 207.18164 C 159.93779 208.76087 160.30584 209.81214 162.86914 214.08008 C 170.68474 227.09317 181.94418 235.29545 196.12891 238.30859 C 201.01198 239.34582 209.75585 239.35665 214.50586 238.33203 C 223.73128 236.34204 231.39763 232.19586 237.96484 225.64063 C 241.88668 221.72592 245.21948 217.43178 245.71094 215.66211 C 245.89669 214.99325 246.04979 213.84336 246.05078 213.10742 C 246.05311 211.3869 246.54894 210.96328 248.06836 211.38281 C 249.52191 211.78416 251.3966 213.81125 251.91602 215.54492 C 252.24901 216.65634 252.22708 216.96762 251.76563 217.67188 C 251.46086 218.13702 250.91087 218.50377 250.50391 218.50977 C 249.30425 218.52886 248.46721 219.19464 246.44531 221.74023 C 244.19583 224.57233 239.0924 229.59472 235.8418 232.17578 C 228.63396 237.89897 219.19392 242.5172 211.51367 244.07617 C 207.62107 244.8663 202.34499 245.14796 199.07813 244.74023 C 188.79156 243.4564 178.69587 237.70165 168.32617 227.21289 C 164.33866 223.1796 161.84011 219.90907 159.6582 215.86328 C 157.66427 212.16605 156.7555 211.04102 155.75781 211.04102 C 154.69183 211.04102 153.37437 209.78344 153.13477 208.53516 C 152.96182 207.63409 153.08807 207.34036 154.02734 206.45703 C 155.40527 205.16115 157.90645 203.99624 159.30664 203.96094 z M 111.28516 266.42188 L 108.88867 267.62695 C 105.84498 269.1567 100.93205 272.20769 95.146484 276.16211 C 87.225064 281.57637 81.82875 287.65408 73.085938 301.00195 C 61.590575 318.55221 56.566086 326.03371 53.931641 329.5293 C 42.981598 344.05867 33.462247 361.51471 29.535156 374.26563 C 27.478857 380.94225 26.495739 386.48153 25.279297 398.25586 C 24.910885 401.82185 24.177667 407.84712 23.650391 411.64453 C 23.123116 415.44193 22.692898 419.7446 22.693359 421.20703 C 22.694398 424.50312 24.877562 438.63108 25.480469 439.24219 C 25.555972 439.31872 26.131908 439.13535 26.759766 438.83594 C 28.336904 438.08386 29.127568 438.14099 29.341797 439.02148 C 29.439405 439.42265 29.786128 441.35663 30.113281 443.32031 C 30.789687 447.38031 31.781069 449.66006 33.542969 451.20703 C 35.060457 452.53936 36.347453 452.56662 37.623047 451.29102 L 38.564453 450.34961 L 38.076172 448.77734 C 37.807526 447.91333 37.357308 446.25855 37.076172 445.09961 C 36.183322 441.41896 37.036821 436.34766 38.548828 436.34766 C 39.512015 436.34766 39.852533 437.26915 40.193359 440.79688 C 40.521352 444.19179 41.283166 447.25486 41.978516 447.97656 C 42.339305 448.35101 43.027785 448.13158 46.351563 446.58789 C 52.89828 443.54733 62.8089 440.40269 69.03125 439.39258 C 74.622848 438.48486 79.123532 439.01252 86.011719 441.38281 C 88.325206 442.1789 90.693425 442.83008 91.275391 442.83008 C 93.652303 442.83008 94.899412 439.48204 94.535156 434.07813 C 94.42098 432.38429 94.23987 430.52478 94.132813 429.94531 C 93.96326 429.02758 94.026244 428.89063 94.623047 428.89063 C 95.669509 428.89063 97.751447 431.18328 98.339844 432.98438 C 98.623532 433.85276 98.949914 435.51374 99.064453 436.67383 L 99.273438 438.7832 L 104.54883 438.78125 L 109.82422 438.7793 L 112.17969 433.75586 L 114.53516 428.73242 L 114.32813 421.87305 C 113.98085 410.3298 113.239 406.02821 110.35547 398.81641 C 105.08348 385.63098 99.193193 377.04959 91.707031 371.6543 C 86.672946 368.02623 85.705517 366.87358 87.349609 366.46094 C 89.616076 365.89209 95.925571 369.48665 101.14648 374.32031 C 102.20418 375.29956 103.20727 376.01502 103.37695 375.91016 C 103.54663 375.80529 104.00853 374.29725 104.40234 372.56055 C 105.51485 367.65434 109.48782 356.26219 113.30469 347.03516 C 115.00803 342.91747 115.3805 342.2258 119.39258 335.68945 C 125.75943 325.31679 126.98629 323.5332 127.75977 323.5332 C 128.3849 323.5332 128.44359 323.66702 128.29492 324.77539 C 127.92406 327.54033 123.28559 337.82038 119.79883 343.60742 C 118.15718 346.3321 117.29176 348.25611 116.18164 351.65039 C 114.24704 357.56557 111.47662 367.33419 111.61523 367.75 C 111.74152 368.12887 113.55114 366.53162 119.29883 360.9668 C 123.5861 356.81594 126.47087 354.40041 130.96875 351.19922 C 135.3096 348.1098 145.11424 341.6386 148.26172 339.78516 C 156.86172 334.7209 167.13956 330.61626 178.33008 327.77734 C 187.74533 325.38882 188.37399 325.32531 202.28906 325.32031 C 211.32684 325.31729 215.44057 325.43479 217.20117 325.75 C 224.50645 327.05793 235.54643 330.38684 242.64844 333.42188 C 248.09869 335.75101 255.85303 339.7607 260.33398 342.56836 C 264.84326 345.39376 275.20849 353.13989 281.41602 358.32422 C 283.65949 360.19788 287.71142 364.04222 290.42188 366.86523 C 293.93837 370.52776 295.30404 371.76581 295.18945 371.1875 C 294.59546 368.1898 290.6224 352.63616 289.80664 350.11523 C 289.25851 348.42138 288.02327 345.64892 287.06055 343.95508 C 284.43362 339.33316 281.50398 331.26804 280.61914 326.21875 C 280.38498 324.88257 280.9822 324.49404 281.77148 325.46875 C 283.41457 327.49788 291.58634 343.11039 293.20898 347.32031 C 296.13382 354.9088 299.68053 366.71135 300.83984 372.71875 C 301.20669 374.61972 301.57069 376.24061 301.65039 376.32031 L 301.65234 376.32227 L 301.6543 376.32227 L 301.6543 376.32422 L 301.65625 376.32422 L 301.6582 376.32422 L 301.66016 376.32422 L 301.66016 376.32617 L 301.66211 376.32813 L 301.66406 376.32813 C 301.79713 376.35287 302.50018 375.86441 303.27734 375.20313 C 308.25142 370.97071 311.89891 368.69779 315.68359 367.46875 C 317.53438 366.86772 318.3457 366.97022 318.3457 367.80469 C 318.3457 368.53863 316.8853 369.82968 312.60742 372.88086 C 306.67889 377.10934 303.31094 381.0853 298.79297 389.17969 C 294.72801 396.46247 291.77203 404.3209 290.62695 410.89844 C 290.25375 413.04213 290.11919 416.06676 290.11719 422.29688 C 290.11422 431.81545 290.19183 432.26171 292.75586 437.36133 L 294.03906 439.91406 L 299.54688 439.91406 L 305.05469 439.91406 L 305.05469 438.79492 C 305.05469 435.4833 306.75118 431.90073 308.7793 430.93359 C 310.58534 430.07235 310.80491 430.56836 310.14258 434.02344 C 309.84038 435.59985 309.5918 437.85713 309.5918 439.03906 C 309.5918 440.96301 309.69457 441.30251 310.5625 442.29102 C 311.09569 442.89829 312.53835 443.92531 313.76953 444.57227 L 316.00781 445.74805 L 319.20703 444.46484 C 324.25297 442.4404 326.20292 442.09203 331.47461 442.27539 C 335.39385 442.41172 336.56709 442.59051 340.06641 443.57813 C 343.66073 444.59255 346.97848 445.84925 357.33398 450.125 C 359.00769 450.81606 360.43125 451.2176 360.79688 451.10156 C 362.06974 450.69757 363.71227 445.70397 363.73047 442.18164 C 363.74373 439.61704 363.98656 438.94141 364.89453 438.94141 C 366.29875 438.94141 366.81266 440.52379 366.78906 444.77539 C 366.77194 447.86172 366.64027 448.83895 366.01953 450.44922 C 365.60714 451.51901 365.20259 452.83688 365.12109 453.37695 C 364.9924 454.2301 365.11573 454.42779 366.05469 454.89453 C 367.46753 455.59683 367.92049 455.59304 369.02734 454.86328 C 371.30588 453.36102 373.61887 448.77242 374.05273 444.89453 C 374.49131 440.97434 375.29346 439.98264 376.64063 441.69531 C 376.99127 442.14106 377.35357 442.50586 377.44727 442.50586 C 378.05517 442.50586 379.8888 433.57261 380.57422 427.26953 C 380.91098 424.17284 380.86853 423.29592 380.10352 417.54492 C 379.16201 410.46715 377.97488 400.63357 377.20508 393.53711 C 376.14471 383.76195 373.02735 374.45274 365.86523 359.67773 C 362.58795 352.9169 359.21951 347.24579 353.86914 339.47461 C 348.83977 332.16967 346.01211 327.84817 340.78711 319.48047 C 334.9203 310.08493 331.14648 304.64378 326.1582 298.39063 C 323.73285 295.35027 320.84619 291.70424 319.74219 290.28711 C 316.71807 286.40525 315.06567 284.95248 305.56641 277.82422 L 296.83984 271.27539 L 291.46484 273.88086 C 285.57845 276.73417 283.71144 277.35324 277.17383 278.62891 C 271.47301 279.7413 266.84353 280.9604 258.69531 283.49414 L 252.05078 285.56055 L 236.97656 285.76367 C 220.81772 285.98057 216.61232 286.21751 211.52734 287.20117 C 202.66484 288.91555 195.40966 288.29601 179.75781 284.48438 C 171.93291 282.57881 169.3287 282.20064 160.63086 281.70703 C 147.44221 280.95855 143.44221 279.95238 130.32031 274.0918 C 124.66725 271.567 117.71895 268.73157 113.26563 267.13281 L 111.28516 266.42188 z M 197.42578 328.81641 C 191.1103 328.98009 189.93895 329.10322 184.94531 330.14063 C 171.5761 332.91804 162.74298 336.12603 149.44727 343.0293 C 141.2196 347.30119 137.14782 350.31848 124.74609 361.33008 C 119.93401 365.60277 118.88379 366.8859 113.20898 375.43945 L 108.57813 382.41992 L 111.13867 388.06836 C 117.40134 401.87914 119.34228 409.79236 119.33008 421.47852 C 119.32167 429.55078 119.046 431.12821 116.86133 435.64258 C 114.97812 439.534 114.78316 440.23828 115.58398 440.23828 C 117.37357 440.23828 125.00664 445.70611 132.0332 452.02148 C 136.35055 455.90185 145.11024 466.09796 149.76172 472.65625 C 154.811 479.77541 162.71356 494.49151 166.21289 503.29102 C 170.65328 514.45694 171.96271 524.06404 170.51953 534.88867 C 170.11328 537.93572 169.84382 540.49031 169.91992 540.56641 C 169.99606 540.64255 172.14348 541.36361 174.69141 542.16797 C 180.28834 543.93486 185.69902 545.17776 189.54688 545.58203 C 193.05507 545.95062 213.18503 545.72587 217.84961 545.26563 C 222.24796 544.83166 225.74909 544.17287 229.76367 543.02539 C 235.26545 541.45282 235.20432 541.52848 234.50781 537.13086 C 233.85711 533.02251 234.02618 524.30651 234.86328 518.85156 C 235.53807 514.45424 237.61604 506.1829 238.78906 503.22461 C 241.43997 496.53911 251.88294 477.49261 255.04492 473.57617 C 261.85179 465.14514 264.79172 461.70091 268.14063 458.23633 C 274.96283 451.17849 282.44979 445.08554 286.97852 442.9043 C 288.34788 442.24475 289.47081 441.59423 289.49023 441.45117 L 289.49023 441.44922 C 289.4919 441.31312 288.4727 439.16332 287.22461 436.67188 L 284.95508 432.14063 L 284.95508 420.98047 L 284.95508 409.82031 L 287.03906 403.99414 C 290.64413 393.91608 292.83751 388.88832 294.88086 386.01758 C 295.48398 385.17024 295.97656 384.41399 295.97656 384.33789 C 295.97656 384.26174 295.26927 383.05846 294.4043 381.66406 C 293.53934 380.26966 291.99516 377.60712 290.97266 375.74609 C 288.58958 371.40872 286.91 369.23211 282.69531 365.02148 C 270.48227 352.82019 261.20195 346.20651 246.46094 339.19922 C 229.3968 331.0876 216.35146 328.32589 197.42578 328.81641 z M 102.08789 443.44922 C 101.53659 443.41892 101.0125 443.52115 100.33398 443.7207 C 98.650767 444.21575 95.957031 445.64168 95.957031 446.03711 C 95.957031 446.16183 96.689171 446.82152 97.583984 447.50391 C 101.20424 450.26476 101.51104 452.77899 98.138672 452.05469 C 97.563206 451.93109 94.757087 450.88878 91.904297 449.73828 C 89.051507 448.58778 84.755883 446.98175 82.357422 446.16797 L 77.996094 444.6875 L 72.957031 444.86523 C 63.144477 445.20959 54.121635 447.8093 45.205078 452.86133 C 38.321545 456.76148 33.928163 460.39831 29.714844 465.68555 C 28.294004 467.46854 25.937192 470.38693 24.478516 472.16992 C 19.812496 477.87337 16.569147 483.20758 15.109375 487.58008 C 14.387061 489.74365 14.327782 490.26556 14.591797 492.11914 C 15.226035 496.57195 17.493361 506.38108 18.746094 510.0918 C 19.687711 512.88097 21.936389 516.45303 26.871094 522.99219 C 29.458392 526.42071 32.458634 530.48825 33.537109 532.03125 C 34.615584 533.57425 37.322039 536.85088 39.550781 539.31445 C 45.671861 546.08047 58.804414 559.12921 61.917969 561.53711 C 73.833051 570.75177 85.787889 575.71373 106.33203 579.97656 C 114.47692 581.66659 115.27923 581.64626 125.94336 579.46289 C 139.94288 576.59664 143.51254 575.27057 147.19531 571.5625 C 151.18496 567.54545 159.43196 556.81555 161.17383 553.37695 C 163.57692 548.63306 166.30469 534.65844 166.30469 527.08789 C 166.30469 523.3732 166.1351 522.91957 163.25195 518.90234 C 160.9927 515.75439 160.40224 514.62883 160.53125 513.72266 C 160.62034 513.0968 160.83097 513.01563 162.35547 513.01563 L 164.07813 513.01563 L 163.88086 511.96289 C 163.5787 510.35689 160.88566 503.03235 159.2793 499.44727 C 151.66052 482.44364 143.82527 470.75493 131.78906 458.43555 C 125.29848 451.79228 121.79584 449.17512 114.99805 445.88867 C 111.3469 444.12349 109.47437 443.83847 109.30664 445.01953 C 109.1652 446.01544 108.05177 445.9748 105.92383 444.89648 C 104.00163 443.92244 103.00672 443.49972 102.08789 443.44922 z M 294.68555 445.42383 C 293.87076 445.42383 286.23132 449.24497 282.81445 451.36133 C 280.56794 452.75278 278.77198 454.32116 274.69531 458.44531 C 266.24294 466.99612 261.69199 472.31023 257.66992 478.33398 C 251.54581 487.50591 244.51147 501.47752 241.87891 509.69727 C 240.48224 514.05819 240.48892 514.09512 242.56836 514.21484 C 244.14764 514.30577 244.27739 514.37513 244.37109 515.1875 C 244.49468 516.25845 244.22677 516.77464 242.12891 519.51172 C 241.22266 520.69411 240.03726 522.55768 239.49414 523.65234 L 238.50586 525.64258 L 238.69336 530.02734 C 239.02058 537.7382 241.43398 549.66324 243.58398 554.1875 C 245.47185 558.16015 254.24331 569.74134 257.99414 573.21289 C 261.62526 576.57366 265.76237 578.16602 276.69336 580.41602 C 280.61855 581.22397 284.4105 582.10803 285.12109 582.38086 C 287.66815 583.3588 294.81649 582.48359 306.67578 579.74219 C 326.99011 575.04631 336.34533 570.06281 351.96484 555.61328 C 359.18186 548.93686 370.46333 537.03183 372.82422 533.60156 C 373.25372 532.97751 375.65222 529.84024 378.15234 526.63086 C 383.86807 519.29361 384.90048 517.72657 386.08594 514.58008 C 388.16034 509.07413 389.92057 501.14103 390.21094 495.99609 C 390.36829 493.20834 390.30315 492.70062 389.52344 490.64648 C 387.64428 485.69587 383.72794 479.26144 380.26953 475.44141 C 379.2858 474.35482 377.02811 471.71574 375.25195 469.57617 C 370.69974 464.09254 369.12765 462.60693 365.13477 460.00781 C 355.19531 453.53781 340.64358 448.17385 331.95313 447.7793 C 327.37208 447.57131 325.57482 447.97551 317.24023 451.08203 C 310.34589 453.65173 307.31208 454.42346 306.16406 453.90039 C 305.73192 453.70349 305.37891 453.34957 305.37891 453.11328 C 305.37891 452.60429 306.94267 451.0782 308.85547 449.7207 L 310.22461 448.74805 L 308.41406 447.54492 C 304.77126 445.12624 302.41824 444.84935 298.83984 446.41992 C 296.34815 447.51353 295.7752 447.48462 295.46484 446.24805 C 295.341 445.75465 295.02796 445.42383 294.68555 445.42383 z M 57.925781 458.23828 C 60.42441 458.22999 60.634457 458.28393 61.572266 459.18164 C 64.348312 461.83898 65.667636 468.38756 64.287109 472.66211 C 63.303056 475.70906 60.117695 478.30321 55.78125 479.58984 C 53.646913 480.22313 50.535112 480.24253 48.830078 479.63477 C 47.112205 479.02244 45.44499 477.32253 45.017578 475.74609 C 44.556703 474.04622 44.88571 470.55118 45.710938 468.36719 C 46.931669 465.13648 50.970462 460.52701 53.976563 458.93359 C 54.986957 458.39802 55.8591 458.24528 57.925781 458.23828 z M 345.22461 461.5332 C 349.93358 461.60423 356.52107 467.30625 358.54492 473.06445 C 359.23243 475.02055 359.39192 477.92123 358.88672 479.25 C 358.42254 480.4709 356.34336 482.38667 354.6875 483.11914 C 352.86309 483.92616 349.49121 484.14159 347.49805 483.57813 C 344.12332 482.6241 341.17346 480.19555 339.7793 477.22266 C 339.02879 475.62235 338.93241 475.01565 338.94141 472.00781 C 338.95408 467.81674 339.6911 465.68155 341.98438 463.1875 C 343.47771 461.5634 343.58252 461.5084 345.22461 461.5332 z M 114.04883 472.33203 C 115.29986 472.33203 118.20982 474.79302 123.08008 479.9707 C 134.41682 492.02303 139.72918 499.68767 146.98828 514.46289 C 150.37463 521.3555 152.20445 525.98225 153.37305 530.60938 C 155.57802 539.34008 155.91986 549.45776 154.10742 552.32227 C 153.55559 553.19442 152.84684 553.26733 152.5293 552.48438 C 152.40275 552.17236 152.17737 549.72918 152.0293 547.05469 C 151.62603 539.77098 150.94141 536.18281 148.69141 529.54883 C 147.05125 524.71291 145.5041 521.13176 142.14258 514.39258 C 135.68333 501.4431 130.93107 494.41865 118.83984 479.94922 C 115.71096 476.20493 113.14753 472.9592 113.14453 472.73633 C 113.14118 472.50704 113.53422 472.33203 114.04883 472.33203 z M 291.16406 473.62891 C 292.38566 473.62891 292.01372 474.14965 284.86914 482.45313 C 274.57817 494.41333 265.45148 507.3421 261.06445 516.17383 C 255.50891 527.35796 253.15814 535.26453 252.07227 546.42188 C 251.81113 549.10506 251.44875 551.69415 251.26563 552.17578 C 250.80466 553.3882 250.17501 553.27047 249.44922 551.83594 C 248.94655 550.84242 248.81064 549.72176 248.71094 545.69922 C 248.46311 535.70235 250.56198 527.69526 256.55664 515.77148 C 262.13281 504.68013 268.50731 495.48512 277.74805 485.20508 C 283.85401 478.41241 289.39885 473.62891 291.16406 473.62891 z M 35.650391 482.04297 C 37.57 482.0801 39.224133 483.72986 40.857422 487.04297 C 43.148779 491.69097 43.631333 496.41494 42.15625 499.76367 C 41.373224 501.5413 39.414336 503.66802 37.798828 504.49219 C 35.034427 505.90248 31.462635 505.50315 27.837891 503.37891 C 25.005995 501.71931 22.757106 498.27638 23.152344 496.20703 C 23.687952 493.40274 26.926409 488.45006 30.576172 484.85742 C 32.503703 482.96006 34.157361 482.01409 35.650391 482.04297 z M 94.335938 484.88281 C 101.7607 484.87654 102.15875 484.98137 106.98828 488.20117 C 111.27062 491.05616 114.32859 493.67518 118.88281 498.38672 C 130.25096 510.14753 139.41931 526.65873 141.16016 538.50586 C 142.17933 545.44164 141.59763 552.69504 139.71484 556.51953 C 138.99306 557.98569 137.76522 559.52082 135.4043 561.91211 C 129.76778 567.62112 124.48118 571.02808 119.27734 572.30469 C 114.62075 573.44704 107.11886 572.80494 100.98242 570.73828 C 93.869385 568.3427 81.204173 561.08824 74.060547 555.31836 C 65.808742 548.6534 56.831353 538.33234 53.484375 531.66016 C 49.706115 524.12822 49.387717 518.93071 52.337891 512.97266 C 54.855507 507.88819 60.574105 499.64074 63.859375 496.35547 C 68.268601 491.94624 78.96468 486.59339 86.017578 485.26563 C 87.116083 485.05883 90.859101 484.88581 94.335938 484.88281 z M 368.41602 485.97461 C 370.14525 485.96217 372.13815 487.15664 374.66016 489.59375 C 380.356 495.09784 381.98515 499.08021 380.13281 502.9668 C 378.72057 505.92994 376.24996 507.94066 372.98242 508.78711 C 369.25276 509.75327 366.24566 508.97754 364.05664 506.48438 C 360.14365 502.02774 360.45733 493.57846 364.73633 488.17578 C 365.8855 486.72483 367.07106 485.98429 368.41602 485.97461 z M 302.57617 487.40625 L 306.79492 487.48047 C 314.12608 487.61 320.36498 489.08987 326.94727 492.26172 C 337.20872 497.20648 343.54928 503.62127 350.02539 515.60938 C 352.9844 521.0869 353.15936 521.68633 352.93555 525.58398 C 352.59178 531.57079 350.2832 536.82733 345.04492 543.55273 C 337.51249 553.22356 326.96989 561.54968 314.13086 567.96875 C 306.65531 571.70626 301.19135 573.46066 294.99414 574.11328 C 289.00611 574.74387 283.93349 574.11906 280.28711 572.30078 C 276.33741 570.33125 266.02933 560.84559 264.57617 557.84375 C 262.94998 554.48449 262.39873 543.83629 263.55664 538.1543 C 266.23645 525.00425 275.84487 508.89666 287.63867 497.78516 C 291.9646 493.70949 296.10237 490.65595 299.84375 488.77734 L 302.57617 487.40625 z "
     transform="scale(0.75)" />
  <path
      
     allowFill="true" fill="#8b4513"
     style="stroke-width:0.713198"
     d="m 100.98242,38.902344 c -3.921765,0 -6.201972,0.537703 -9.796873,2.310547 -5.284973,2.606313 -8.63621,5.827431 -11.107422,10.677734 -2.134069,4.188586 -2.416956,5.57921 -2.410156,11.810547 0.007,6.367658 0.215703,7.368834 2.304687,11.005859 2.932962,5.106436 4.680312,6.858198 9.28125,9.300782 1.279446,0.679243 2.625699,1.23944 2.990235,1.24414 0.751399,0.0097 1.564098,-1.012177 5.810547,-7.287109 6.692832,-9.889922 12.216142,-16.41442 17.578122,-20.769531 4.48781,-3.645091 5.61133,-4.698019 5.61133,-5.259766 0,-1.674832 -3.78918,-6.174063 -7.28711,-8.654297 -4.53238,-3.213713 -7.98454,-4.378906 -12.97461,-4.378906 z m 210.85742,9.804687 c -5.35002,0.331658 -11.03336,2.999004 -14.60351,6.990235 -2.17448,2.430952 -3.58329,4.527508 -3.20117,4.763672 0.76037,0.469937 6.06865,6.68637 8.5625,10.027343 5.57956,7.474855 11.34356,16.612503 14.01953,22.226563 0.80738,1.693844 1.75614,3.394396 2.10937,3.777344 0.56116,0.608361 0.79201,0.654155 1.83203,0.371093 2.041,-0.555499 5.93812,-2.484366 7.68946,-3.80664 3.35884,-2.535949 6.63138,-7.999043 7.96484,-13.294922 0.9891,-3.928215 0.77018,-10.048153 -0.49414,-13.791016 -1.92523,-5.699412 -6.00855,-10.913457 -10.72852,-13.701172 -3.04417,-1.797948 -7.77897,-3.345717 -10.88476,-3.558593 -0.7435,-0.05096 -1.50134,-0.05129 -2.26563,-0.0039 z M 94.003906,489.73242 c -3.355536,0.0174 -7.312385,0.41432 -9.726562,1.03516 -4.835316,1.24346 -12.839441,4.87315 -16.232422,7.36133 -3.142617,2.30458 -5.92629,6.07076 -9.146484,12.37109 -2.409351,4.71392 -3.138672,6.99593 -3.138672,9.81836 0,3.13293 0.433187,4.7364 2.419922,8.93164 3.863724,8.15873 10.478847,16.09966 19.136718,22.97461 9.937953,7.89144 20.618852,13.46042 28.578124,14.89844 3.33724,0.60298 7.54798,0.61518 11.90625,0.0351 4.09671,-0.54521 6.54167,-1.54772 9.96289,-4.08398 4.48575,-3.32542 6.61134,-6.45272 8.02149,-11.80469 4.01539,-15.23971 -2.43591,-31.07717 -20.05274,-49.22851 -6.04368,-6.22705 -8.77359,-8.46252 -12.74414,-10.4336 -2.58762,-1.28456 -3.401994,-1.52662 -5.908202,-1.75976 -0.90524,-0.0842 -1.95766,-0.12102 -3.076172,-0.11524 z m 208.943364,2.85938 -1.95508,1.06054 c -9.9141,5.37971 -26.24215,23.96114 -30.29883,34.48047 -1.97735,5.12742 -3.23924,11.42609 -3.24023,16.16602 -10e-4,5.10688 1.53939,11.43802 3.54687,14.5664 0.56043,0.87336 2.15835,2.67554 3.55078,4.00586 3.90749,3.73319 7.97596,5.46696 14.25781,6.07227 1.53539,0.14793 4.24661,0.19773 6.02539,0.11133 5.59916,-0.27192 9.11886,-1.25024 15.65625,-4.35156 17.41618,-8.26218 32.04645,-22.05835 36.24805,-34.18165 0.32359,-0.93367 0.62258,-2.99593 0.70508,-4.86328 0.17556,-3.97271 -0.3005,-5.59838 -3.35938,-11.48047 -4.47743,-8.60992 -7.74665,-11.8169 -16.73632,-16.41992 -7.78865,-3.98804 -12.09842,-5.12343 -19.53907,-5.14843 z"
     transform="scale(0.75)" />
 </g>
</svg>
