<?xml version="1.0" encoding="UTF-8" standalone="no"?>
<svg
   version="1.0"
   width="824pt"
   height="1136pt"
   viewBox="0 0 824 1136"
   preserveAspectRatio="xMidYMid"
   id="svg31"
   sodipodi:docname="first_day.svg"
   inkscape:version="1.4.2 (2aeb623e1d, 2025-05-12)"
   xmlns:inkscape="http://www.inkscape.org/namespaces/inkscape"
   xmlns:sodipodi="http://sodipodi.sourceforge.net/DTD/sodipodi-0.dtd"
   xmlns="http://www.w3.org/2000/svg"
   xmlns:svg="http://www.w3.org/2000/svg">
  <defs
     id="defs31" />
  <sodipodi:namedview
     id="namedview31"
     pagecolor="#ffffff"
     bordercolor="#000000"
     borderopacity="0.25"
     inkscape:showpageshadow="2"
     inkscape:pageopacity="0.0"
     inkscape:pagecheckerboard="0"
     inkscape:deskcolor="#d1d1d1"
     inkscape:document-units="pt"
     inkscape:zoom="0.65013773"
     inkscape:cx="1016.7076"
     inkscape:cy="1312.7988"
     inkscape:window-width="3774"
     inkscape:window-height="2091"
     inkscape:window-x="0"
     inkscape:window-y="0"
     inkscape:window-maximized="1"
     inkscape:current-layer="g45" />
  <g
     allowDrag="true"
     id="g43">
    <g
       id="g34"
       inkscape:label="abc"
       transform="matrix(0.1,0,0,-0.1,-107.28496,1449.4799)"
       style="fill:#000000;stroke:none">
      <path
         d="m 6844,13949 c -132,-215 -123,-170 -124,-671 v -428 h -272 c -289,-1 -516,-13 -547,-29 -10,-6 -22,-18 -27,-28 -4,-10 -12,-275 -17,-589 -8,-478 -7,-576 4,-597 21,-39 316,-349 358,-375 33,-22 43,-23 135,-18 199,11 930,97 966,115 65,30 67,41 79,476 18,628 17,658 -28,692 -13,10 -4,12 49,13 36,0 75,-3 88,-6 22,-6 22,-7 4,-20 -52,-36 -54,-55 -79,-877 -7,-236 -4,-248 61,-272 23,-8 154,-35 291,-61 138,-25 296,-54 351,-64 156,-29 333,-50 363,-44 14,3 39,11 55,17 37,14 282,288 306,342 16,36 18,91 23,565 2,289 1,535 -4,547 -4,12 -17,27 -28,32 -23,13 -308,60 -541,91 -91,11 -175,23 -187,26 l -23,4 v 605 c 0,438 -3,611 -12,630 -7,16 -24,28 -47,34 -20,5 -214,12 -431,15 -217,4 -458,9 -536,12 l -141,7 z m 800,85 c 198,-4 371,-10 385,-14 14,-3 27,-13 29,-22 2,-8 -27,-70 -64,-137 -52,-95 -70,-121 -83,-115 -64,26 -520,48 -883,43 l -237,-4 18,30 c 10,17 47,77 81,134 l 63,103 166,-6 c 91,-3 328,-9 525,-12 z m 366,-1353 -51,-76 4,566 4,567 44,78 44,79 3,-569 2,-570 z m -369,1059 c 254,-10 274,-17 285,-87 12,-82 -3,-1046 -17,-1077 -20,-44 29,-43 -779,-15 -168,5 -315,12 -327,14 -42,9 -45,42 -50,565 -3,272 -1,513 4,535 7,32 16,44 43,57 31,16 69,18 335,18 165,0 393,-5 506,-10 z m -921,-1036 c 7,-135 18,-159 82,-167 24,-4 131,-10 238,-14 l 195,-7 -125,-7 c -69,-4 -244,-13 -390,-19 -316,-14 -470,-26 -483,-39 -6,-6 -24,9 -50,42 -23,29 -86,105 -140,171 -109,129 -110,134 -27,137 199,7 586,16 635,15 l 60,-1 z m -526,-339 c -4,-27 -10,-273 -13,-545 l -6,-495 -138,142 c -102,105 -141,151 -146,175 -8,37 6,1070 14,1106 5,20 25,-1 151,-155 l 145,-178 z m 2226,340 c 239,-33 341,-49 383,-61 14,-4 -4,-30 -89,-132 -134,-160 -141,-165 -179,-159 -16,3 -119,22 -228,41 -109,20 -288,49 -398,65 -111,17 -204,32 -207,35 -3,3 37,6 89,6 131,0 147,9 237,143 71,104 74,107 105,102 18,-2 147,-21 287,-40 z m 425,-622 c -5,-324 -11,-536 -18,-548 -5,-11 -42,-56 -81,-100 -39,-44 -86,-97 -104,-118 l -33,-38 7,489 c 5,355 4,497 -4,521 -11,32 -10,34 110,177 67,79 123,144 126,144 2,0 1,-237 -3,-527 z m -1520,383 c 23,-10 37,-24 41,-42 8,-29 -2,-568 -15,-852 -9,-184 -14,-203 -64,-216 -12,-3 -121,-17 -242,-31 -121,-14 -258,-30 -305,-35 -134,-16 -399,-40 -442,-40 -25,0 -45,7 -59,21 l -22,22 5,536 c 5,572 5,567 54,590 13,5 166,17 341,26 175,9 386,20 468,24 83,4 163,9 178,10 15,0 43,-5 62,-13 z m 520,-36 c 285,-42 649,-107 690,-125 23,-9 37,-23 41,-41 4,-15 5,-247 2,-516 -7,-581 3,-538 -118,-538 -101,0 -211,16 -575,85 -356,68 -376,73 -397,92 -25,23 -25,64 8,880 5,122 9,147 26,168 26,33 60,33 323,-5 z"
         id="path1" />
      <path
         d="m 7008,13640 c -64,-3 -119,-8 -123,-12 -18,-18 -21,-107 -16,-495 5,-368 8,-424 22,-438 14,-14 74,-17 450,-25 376,-8 437,-7 456,6 l 23,14 v 450 c 0,526 9,484 -112,494 -104,8 -561,12 -700,6 z m 747,-50 c 17,-6 26,-20 31,-45 12,-63 0,-823 -13,-836 -9,-9 -110,-9 -428,-1 -229,5 -419,13 -423,17 -8,7 -24,628 -20,770 l 3,100 60,7 c 85,9 761,-1 790,-12 z"
         id="path2" />
      <path
         d="m 7162,13440 c 3,-74 4,-75 31,-78 15,-2 27,-7 27,-11 0,-4 -20,-56 -44,-116 -24,-61 -60,-154 -81,-207 -33,-86 -40,-98 -61,-98 -23,0 -24,-3 -24,-70 v -70 l 125,-2 c 69,-1 137,-2 153,-2 27,-1 27,0 30,73 l 3,73 -36,-4 c -34,-4 -36,-3 -30,21 4,14 14,40 24,56 16,29 20,30 99,33 82,3 82,3 93,-25 6,-15 13,-43 16,-60 5,-31 4,-33 -26,-33 h -32 l 6,-62 c 4,-35 8,-68 10,-75 3,-9 40,-12 142,-9 l 138,3 3,64 c 3,63 2,65 -26,75 -36,14 -50,48 -129,314 -88,296 -72,264 -129,272 -27,3 -102,8 -167,10 l -118,3 z m 233,-181 c 29,-82 29,-79 -4,-79 -63,0 -74,19 -46,86 18,43 34,40 50,-7 z"
         id="path3" />
      <path
         d="m 7010,12369 c -63,-4 -229,-12 -368,-18 -138,-7 -263,-16 -276,-21 -13,-5 -28,-19 -33,-32 -12,-33 -5,-885 8,-909 13,-24 22,-24 339,1 470,38 533,46 551,69 13,16 18,53 23,163 14,304 23,704 15,724 -13,36 -39,38 -259,23 z m 221,-259 c -5,-344 -15,-618 -23,-625 -8,-8 -95,-18 -333,-40 -424,-38 -481,-42 -497,-33 -17,8 -18,39 -18,437 0,332 3,431 13,439 15,13 641,51 792,48 l 70,-1 z"
         id="path4" />
      <path
         d="m 6665,12245 c -99,-13 -181,-24 -182,-24 -9,-3 -1,-109 9,-119 7,-7 29,-12 49,-12 h 37 l 7,-122 c 3,-68 5,-177 3,-243 l -3,-120 -52,-8 -53,-9 v -69 c 0,-62 2,-70 18,-65 9,2 42,7 72,11 375,42 479,78 526,178 31,68 30,111 -3,177 -21,40 -38,60 -69,75 l -41,22 28,15 c 35,21 58,66 66,127 11,95 -35,171 -120,196 -62,18 -67,18 -292,-10 z m 213,-132 c 32,-27 37,-64 12,-96 -20,-25 -50,-37 -127,-51 l -33,-5 v 84 85 h 64 c 46,0 69,-5 84,-17 z m 12,-323 c 11,-11 20,-33 20,-49 0,-58 -62,-101 -147,-101 h -33 v 78 c 0,43 3,82 7,85 3,4 35,7 70,7 50,0 67,-4 83,-20 z"
         id="path5" />
      <path
         d="m 7612,12337 c -6,-6 -13,-23 -16,-37 -5,-21 -36,-697 -36,-781 0,-56 22,-67 190,-93 85,-14 262,-43 393,-65 269,-46 292,-48 306,-23 5,9 14,205 21,435 13,418 13,419 -8,440 -17,16 -61,27 -219,54 -482,81 -610,95 -631,70 z m 293,-52 c 229,-36 497,-82 519,-91 17,-7 18,-20 11,-323 -4,-174 -10,-359 -14,-411 l -6,-95 -30,-3 c -16,-2 -118,13 -225,33 -107,20 -273,49 -367,64 -95,14 -178,32 -184,38 -17,17 9,774 28,806 8,13 107,7 268,-18 z"
         id="path6" />
      <path
         d="m 7898,12176 c -79,-28 -153,-117 -184,-221 -22,-73 -24,-202 -5,-268 27,-95 129,-178 257,-211 113,-29 185,-18 262,41 30,23 92,106 92,124 0,3 -31,23 -70,43 l -70,37 -38,-40 c -46,-48 -81,-53 -132,-18 -52,35 -73,70 -78,130 -11,131 75,226 169,187 18,-8 38,-28 49,-51 21,-40 23,-41 137,-54 l 51,-5 7,72 c 4,40 8,97 8,127 l 2,54 -50,13 c -68,18 -74,18 -81,-11 -6,-23 -8,-24 -23,-12 -44,39 -156,77 -226,76 -22,0 -57,-6 -77,-13 z"
         id="path7" />
      <path
         allowFill="true"
         fill="#b380ff"
         id="path40"
         style="fill-opacity:1;stroke:#cd8bf0;stroke-width:2.91339;stroke-opacity:1"
         d="m 1085.582,349.98633 c -7.6014,0.0851 -8.1406,3.13152 -13.1933,10.5625 -13.1432,19.32942 -14.6967,20.3935 -30.9199,21.17383 l -12.0313,0.57812 29.9102,4.68164 c 16.4504,2.57517 40.1879,6.56044 52.75,8.85547 31.1268,5.6867 29.5355,5.76644 36.5019,-1.8457 7.9902,-8.73075 24.9492,-29.59007 24.9492,-30.6875 0,-1.22769 -6.012,-2.2467 -51.9668,-8.81446 -19.9029,-2.84449 -30.0878,-4.57007 -36,-4.5039 z m 92.0664,19.80664 c -2.2581,2.29842 -20.2558,23.59397 -24.4277,28.9043 l -3.4687,4.41601 -0.5254,69.53516 -0.5235,69.5332 2.9063,-3.33398 c 1.5982,-1.83406 7.8554,-9.08768 13.9043,-16.11914 l 10.998,-12.78516 0.6797,-8.89648 c 0.3737,-4.89297 0.9895,-36.79355 1.3691,-70.89063 0.608,-54.62185 0.5001,-61.80069 -0.9121,-60.36328 z m -166.8339,17.58984 c -4.9589,0.20363 -6.9626,1.78705 -8.6094,5.72852 -2.56317,6.13439 -6.67814,126.00918 -4.58205,133.48047 0.59213,2.11056 2.07233,3.36469 5.43745,4.60547 6.8249,2.51631 79.2594,16.42884 104.6875,20.10742 3.5892,0.51924 11.7747,1.00327 18.1915,1.07617 11.3471,0.12899 11.7175,0.0586 13.4707,-2.61719 2.8011,-4.27502 3.554,-21.37889 3.623,-82.35547 0.06,-52.73341 -0.029,-55.28887 -1.9941,-57.2539 -1.1685,-1.16851 -6.2195,-3.03437 -11.6934,-4.31836 -21.0465,-4.93687 -92.8971,-16.58356 -112.4922,-18.23438 -2.4059,-0.20269 -4.3861,-0.28662 -6.039,-0.21875 z m 13.5234,13.86719 c 9.7159,0.32002 27.7093,2.88451 60.5684,8.31055 32.6394,5.38977 41.6396,7.39431 44.0488,9.81445 1.3685,1.3742 1.6001,5.71413 1.4375,26.875 -0.2654,34.52267 -2.4759,87.82503 -3.7403,90.1875 -0.8464,1.58159 -2.3763,1.91767 -8.3398,1.82617 -9.8752,-0.15157 -101.198,-15.489 -105.5137,-17.7207 -1.8794,-0.97191 -3.9165,-2.69814 -4.5254,-3.83594 -1.0925,-2.0413 -0.6922,-16.51143 2.1211,-76.76172 1.3973,-29.92577 1.9366,-34.94433 3.9727,-36.98047 1.2915,-1.29145 4.1412,-1.90685 9.9707,-1.71484 z m -1.5781,6.12891 c -1.4759,0.11179 -2.3854,0.3873 -2.9414,0.80664 -2.5872,1.95129 -4.2679,29.23089 -4.4043,71.45703 l -0.1153,35.3457 9.2442,1.86914 c 8.9159,1.80246 81.985,14.42956 88.6425,15.31836 1.7946,0.23958 3.7516,0.50153 4.3497,0.58203 4.424,0.59511 5.3344,-9.17084 6.6211,-71.0664 0.6482,-31.18552 0.5281,-37.18602 -0.7657,-38.25977 -1.7139,-1.4224 -33.9313,-7.35395 -66.2187,-12.19336 -20.451,-3.06531 -29.9845,-4.19474 -34.4121,-3.85937 z m 40.6777,15.20898 c 8.3824,-0.0253 17.8029,2.40505 26.0313,7.04883 l 5.8085,3.2793 1.043,-2.74024 c 1.2437,-3.27124 0.7484,-3.22988 10.6992,-0.90234 l 7.9746,1.86523 -0.6054,7.12305 c -0.3328,3.91699 -0.9196,11.70604 -1.3028,17.31055 l -0.6953,10.1914 -8.8457,-0.77148 c -10.8707,-0.94826 -15.2712,-2.69296 -17.457,-6.91992 -5.8369,-11.28718 -18.8696,-10.11682 -25.0313,2.24804 -5.6727,11.38371 -2.8821,24.86702 6.4805,31.3086 7.0367,4.84141 10.9154,4.43334 17.9492,-1.89063 l 5.7071,-5.13281 8.2714,4.49414 c 9.8522,5.35413 10.9319,6.6891 8.7813,10.86523 -3.0977,6.01523 -14.3256,16.17969 -19.9981,18.10352 -6.4297,2.18064 -19.5148,2.25859 -27.1503,0.16211 -14.547,-3.99416 -26.9978,-13.41806 -31.9122,-24.15234 -5.3978,-11.79034 -4.4845,-34.50718 1.9336,-48.07813 3.7627,-7.95632 12.597,-17.64805 18.834,-20.66211 3.799,-1.83589 8.4549,-2.73485 13.4844,-2.75 z"
         transform="matrix(7.5,0,0,-7.5,0,15360)" />
      <path
         allowFill="true"
         fill="#80e5ff"
         id="path41"
         style="fill-opacity:1;stroke:#8be8f0;stroke-width:0.728347;stroke-opacity:1"
         d="m 895.07031,339.25195 -14.72851,0.17578 c -30.32197,0.36269 -80.35813,1.79292 -83.07227,2.375 -3.60852,0.77389 -2.84565,3.04522 3.69336,10.9961 1.47591,1.79458 5.86274,7.11734 9.74805,11.82812 3.88531,4.71078 8.94459,10.88905 11.24414,13.73047 4.45297,5.50229 7.01441,8.32427 8.27148,9.11328 v -0.002 c 0.74487,0.4678 0.81748,0.46769 1.90235,-0.006 3.83769,-1.67518 23.36936,-3.13204 69.24218,-5.16406 23.82682,-1.05545 58.70874,-2.87671 58.90821,-3.07617 0.044,-0.044 -4.47434,-0.23196 -10.04102,-0.41797 -13.64395,-0.45592 -26.72355,-1.0397 -34.45703,-1.53906 -9.74851,-0.62948 -12.17072,-1.03102 -14.44922,-2.39258 -3.85624,-2.30435 -4.90585,-7.0977 -5.66992,-25.88086 -0.16426,-4.03781 -0.36461,-7.88128 -0.44531,-8.54102 z m -106.89843,8.41211 c -0.18868,6.9e-4 -0.33042,0.0857 -0.44727,0.22657 -0.77807,0.93751 -1.55924,34.46586 -2.21289,94.9082 -0.38318,35.43298 -0.26717,52.2945 0.37305,53.77344 1.66927,3.8561 6.09378,8.85776 25.87695,29.26171 l 11.43555,11.79493 0.0547,-2.68555 c 0.0303,-1.47722 0.18733,-14.55433 0.34766,-29.06055 0.81681,-73.90198 1.428,-100.87283 2.4668,-108.84765 0.29825,-2.28954 0.453,-4.30831 0.3457,-4.48633 -0.10729,-0.17801 -5.02931,-6.25862 -10.9375,-13.51172 -21.04396,-25.83433 -25.76636,-31.37861 -27.30273,-31.37305 z m 181.27734,36.73438 c -1.60251,-0.0788 -3.58688,0.0109 -6.89453,0.21875 -3.51782,0.22109 -16.06263,0.89257 -27.87696,1.49219 -67.89466,3.44584 -82.66881,4.32628 -93.91601,5.5996 -7.66575,0.86787 -8.88543,2.70727 -9.80859,14.79102 -0.53178,6.9607 -0.81942,22.57036 -1.2168,66.07422 -0.21925,24.00255 -0.47456,49.45308 -0.56836,56.55664 l -0.17188,12.91406 2.16993,2.11133 c 2.20063,2.13995 3.70546,3.02873 5.83593,3.44922 1.75724,0.34682 3.64306,0.32118 9.71485,-0.12695 19.40198,-1.43196 36.41719,-3.14496 73.00781,-7.35157 38.99927,-4.48353 50.76222,-6.0061 53.30664,-6.90039 3.81651,-1.3414 5.0537,-4.03177 5.94727,-12.93359 1.54329,-15.37453 3.73911,-93.47878 3.35937,-119.50195 -0.12347,-8.46171 -0.15554,-8.89869 -0.75195,-10.27539 -1.04984,-2.42335 -3.81007,-4.37779 -7.53125,-5.33399 -1.78246,-0.45802 -3.00296,-0.70445 -4.60547,-0.7832 z m -10.29883,13.20508 c 5.35615,0.14323 7.09314,0.49407 8.5625,1.73046 1.86866,1.57236 1.77191,0.43163 1.75391,20.76172 -0.0183,20.66595 -0.57662,42.07003 -1.89649,72.73438 -0.97869,22.73775 -1.55144,26.38436 -4.45898,28.34375 -2.9003,1.95452 -12.37458,3.22076 -45.1543,6.04101 -10.02946,0.8629 -35.29303,2.89748 -47.58398,3.83204 -8.08043,0.61439 -21.04887,0.93059 -22.53711,0.54882 -1.57682,-0.40449 -2.46985,-1.56788 -2.7461,-3.57226 -0.88552,-6.42496 -1.46311,-36.77162 -1.47461,-77.47461 -0.0112,-39.63687 0.0537,-41.70934 1.38086,-43.59766 0.9948,-1.41543 2.81288,-2.80802 4.11133,-3.14844 2.61244,-0.68493 22.75738,-2.10994 42.47461,-3.00585 17.61146,-0.80023 35.67159,-1.69567 41.46485,-2.05469 17.78048,-1.10186 21.47757,-1.26238 26.10351,-1.13867 z m 5.18359,5.96875 c -0.30614,-0.30615 -21.75111,-0.18456 -29.92773,0.16992 -35.69774,1.54759 -75.98384,4.2732 -83.57227,5.65429 -1.244,0.2264 -1.56977,1.11802 -1.93554,5.28321 -1.06312,12.10599 -1.06788,100.66067 -0.006,107.75586 0.3542,2.36638 0.93696,3.60158 1.85937,3.93945 1.10453,0.40458 7.82461,0.35456 14.25586,-0.10547 16.7202,-1.19599 66.84635,-5.7183 81.49805,-7.35351 9.59779,-1.07117 13.87305,-1.78036 14.37305,-2.38282 0.94013,-1.13279 1.984,-24.99469 2.75,-62.85742 0.61078,-30.19231 0.88892,-49.91967 0.70507,-50.10351 z m -47.7871,8.70507 c 4.91985,-0.0761 8.63795,0.60729 12.99804,2.24414 7.10287,2.66655 12.22938,8.70723 13.84375,16.31446 0.67004,3.15734 0.61656,8.46839 -0.12109,12.03125 -1.57918,7.62744 -4.5218,12.21299 -9.64258,15.02344 -1.15448,0.63361 -2.06433,1.18611 -2.01953,1.22851 0.0448,0.0424 1.61112,0.90089 3.48047,1.9082 1.86936,1.00732 4.03373,2.3124 4.80859,2.90039 3.58446,2.72002 7.72909,10.25342 8.93945,16.24805 1.42109,7.03835 -1.73185,16.69103 -7.29882,22.34766 -7.54967,7.67126 -22.66534,11.84393 -58.38282,16.11523 -4.41169,0.52757 -9.73444,1.22125 -11.82812,1.54102 -2.09368,0.31978 -4.42387,0.64239 -5.17774,0.71679 -2.10858,0.20803 -2.11327,0.18027 -2.24218,-9.74609 l -0.10938,-8.32812 1.60156,-0.28125 c 0.88112,-0.1552 4.06013,-0.67674 7.06446,-1.15821 l 5.46289,-0.875 0.20508,-10.22851 c 0.29152,-14.61188 -0.005,-34.8097 -0.66602,-45.30469 -0.30128,-4.78555 -0.55264,-8.71548 -0.55664,-8.73438 -0.004,-0.0189 -1.81174,-0.094 -4.01758,-0.16601 -4.49912,-0.14686 -6.60124,-0.66593 -7.44922,-1.83984 -0.27006,-0.37387 -0.6891,-1.78103 -0.93164,-3.12696 -0.49628,-2.75406 -0.82362,-11.77394 -0.44726,-12.31836 0.27919,-0.40386 -0.34304,-0.30828 16.10156,-2.47265 14.38298,-1.89304 24.3027,-3.08253 30.99609,-3.7168 1.97518,-0.18717 3.74872,-0.29689 5.38868,-0.32227 z m -19.11915,18.39063 v 11.24219 11.24414 l 0.37305,-0.0781 c 0.20563,-0.0424 1.19954,-0.20147 2.20899,-0.35351 5.50388,-0.82893 11.11592,-2.23739 13.82226,-3.47071 4.38541,-1.9985 7.0129,-5.69402 6.8086,-9.57812 -0.11838,-2.25047 -0.92896,-3.93512 -2.82032,-5.85938 -0.91293,-0.92881 -1.37025,-1.27793 -2.17578,-1.66015 -2.37319,-1.12607 -4.07333,-1.32762 -11.92969,-1.41602 z m 12.25,42.75976 c -4.32838,-0.0856 -10.16871,0.24562 -11.13671,0.76368 -0.8144,0.43585 -1.10933,4.35966 -1.11133,14.74804 l -0.002,7.05469 3.63672,-0.0762 c 3.81823,-0.0783 5.4213,-0.2511 7.78321,-0.8418 3.87914,-0.97015 6.67205,-2.47771 9.04101,-4.8789 2.20835,-2.2384 3.17003,-4.30658 3.29688,-7.08789 0.0765,-1.67803 -0.15739,-2.83079 -0.91602,-4.50391 -1.34332,-2.96262 -3.38786,-4.4063 -7.0039,-4.94531 -0.87007,-0.1297 -2.1451,-0.2039 -3.5879,-0.23243 z"
         transform="matrix(7.5,0,0,-7.5,0,15360)" />
      <path
         allowFill="true"
         fill="#55ff55"
         id="path42"
         style="fill-opacity:1;stroke:#e5fce6;stroke-width:0.728347;stroke-opacity:1"
         d="m 927.05273,174.88086 c -0.30391,0.31636 -3.39407,5.3745 -18.08007,29.58984 -1.76752,2.91441 -3.18374,5.32798 -3.14844,5.36328 0.0353,0.0353 5.9299,-0.053 13.09961,-0.19531 42.84434,-0.85046 88.47547,0.16939 116.49607,2.60156 8.7818,0.76226 16.8316,1.86774 18.5235,2.54493 2.4114,0.96522 3.7597,-0.66941 10.5195,-12.75782 3.6824,-6.5852 8.5162,-16.28472 9.3203,-18.70117 0.5346,-1.60645 0.5433,-1.75294 0.1231,-2.39453 -0.5406,-0.82497 -1.8455,-1.66067 -3.1387,-2.00976 -2.5981,-0.70137 -25.4526,-1.50218 -62.1309,-2.17969 -28.96402,-0.53501 -50.30328,-1.0847 -69.57615,-1.79297 -9.70628,-0.35666 -11.71835,-0.36967 -12.00782,-0.0684 z m 146.64647,21.38477 -1.4336,2.54101 c -0.7874,1.39721 -3.3266,5.91622 -5.6445,10.04297 l -4.2148,7.50391 -0.4356,65.77539 c -0.2394,36.17659 -0.5039,70.05379 -0.5879,75.2832 l -0.1523,9.50781 3.5898,-5.29297 c 1.9738,-2.91141 4.9756,-7.37368 6.6699,-9.91601 l 3.0801,-4.62305 -0.2734,-70.69531 c -0.1499,-38.88263 -0.3456,-72.81656 -0.4356,-75.41016 z m -133.99022,18.62695 c -26.12773,0.18308 -29.0633,0.39662 -33.01757,2.39453 -3.30926,1.67202 -4.49992,3.1334 -5.39649,6.62695 -0.88282,3.43999 -1.1608,27.79926 -0.77539,68.11328 0.46043,48.15993 0.82031,62.02043 1.8086,69.88086 0.90488,7.19711 1.9371,8.89023 5.70312,9.34961 3.17678,0.3875 19.75519,1.05169 61.85938,2.47852 15.32873,0.51946 31.78677,1.07812 36.57227,1.24219 4.7856,0.16407 12.371,0.40111 16.8574,0.52539 9.8034,0.27156 23.2516,0.12349 25.6934,-0.28321 2.8756,-0.47897 3.9351,-1.08163 4.7578,-2.70507 1.0653,-2.1022 1.4141,-6.53266 2.039,-25.97071 1.3957,-43.40815 1.8124,-114.02531 0.7071,-119.71484 -1.1923,-6.13737 -3.8224,-7.95415 -13.2285,-9.13867 -13.6758,-1.7222 -63.83875,-3.0773 -103.58012,-2.79883 z m -4.62304,14.30664 c 8.12112,-0.3773 69.53956,-0.17978 81.30076,0.26172 9.182,0.34468 16.4938,0.79263 18.8106,1.15039 4.6199,0.71339 6.1278,3.45844 7.0742,12.88086 0.279,2.77977 0.3535,15.20252 0.3535,58.15625 v 54.61914 l -2.0391,1.17969 c -1.2644,0.73105 -2.6584,1.2936 -3.6699,1.48046 -1.5582,0.28784 -25.5515,0.55213 -33.1738,0.36524 -1.7946,-0.044 -9.99164,-0.21143 -18.21681,-0.37109 -51.71695,-1.00403 -64.29614,-1.6106 -66.4668,-3.20899 -1.4784,-1.08862 -1.98266,-4.36215 -2.45898,-15.96484 -0.80997,-19.73019 -1.39081,-86.24626 -0.84375,-96.625 0.49969,-9.47995 1.15054,-12.20427 3.01562,-12.60157 1.80911,-0.38537 9.40665,-1.00133 16.31446,-1.32226 z m 23.38476,5.06641 c -27.86146,-0.0174 -28.50458,-0.007 -33.00781,0.58593 -2.52591,0.33253 -4.64589,0.65957 -4.71289,0.72657 -0.31526,0.31526 -0.38838,34.87053 -0.10352,49.10742 0.72793,36.37943 1.8132,65.77593 2.45118,66.42578 0.70942,0.72261 27.44099,1.74908 68.8164,2.64453 7.40266,0.16021 14.99004,0.3295 16.85934,0.375 6.6563,0.16207 25.168,-0.0811 26.2032,-0.34375 0.5791,-0.14692 1.1517,-0.3684 1.2714,-0.49219 1.427,-1.47548 3.0569,-79.63976 2.168,-103.95703 -0.2076,-5.68105 -0.3519,-7.25306 -0.8008,-8.70117 -0.5929,-1.91232 -1.7862,-3.58202 -3.0175,-4.21875 -2.4016,-1.24191 -33.6876,-2.12577 -76.127,-2.15234 z m -4.12304,11.54882 4.84765,0.14258 c 21.89964,0.63783 35.10051,1.45067 37.83594,2.33008 2.37947,0.76498 3.15915,2.86807 11.48045,30.96094 8.2791,27.9504 10.6372,35.17567 13.1758,40.3789 1.9782,4.05448 2.6221,4.75896 5.6797,6.2168 2.0914,0.99715 2.5886,1.35676 2.8906,2.08594 0.4328,1.04487 0.4674,3.3587 0.1641,10.89258 l -0.2246,5.60156 -4.2539,0.17383 c -7.7309,0.31602 -28.94856,0.43516 -30.6016,0.17187 -1.95658,-0.31163 -2.75952,-0.80135 -2.95899,-1.80859 -0.23245,-1.17385 -1.24651,-9.83026 -1.64258,-14.02149 l -0.35351,-3.74023 3.2793,-0.004 c 2.13564,-0.003 3.51629,-0.12533 3.95898,-0.35351 0.62026,-0.3197 0.67507,-0.49376 0.63477,-1.99219 -0.0685,-2.54379 -1.56902,-8.39806 -2.86133,-11.15625 -0.87744,-1.87273 -1.56236,-2.05168 -7.67188,-2.01758 -5.8375,0.0326 -11.59308,0.40624 -13.30273,0.86328 -0.72476,0.19375 -1.52731,0.71084 -2.22266,1.43555 -1.83043,1.90773 -5.02929,9.09427 -5.02929,11.29687 0,0.65849 0.14049,0.86517 0.67773,1 0.6032,0.1514 4.41665,-0.16296 7.31641,-0.60351 l 1.05859,-0.16016 -0.19141,5.8086 c -0.36978,11.21016 -0.73027,13.57235 -2.12304,13.92187 -0.3417,0.0858 -7.47294,0.0427 -15.84766,-0.0957 -8.37472,-0.1384 -17.09244,-0.25477 -19.37305,-0.25977 l -4.14648,-0.008 v -7.57617 c 0,-7.63528 0.22029,-10.16365 0.95117,-10.89453 0.2189,-0.2189 1.2027,-0.48227 2.18555,-0.58399 1.3393,-0.13863 1.95921,-0.34639 2.47461,-0.83008 1.25883,-1.18137 3.29997,-5.92469 10.86523,-25.25195 11.28889,-28.84009 11.58973,-29.6472 11.23047,-30.08008 -0.36109,-0.43509 -2.74714,-1.18884 -3.76172,-1.18945 -1.27538,-7.7e-4 -2.52978,-0.86332 -2.91601,-2.00195 -0.33455,-0.98627 -0.64607,-5.32574 -1.05079,-14.64649 z m 28.32812,29.56836 c -0.84616,-0.0325 -1.85277,1.07867 -2.82226,3.14063 -2.19764,4.67406 -2.80814,8.31397 -1.6543,9.86133 0.8694,1.1659 2.3712,1.79393 4.83398,2.02148 2.07969,0.19215 4.95465,0.0918 5.41407,-0.18945 0.60342,-0.36936 0.12259,-2.35986 -2.02539,-8.38477 -1.46717,-4.1153 -2.43081,-5.92506 -3.39258,-6.36328 -0.11375,-0.0518 -0.23264,-0.0813 -0.35352,-0.0859 z"
         transform="matrix(7.5,0,0,-7.5,0,15360)" />
    </g>
  </g>
  <g
     allowDrag="true"
     id="g44">
    <g
       id="g33"
       inkscape:label="text"
       style="fill:#000000;stroke:none"
       transform="matrix(0.1,0,0,-0.1,-77.291315,1411.411)">
      <path
         d="m 1190,13871 c -156,-48 -246,-204 -165,-284 11,-11 33,-17 66,-17 43,0 54,5 90,38 66,58 88,132 51,165 -34,31 -93,10 -78,-28 7,-20 43,-19 55,3 9,14 10,13 11,-11 1,-98 -140,-192 -186,-122 -44,67 49,196 170,235 56,18 132,8 161,-21 l 24,-24 -60,-75 c -162,-205 -173,-213 -281,-204 -68,6 -78,4 -84,-11 -4,-10 -1,-20 6,-25 19,-12 257,-10 305,1 63,16 131,67 161,123 23,41 26,56 21,103 -3,30 -11,60 -17,68 -26,31 85,78 139,58 23,-8 26,-14 25,-56 0,-53 7,-59 24,-22 45,98 -67,145 -183,77 -22,-14 -37,-17 -41,-10 -23,36 -148,59 -214,39 z m 230,-147 c 0,-70 -50,-146 -124,-188 -47,-27 -126,-44 -126,-27 0,6 7,11 15,11 25,0 96,72 143,145 73,115 92,127 92,59 z"
         id="path8" />
      <path
         d="m 3178,13800 c -52,-28 -78,-65 -78,-112 0,-53 13,-74 54,-88 66,-21 146,37 146,106 0,19 -4,34 -10,34 -5,0 -10,-12 -10,-26 0,-37 -59,-94 -97,-94 -34,0 -63,27 -63,58 0,23 42,77 73,93 25,14 105,13 158,-1 l 40,-11 -34,-38 c -19,-21 -53,-70 -75,-108 -52,-88 -101,-133 -146,-133 -19,0 -40,8 -49,18 -20,22 -22,33 -4,27 19,-7 39,10 35,31 -8,44 -68,22 -68,-25 0,-44 41,-75 98,-74 87,1 131,37 184,149 19,39 44,87 56,107 l 23,36 87,-6 c 75,-5 90,-3 105,11 9,10 15,22 12,27 -8,12 -35,12 -35,-1 0,-15 -34,-12 -165,15 -142,30 -188,31 -237,5 z"
         id="path9" />
      <path
         d="m 4016,13708 c -67,-106 -116,-195 -116,-214 0,-13 10,-30 22,-38 19,-13 25,-13 57,0 19,8 43,22 53,31 16,15 18,15 18,0 0,-23 28,-47 54,-47 13,0 35,9 49,20 l 26,21 11,-21 c 6,-11 18,-20 26,-20 22,0 87,67 79,80 -4,7 -20,-4 -41,-27 -41,-47 -43,-33 -4,38 35,63 36,69 12,69 -10,0 -26,-15 -37,-36 -19,-35 -74,-85 -107,-97 -22,-8 -41,17 -33,43 5,16 15,20 50,20 36,0 48,5 61,25 35,54 -34,75 -100,30 -34,-23 -36,-23 -36,-5 0,11 -8,25 -19,32 -18,11 -18,13 10,58 35,57 35,60 4,60 -15,0 -30,-9 -39,-22 z m 14,-128 c 0,-19 -27,-64 -54,-89 -51,-48 -44,4 9,67 27,32 45,41 45,22 z m 125,-10 c -10,-11 -23,-20 -28,-20 -6,0 -2,9 8,20 10,11 23,20 28,20 6,0 2,-9 -8,-20 z"
         id="path10" />
      <path
         d="m 1640,13704 c -11,-12 -10,-18 3,-32 16,-15 18,-15 34,0 13,14 14,20 3,32 -7,9 -16,16 -20,16 -4,0 -13,-7 -20,-16 z"
         id="path11" />
      <path
         d="m 2588,13679 c -12,-16 -28,-29 -35,-29 -7,0 -13,-4 -13,-10 0,-5 5,-10 11,-10 6,0 2,-12 -9,-27 -26,-37 -35,-69 -28,-99 7,-28 40,-32 67,-8 16,14 19,14 39,-6 38,-38 94,-6 167,95 35,50 34,24 -3,-38 -19,-32 -34,-60 -34,-62 0,-3 11,-5 24,-5 18,0 31,11 49,43 29,48 67,91 74,83 3,-3 -4,-20 -16,-39 -33,-53 -23,-97 20,-97 19,0 89,76 89,97 0,22 -14,14 -44,-27 -38,-51 -52,-51 -26,0 24,47 25,73 4,91 -13,11 -21,11 -44,-3 -24,-14 -29,-14 -34,-2 -8,21 -40,17 -62,-7 l -18,-20 -8,20 c -6,16 -16,21 -44,21 -30,0 -44,-8 -78,-44 -22,-24 -51,-57 -63,-72 -37,-50 -36,-19 2,45 20,33 43,61 52,61 10,0 13,6 9,16 -3,8 -2,24 4,34 7,14 5,19 -11,23 -14,4 -26,-3 -41,-24 z m 117,-79 c -10,-11 -21,-17 -24,-14 -3,3 3,12 13,20 28,20 32,17 11,-6 z m 30,-44 c -34,-51 -99,-75 -93,-35 2,15 17,27 48,39 60,24 63,24 45,-4 z"
         id="path12" />
      <path
         d="m 2479,13683 c -8,-10 -24,-35 -34,-55 -11,-21 -24,-38 -29,-38 -5,0 -20,-10 -33,-22 -13,-12 -23,-16 -23,-9 0,7 14,24 30,38 17,13 30,29 30,34 0,16 -50,10 -57,-8 -5,-14 -8,-13 -14,5 -11,29 -33,28 -63,-4 -19,-21 -24,-23 -23,-9 5,46 -61,44 -117,-5 -42,-37 -53,-73 -31,-106 34,-53 90,-26 178,86 l 28,35 -31,-62 c -16,-34 -30,-65 -30,-68 0,-17 56,3 65,23 13,30 29,27 51,-13 14,-26 68,-31 101,-10 24,16 25,20 18,80 -4,42 -2,71 5,85 16,29 -1,47 -21,23 z m -263,-79 c -11,-7 -22,-11 -25,-8 -3,3 3,12 13,20 11,7 22,11 25,8 3,-3 -3,-12 -13,-20 z m 235,-67 c -7,-17 -18,-27 -31,-27 -23,0 -27,25 -5,34 8,3 21,18 27,33 10,25 12,26 15,7 2,-11 -1,-32 -6,-47 z m -212,25 c -19,-31 -78,-67 -90,-55 -18,18 5,46 48,59 53,17 55,16 42,-4 z"
         id="path13" />
      <path
         d="m 1469,13621 c -43,-43 -52,-87 -22,-116 19,-19 66,-14 93,10 14,12 17,12 28,-6 21,-33 52,-19 112,53 30,36 56,65 58,63 2,-2 -11,-30 -27,-64 -31,-61 -31,-61 -9,-61 17,0 34,17 63,62 49,76 75,89 39,20 -21,-41 -24,-54 -15,-71 15,-27 43,-27 66,-1 17,19 20,19 28,5 23,-42 89,-34 130,14 17,21 23,40 23,72 -1,40 -3,44 -28,47 -39,5 -81,-21 -129,-78 -47,-56 -63,-59 -29,-6 37,61 10,115 -44,87 -20,-11 -28,-11 -40,-2 -24,20 -48,5 -99,-64 -26,-36 -52,-65 -57,-65 -15,0 -13,7 24,70 34,57 34,58 13,64 -15,4 -25,0 -32,-11 -23,-39 -109,-123 -126,-123 -40,0 -17,48 26,56 39,7 80,46 72,68 -4,11 -19,16 -43,16 -29,0 -44,-8 -75,-39 z m 72,-1 c -13,-11 -28,-20 -35,-20 -6,1 0,10 13,20 13,11 28,20 35,20 6,-1 0,-10 -13,-20 z m 454,0 c -3,-5 -16,-15 -28,-21 -21,-10 -21,-9 2,10 25,23 36,27 26,11 z m -7,-75 c -44,-40 -71,-46 -66,-13 2,14 15,26 38,34 59,21 67,15 28,-21 z"
         id="path14" />
      <path
         d="m 4263,13644 c -3,-8 -1,-20 6,-27 14,-14 47,15 37,32 -10,16 -36,13 -43,-5 z"
         id="path15" />
      <path
         d="m 4842,13628 c -7,-7 -12,-18 -12,-25 0,-7 -15,-27 -33,-45 -18,-19 -42,-48 -52,-66 -11,-18 -23,-32 -27,-32 -12,0 -10,5 13,44 27,46 22,90 -9,94 -13,2 -32,-4 -43,-14 -17,-16 -19,-16 -19,-1 0,32 -47,20 -77,-19 -51,-67 -86,-105 -91,-100 -2,3 12,35 32,71 l 36,65 h -28 c -22,0 -31,-8 -46,-40 -23,-47 -72,-107 -80,-99 -4,3 9,34 29,69 19,34 35,64 35,66 0,2 -11,4 -24,4 -33,0 -93,-109 -76,-140 13,-24 47,-26 72,-3 16,14 18,14 18,1 0,-19 27,-31 45,-21 7,5 37,39 65,76 29,38 54,66 57,63 3,-2 -11,-34 -30,-70 -34,-64 -34,-66 -13,-66 16,0 33,17 62,61 21,33 47,65 57,70 23,13 22,6 -9,-40 -28,-43 -29,-78 -2,-95 13,-8 23,-8 38,1 12,8 21,9 25,3 11,-18 74,-11 95,10 22,22 25,48 11,96 -6,21 -5,36 5,49 27,36 6,63 -24,33 z m -27,-154 c -9,-14 -22,-23 -28,-21 -18,6 -21,37 -4,37 8,0 21,15 28,33 l 14,32 3,-28 c 2,-16 -4,-40 -13,-53 z"
         id="path16" />
      <path
         d="m 3407,13612 c -18,-7 -42,-23 -54,-34 -28,-26 -40,-82 -23,-103 16,-20 54,-19 71,1 11,14 13,14 21,0 13,-23 54,-20 71,5 15,21 15,21 22,1 3,-12 16,-22 28,-24 18,-3 12,-8 -27,-26 -84,-38 -116,-68 -116,-107 0,-29 4,-36 25,-41 49,-12 119,39 169,122 10,16 35,41 55,55 36,25 38,26 49,8 21,-33 69,-24 112,19 31,31 38,44 38,80 1,37 -2,43 -25,48 -38,10 -89,-22 -136,-83 -22,-29 -41,-53 -44,-53 -2,0 12,29 32,63 19,35 35,67 35,70 0,13 -101,7 -129,-7 -15,-8 -49,-40 -75,-71 -27,-31 -50,-54 -53,-51 -3,2 11,32 31,66 20,33 36,63 36,64 0,11 -86,10 -113,-2 z m 43,-20 c 0,-12 -52,-83 -73,-101 -15,-12 -17,-11 -17,6 0,29 59,102 83,103 4,0 7,-4 7,-8 z m 179,-32 c -26,-45 -66,-87 -75,-77 -11,11 18,67 48,92 43,36 52,31 27,-15 z m 186,30 c -3,-5 -16,-15 -28,-21 -22,-12 -22,-12 -3,10 19,21 43,30 31,11 z m -3,-68 c -22,-30 -68,-59 -78,-49 -4,3 -4,17 0,30 4,16 17,26 43,34 56,15 56,15 35,-15 z m -262,-108 c 0,-14 -63,-95 -81,-105 -24,-12 -49,-5 -49,14 0,17 45,59 85,80 32,17 45,20 45,11 z"
         id="path17" />
    </g>
  </g>
  <g
     allowDrag="true"
     id="g45">
    <g
       id="g32"
       inkscape:label="bear"
       transform="matrix(0.1,0,0,-0.1,-1.1536012,1192.2266)"
       style="fill:#000000;stroke:none">
      <path
         d="m 1916,3954 c -28,-26 -58,-69 -73,-102 l -25,-57 -24,30 c -13,17 -24,33 -24,38 0,4 -4,7 -10,7 -16,0 -12,-20 11,-52 12,-16 19,-31 16,-34 -3,-3 -35,-10 -73,-15 -136,-19 -299,-72 -404,-132 l -62,-34 -23,23 c -29,29 -116,55 -158,47 -109,-21 -187,-113 -187,-220 0,-77 18,-124 66,-171 l 43,-44 -16,-61 c -11,-46 -14,-91 -11,-172 9,-200 86,-373 223,-507 41,-40 75,-76 75,-79 0,-4 -29,-25 -63,-48 -71,-46 -164,-136 -209,-202 -75,-109 -113,-250 -113,-421 0,-60 0,-108 -1,-108 0,0 -18,9 -40,19 -192,93 -409,20 -501,-167 -22,-45 -29,-74 -32,-139 -4,-102 13,-156 74,-238 97,-130 267,-225 404,-225 92,0 224,51 385,150 172,105 231,119 389,96 77,-12 176,-16 345,-16 209,1 244,-1 292,-18 84,-29 151,-66 271,-148 146,-100 187,-118 274,-118 52,0 84,6 125,23 135,59 262,168 316,272 27,49 29,63 29,159 0,95 -3,111 -28,162 -69,140 -232,201 -372,139 -26,-12 -49,-21 -51,-21 -2,0 4,19 13,43 12,31 17,76 17,167 1,115 -2,132 -30,212 -42,118 -112,225 -211,326 -46,46 -83,86 -83,88 0,2 32,35 71,71 177,167 254,344 247,565 l -3,107 25,5 c 64,12 119,106 120,202 0,111 -68,205 -173,240 -55,18 -99,14 -164,-17 l -42,-20 -63,51 c -131,107 -227,146 -392,161 -61,6 -122,13 -135,15 l -24,5 24,26 c 13,14 52,39 87,55 70,32 75,51 10,37 -58,-13 -128,-57 -155,-98 l -23,-34 v 35 c 0,37 39,105 84,147 26,25 33,41 18,41 -5,0 -30,-21 -56,-46 z m 257,-228 c 270,-75 509,-320 563,-576 38,-179 -17,-393 -144,-561 -89,-117 -205,-194 -382,-253 -453,-151 -951,9 -1130,364 -72,143 -100,351 -66,495 26,110 89,230 155,295 113,111 332,212 521,239 41,6 86,13 100,15 60,10 327,-2 383,-18 z M 1167,3619 c 47,-23 51,-33 27,-60 -12,-14 -26,-16 -74,-12 -73,7 -104,-10 -121,-66 -13,-43 -7,-82 16,-104 12,-12 12,-21 4,-46 -14,-38 -40,-40 -68,-5 -73,93 -40,237 69,292 55,27 92,28 147,1 z m 1591,-64 c 100,-42 149,-151 117,-262 -27,-91 -91,-134 -117,-78 -10,22 -8,29 18,56 40,42 40,101 1,152 -36,48 -60,60 -119,58 -41,0 -50,3 -65,25 -16,25 -16,27 3,38 49,29 108,33 162,11 z M 1413,2341 c 147,-72 194,-82 391,-88 234,-7 352,14 521,93 84,39 86,39 164,-24 104,-84 211,-254 246,-392 21,-80 21,-205 0,-284 -48,-182 -195,-317 -376,-348 -84,-15 -144,-4 -210,35 -108,65 -135,183 -69,312 51,100 109,156 216,208 50,24 101,46 113,50 26,6 28,27 3,27 -18,0 -88,-20 -125,-35 -15,-6 -16,-4 -7,19 21,57 40,160 31,169 -12,12 -31,0 -31,-18 0,-8 -11,-49 -25,-92 -20,-66 -32,-86 -76,-128 -136,-133 -194,-281 -158,-409 13,-46 88,-129 144,-159 33,-18 57,-22 135,-22 91,0 99,2 183,42 107,52 155,90 204,161 29,41 52,61 97,84 70,35 155,47 211,28 51,-17 121,-83 153,-145 23,-43 27,-63 27,-135 0,-101 -27,-170 -95,-244 -81,-87 -253,-176 -343,-176 -49,0 -129,35 -234,103 -39,26 -122,74 -184,106 -68,36 -108,62 -99,65 8,3 33,12 54,19 49,17 63,42 20,34 -16,-3 -69,-13 -119,-22 -75,-14 -134,-16 -355,-12 -282,5 -330,12 -450,62 -69,29 -70,29 -70,12 0,-7 16,-21 35,-31 19,-11 35,-22 35,-26 0,-4 -26,-17 -58,-29 -32,-12 -116,-53 -187,-92 C 948,963 889,940 811,933 686,923 564,972 454,1077 c -153,146 -160,362 -18,493 93,86 207,109 335,70 106,-32 124,-43 137,-87 29,-97 121,-191 229,-234 48,-19 77,-23 168,-24 99,0 115,3 160,26 97,49 165,184 152,300 -13,108 -85,213 -199,290 -58,40 -59,42 -73,137 -11,67 -33,55 -37,-20 l -3,-63 -42,-3 c -61,-4 -56,-28 6,-35 110,-13 236,-108 283,-214 33,-73 32,-192 -3,-258 -53,-104 -157,-148 -297,-127 -151,23 -267,108 -311,227 -85,226 -12,547 158,696 37,33 196,139 208,139 2,0 50,-22 106,-49 z"
         id="path18" />
      <path
         d="m 1869,3725 c -3,-22 4,-61 13,-78 15,-29 27,-10 18,29 -8,35 -29,68 -31,49 z"
         id="path19" />
      <path
         d="m 1624,3641 c -43,-19 -114,-77 -114,-92 0,-17 22,-9 59,20 20,16 53,36 74,44 35,15 46,30 29,41 -4,2 -26,-3 -48,-13 z"
         id="path20" />
      <path
         d="m 2080,3640 c 0,-5 19,-14 43,-20 46,-13 90,-49 114,-94 10,-19 18,-25 25,-18 21,21 -35,94 -99,126 -35,18 -83,21 -83,6 z"
         id="path21" />
      <path
         d="m 2000,3192 c -19,-20 -31,-44 -35,-76 l -8,-48 -36,6 c -20,3 -55,6 -78,6 -40,0 -41,1 -40,34 0,19 -5,46 -13,60 -24,46 -83,46 -94,0 -8,-29 10,-94 25,-94 5,0 9,-4 9,-8 0,-4 -37,-13 -83,-19 -159,-22 -305,-97 -372,-192 -28,-40 -30,-49 -30,-134 0,-80 4,-99 27,-148 38,-77 129,-161 220,-204 117,-55 213,-76 358,-77 195,-1 323,32 444,113 155,103 221,243 176,374 -17,50 -98,137 -175,187 -56,37 -146,69 -227,83 l -36,6 24,24 c 24,24 33,86 16,111 -17,25 -44,24 -72,-4 z m 75,-167 c 142,-30 299,-134 345,-231 45,-92 4,-225 -95,-311 -54,-47 -161,-100 -254,-125 -105,-29 -315,-31 -416,-4 -106,27 -231,91 -281,142 -82,85 -122,213 -94,299 26,78 135,163 263,205 121,39 402,52 532,25 z"
         id="path22" />
      <path
         d="m 1707,2956 c -50,-14 -93,-46 -103,-78 -9,-30 15,-85 52,-117 48,-42 88,-62 164,-81 l 65,-16 3,-72 c 4,-108 -14,-129 -84,-96 -37,18 -48,16 -39,-8 14,-37 107,-50 170,-24 19,8 35,22 35,30 0,19 -5,20 -31,6 -18,-10 -19,-7 -19,80 0,88 0,90 24,90 42,0 145,37 181,65 41,31 65,73 65,114 0,38 -43,75 -113,97 -70,22 -304,29 -370,10 z m 356,-35 c 21,-8 28,-17 25,-34 -3,-19 -8,-22 -43,-19 -22,1 -107,4 -190,5 -146,2 -150,3 -153,24 -3,17 4,24 30,32 42,13 294,7 331,-8 z"
         id="path23" />
      <path
         d="m 562,1527 c -29,-31 -28,-69 4,-101 33,-32 65,-33 98,-3 36,32 42,67 16,100 -28,36 -86,38 -118,4 z"
         id="path24" />
      <path
         d="m 775,1508 c -29,-16 -35,-28 -35,-71 0,-27 7,-45 25,-62 44,-44 104,-25 125,40 10,30 9,40 -5,61 -25,39 -73,53 -110,32 z"
         id="path25" />
      <path
         d="m 2750,1467 c -51,-26 -31,-137 25,-137 55,0 88,102 43,134 -27,19 -35,19 -68,3 z"
         id="path26" />
      <path
         d="m 2930,1453 c -49,-18 -64,-68 -34,-111 33,-48 104,-12 104,52 0,25 -7,39 -22,50 -24,17 -25,17 -48,9 z"
         id="path27" />
      <path
         d="m 410,1430 c -43,-43 -6,-130 55,-130 31,0 75,41 75,70 0,30 -53,80 -84,80 -14,0 -35,-9 -46,-20 z"
         id="path28" />
      <path
         d="m 3021,1324 c -27,-34 -26,-50 4,-79 31,-32 58,-32 84,1 25,32 26,52 5,82 -22,31 -67,29 -93,-4 z"
         id="path29" />
      <path
         d="m 600,1313 c -31,-12 -70,-57 -76,-87 -7,-41 10,-83 49,-124 89,-93 219,-96 262,-6 20,43 19,70 -5,120 -30,60 -87,97 -158,101 -31,1 -64,0 -72,-4 z"
         id="path30" />
      <path
         d="m 2760,1228 c -60,-30 -90,-77 -90,-139 0,-40 5,-52 31,-78 59,-59 183,-38 244,43 96,125 -36,249 -185,174 z"
         id="path31" />
      <path
         allowFill="true"
         fill="#c87137"
         id="path39"
         style="fill-opacity:1;stroke:#de6226;stroke-width:0.728347;stroke-opacity:1"
         d="m 247.70703,1548.5684 c -7.6882,0.1201 -7.82095,0.1331 -16.91015,1.5293 -9.81519,1.5076 -12.63964,2.0354 -17.75782,3.3222 -24.1246,6.0653 -49.15178,19.6473 -59.96484,32.541 -9.23159,11.0079 -16.85584,28.1772 -18.92578,42.6231 -0.6269,4.375 -0.72066,18.3768 -0.1543,22.9765 1.82357,14.8101 5.0537,26.1622 10.48242,36.8418 5.67135,11.1568 13.94499,21.1721 24.38867,29.5215 16.00661,12.7969 36.60069,21.3718 58.99219,24.5645 4.11999,0.5874 6.43201,0.8163 13.73242,1.3613 2.91419,0.2176 15.71909,-0.1145 19.84766,-0.5156 11.79205,-1.1455 22.44704,-3.3886 33.17383,-6.9824 15.05985,-5.0456 26.62521,-10.9954 36.29883,-18.6739 3.63613,-2.8862 10.8459,-10.2068 13.70312,-13.9121 17.88255,-23.19 25.36799,-52.3803 19.73633,-76.9765 -5.60074,-24.4611 -24.12982,-48.7688 -48.80273,-64.0235 -8.71647,-5.3892 -21.18333,-10.6206 -28.41407,-11.9238 -7.73849,-1.3947 -26.47555,-2.4758 -39.42578,-2.2734 z m 1.91016,1.9062 c 1.50234,0.055 4.14139,6.415 4.18554,10.4317 0.0139,1.263 -0.10725,2.0844 -0.35156,2.3789 -1.22913,1.482 -2.94564,-0.9063 -3.86914,-5.3809 -0.5414,-2.6232 -0.69318,-7.0796 -0.25,-7.3535 0.0889,-0.055 0.185,-0.08 0.28516,-0.076 z m -27.35352,10.2891 c 0.61816,-0.012 0.92538,0.099 1.24805,0.3906 1.52,1.3756 -0.0709,3.2355 -4.56055,5.332 -3.5028,1.6356 -6.45945,3.4143 -9.85547,5.9297 -1.42071,1.0523 -3.27372,2.2831 -4.11718,2.7344 -1.42271,0.7613 -3.15502,1.0696 -3.58594,0.6387 -0.0997,-0.1 -0.18164,-0.5455 -0.18164,-0.9903 0,-0.6591 0.46588,-1.2692 2.51562,-3.3008 5.61448,-5.565 13.38156,-10.2272 17.80274,-10.6835 0.28733,-0.03 0.52832,-0.047 0.73437,-0.051 z m 57.4961,0.5351 c 2.27827,-0.1025 5.7045,0.6084 8.59765,1.9981 6.74171,3.2383 14.00196,11.2313 14.00196,15.414 0,0.5058 -0.25326,1.0736 -0.66602,1.4864 -0.36708,0.367 -0.7695,0.6679 -0.89258,0.6679 -0.61767,0 -1.53069,-1.0612 -3.07617,-3.5761 -2.72704,-4.4376 -6.73678,-8.2147 -11,-10.3614 -0.74774,-0.3765 -2.52069,-1.0504 -3.94141,-1.4961 -4.52285,-1.419 -5.76624,-2.103 -5.52148,-3.039 0.17723,-0.6778 1.13108,-1.0322 2.49805,-1.0938 z m -133.67579,1.7266 c -1.04621,-0.014 -2.06645,0.082 -3.07617,0.2871 -8.26842,1.6753 -15.77759,7.7191 -18.99804,15.2871 -1.69392,3.9806 -2.04869,5.7961 -2.05469,10.5586 -0.005,3.7286 0.0843,4.6611 0.61719,6.5254 1.44016,5.0378 4.68997,10.0185 7.42773,11.3828 1.66384,0.8292 1.90463,0.8556 2.94336,0.3184 1.60395,-0.8294 3.08104,-3.5025 3.45898,-6.2598 0.18084,-1.3194 -0.0349,-1.8132 -1.67773,-3.8301 -1.86748,-2.2928 -2.40728,-4.0234 -2.4082,-7.7285 -8.9e-4,-3.5906 0.43924,-5.5781 1.91797,-8.6719 1.49636,-3.1308 3.79763,-5.0245 6.94335,-5.7168 1.67843,-0.3694 4.6094,-0.4242 9.73047,-0.1777 4.95542,0.2385 6.22501,0.058 7.58008,-1.082 1.09078,-0.9178 2.48047,-3.0639 2.48047,-3.8301 0,-1.0522 -1.46679,-2.3714 -4.26367,-3.834 -4.10138,-2.145 -7.48246,-3.1868 -10.6211,-3.2285 z m 213.61329,9.3242 c -4.43841,-0.2718 -8.86606,0.7002 -12.88672,2.9395 -0.90116,0.5019 -1.86695,1.162 -2.14453,1.4687 -0.49385,0.5457 -0.48801,0.5907 0.27343,2.0957 1.11012,2.1941 2.96134,4.0656 4.40039,4.4473 0.64024,0.1698 3.21066,0.3712 5.71094,0.4472 6.18753,0.1878 7.90898,0.6289 10.74024,2.7618 3.08898,2.3271 7.00229,8.0646 7.94531,11.6484 0.49921,1.8972 0.56486,5.8496 0.125,7.502 -0.53413,2.0065 -2.09327,4.6166 -4.10742,6.8808 -2.91133,3.2728 -3.13,4.1533 -1.72266,6.9336 0.62235,1.2295 1.43165,2.1153 2.44141,2.6738 0.77742,0.4302 2.43683,0.386 3.58984,-0.096 3.10986,-1.2994 6.59071,-5.9443 8.45313,-11.2793 1.51116,-4.3288 1.82548,-6.2531 1.80078,-11.0117 -0.0198,-3.8083 -0.11306,-4.6881 -0.74805,-7.0683 -0.81565,-3.0574 -2.30091,-6.3499 -4.01563,-8.8946 -1.45907,-2.1653 -4.78429,-5.5012 -6.90429,-6.9277 -4.06388,-2.7344 -8.51277,-4.2497 -12.95117,-4.5215 z m -87.67774,47.1367 c 0.88641,-0.037 1.73538,0.087 2.30664,0.3828 1.13493,0.5869 2.40725,2.1661 2.79883,3.4766 0.48988,1.6394 0.40056,5.9677 -0.16602,8.0742 -0.71218,2.6478 -1.678,4.312 -3.73632,6.4356 l -1.86914,1.9277 2.79101,0.4609 c 12.47101,2.0579 24.66496,6.4945 32.70117,11.8965 4.35715,2.929 7.04435,5.1956 11.85547,10.002 9.52064,9.5112 12.08776,14.5287 12.39649,24.2226 0.16668,5.2335 -0.21029,8.0243 -1.67774,12.4102 -3.49293,10.4396 -11.47876,19.8779 -23.66015,27.959 -13.34648,8.854 -26.84945,13.2032 -45.13672,14.5429 -15.20366,1.1138 -30.95394,0.1355 -41.875,-2.6015 -9.73604,-2.44 -21.03698,-7.1956 -27.76563,-11.6856 -9.27947,-6.1922 -17.53878,-14.9296 -21.3125,-22.5449 -3.35488,-6.7701 -3.67297,-8.5473 -3.66797,-20.5273 0.003,-7.7419 0.0738,-9.3643 0.46875,-10.8028 2.33636,-8.5105 13.75753,-18.9182 27.39844,-24.9687 8.7905,-3.899 15.5273,-5.74 28.76563,-7.8633 7.19992,-1.1548 9.24294,-2.029 6.70312,-2.8672 -0.7478,-0.2468 -1.07427,-0.6176 -1.74023,-1.9844 -1.11597,-2.2904 -1.7154,-5.0122 -1.75,-7.9355 -0.034,-2.8722 0.34119,-4.1425 1.65234,-5.5938 1.8211,-2.0157 4.66929,-2.355 7.62891,-0.9101 3.29676,1.6094 5.03955,5.3524 5.38476,11.5586 0.0866,1.557 0.20783,3.0857 0.26953,3.3965 0.17095,0.8615 1.27399,1.2011 3.89063,1.2011 3.34439,0 9.11251,0.494 12.80078,1.0957 1.72086,0.2807 3.18009,0.4605 3.24219,0.3985 0.0621,-0.062 0.45766,-2.1074 0.8789,-4.543 0.42123,-2.4357 0.95375,-4.958 1.1836,-5.6055 1.25657,-3.5393 4.16564,-7.1926 6.70898,-8.4238 0.7215,-0.3493 1.64485,-0.547 2.53125,-0.584 z m -23.3125,23.4629 c -10.75271,0.152 -22.19155,1.049 -31.69922,2.6563 -7.87301,1.3309 -12.60118,2.7281 -19.01758,5.6172 -11.92148,5.3678 -21.61055,13.2944 -25.72265,21.0449 -1.75256,3.3032 -2.34109,5.6424 -2.51563,10.0176 -0.18154,4.5508 0.47435,8.818 2.10547,13.705 2.66804,7.9938 8.00824,16.2913 13.44336,20.8907 9.01158,7.6259 27.76586,16.0429 40.38086,18.1211 4.79654,0.7901 8.36931,1.1434 14.00391,1.3847 10.81717,0.4632 23.46922,-0.3024 31.91797,-1.9297 12.58101,-2.4232 29.31866,-10.1352 38.20117,-17.6035 7.05685,-5.9333 12.59021,-15.0825 14.49219,-23.9629 0.72695,-3.3941 0.65544,-9.9453 -0.14063,-12.916 -1.28444,-4.7932 -4.40235,-9.7195 -9.12891,-14.4219 -3.26792,-3.2512 -5.77845,-5.3157 -9.8125,-8.0683 -9.20011,-6.2776 -19.45617,-10.7862 -28.92968,-12.7168 -6.75884,-1.3774 -16.82542,-1.9703 -27.57813,-1.8184 z m -1.54492,9.5723 c 12.81865,0.01 17.6929,0.3044 25.00781,1.5176 8.81692,1.4623 16.62667,5.8247 19.02735,10.6289 0.70273,1.4063 0.83007,1.974 0.83007,3.6875 0,5.6448 -3.33708,11.2855 -9.14257,15.4531 -4.8112,3.4539 -16.57233,7.7096 -22.75782,8.2344 -1.72563,0.1464 -2.81268,0.3673 -3.07031,0.625 -0.76086,0.7608 -0.96943,3.859 -0.84766,12.539 0.0655,4.6665 0.21189,8.7592 0.32618,9.0957 0.27956,0.8231 0.92595,0.773 2.89453,-0.2207 0.93799,-0.4735 1.95869,-0.7941 2.37109,-0.7461 0.6714,0.078 0.7315,0.19 0.8086,1.5391 0.0794,1.3896 0.0334,1.502 -1.01368,2.498 -1.40804,1.3395 -3.95884,2.5501 -6.8457,3.25 -2.68641,0.6513 -8.2403,0.9193 -10.82031,0.5215 -5.54206,-0.8546 -9.1958,-3.4896 -8.94922,-6.4531 0.0783,-0.9415 0.143,-1.005 1.09766,-1.084 0.74968,-0.062 1.84792,0.2804 4.20898,1.3106 5.44212,2.3746 7.61036,2.5674 9.3457,0.832 1.64781,-1.6478 2.24032,-6.3438 1.8711,-14.8379 -0.13001,-2.991 -0.243,-6.0065 -0.25,-6.6992 l -0.0117,-1.2578 -4.69141,-1.1621 c -13.00836,-3.2198 -17.78438,-5.2802 -24.13086,-10.4082 -2.84887,-2.302 -3.99656,-3.5094 -5.68359,-5.9825 -2.05512,-3.0128 -3.45663,-7.3322 -3.20313,-9.8691 0.45675,-4.5708 6.20547,-9.5122 13.50782,-11.6094 4.2328,-1.2156 7.05027,-1.4123 20.12109,-1.4023 z m -11.36133,4.4512 c -7.2341,0.6396 -9.74608,2.2857 -8.49805,5.5683 0.66203,1.7412 2.7218,1.9503 23.39454,2.3653 8.4495,0.1697 17.19817,0.4035 19.4414,0.5195 6.8412,0.3538 7.72005,0.091 8.12305,-2.4297 0.55787,-3.4887 -2.58177,-4.8731 -13.01758,-5.7402 -5.60945,-0.4661 -25.23933,-0.6549 -29.44336,-0.2832 z m -61.57812,72.6269 c -1.2578,0.014 -15.17506,9.0335 -23.85743,15.4609 -7.66097,5.6714 -14.28738,13.8801 -19.3457,23.9629 -6.60933,13.1745 -10.03297,28.0524 -10.04297,43.6524 -0.007,10.2674 1.2451,18.1382 4.26172,26.8047 5.20851,14.9637 18.48209,25.9873 36.41016,30.2383 12.00384,2.8463 22.75002,2.1764 30.99804,-1.9317 7.77567,-3.8728 13.92491,-11.6255 16.00977,-20.1836 1.07116,-4.397 1.33619,-7.189 1.18359,-12.4922 -0.15677,-5.448 -0.63224,-8.4295 -1.99414,-12.5293 -3.51122,-10.5699 -13.8171,-21.4777 -25.82812,-27.3379 -4.06263,-1.9822 -7.87393,-3.1871 -12.70703,-4.0136 -4.90796,-0.8394 -6.57422,-1.5392 -6.57422,-2.7657 0,-1.1524 1.24946,-1.6917 4.77148,-2.0546 1.56268,-0.1611 3.63731,-0.376 4.60938,-0.4786 l 1.76758,-0.1875 0.0664,-1.7675 c 0.15898,-4.2337 0.62561,-10.0959 0.91211,-11.4473 0.47743,-2.252 1.20565,-3.5059 2.0332,-3.5059 1.14712,0 1.87632,2.0765 2.9668,8.4512 1.12057,6.5506 1.29657,7.2468 2.35938,9.2559 1.05402,1.9925 1.65879,2.5411 7.16015,6.5019 2.54233,1.8303 5.72438,4.2798 7.07032,5.4434 10.38035,8.9741 17.02053,19.8763 18.9414,31.0937 0.46744,2.7297 0.53795,3.9787 0.41016,7.3653 -0.24866,6.59 -1.56308,11.622 -4.68555,17.9453 -3.90506,7.9082 -9.38369,13.7026 -16.22461,17.1562 -5.409,2.7307 -7.76468,3.1008 -19.78711,3.1016 -12.05623,7e-4 -16.04213,-0.4351 -21.60937,-2.3633 -7.22953,-2.504 -14.00405,-6.732 -19.94336,-12.4453 -6.0642,-5.8333 -10.07042,-11.9315 -12.41797,-18.9023 -1.52708,-4.5346 -2.72205,-6.0555 -6.08594,-7.7442 -3.45837,-1.7362 -12.29639,-4.6207 -17.572264,-5.7344 -14.445423,-3.0494 -27.411792,0.2969 -38.38086,9.9043 -10.01113,8.7683 -15.414937,21.8636 -14.238281,34.5078 1.312235,14.101 8.340425,26.1636 21.259766,36.4942 17.236469,13.7827 35.867889,17.8738 53.927739,11.8418 6.45135,-2.1548 14.49693,-5.9713 28.55078,-13.5469 9.64083,-5.1969 21.10172,-10.8453 26.50976,-13.0625 4.81927,-1.9758 7.10652,-3.12 7.27344,-3.6406 0.0943,-0.2942 -1.90907,-1.7159 -5.83203,-4.1406 -2.77403,-1.7145 -4.10156,-3.9477 -2.92774,-4.9219 0.56445,-0.4684 1.3289,-0.2238 8.96485,2.8633 16.6473,6.7302 22.27217,7.5494 56.96289,8.2929 16.05155,0.3453 31.48713,0.3448 37.25195,0 5.87996,-0.3517 8.83939,-0.7694 20.31445,-2.8691 9.31876,-1.7052 10.99352,-1.9299 11.88477,-1.5879 1.20027,0.4606 -0.30507,2.284 -2.96875,3.5957 -0.89729,0.4418 -3.46772,1.4437 -5.71094,2.2266 -2.24323,0.783 -4.14004,1.4817 -4.21484,1.5527 -0.51752,0.4889 5.28301,4.1002 14.54687,9.0566 8.49912,4.5473 16.39155,9.1122 23.24805,13.4454 12.53889,7.9243 20.43839,11.7593 27.19141,13.2031 v 0 c 2.73994,0.5858 4.13045,0.6333 6.9707,0.2383 10.487,-1.4586 26.81099,-9.559 37.66406,-18.6894 8.51959,-7.1673 14.49471,-16.5207 16.37891,-25.6426 0.83584,-4.0465 1.04404,-7.2261 0.91211,-13.9063 -0.15145,-7.6702 -0.44254,-9.1867 -2.62891,-13.6582 -4.09687,-8.3787 -11.5837,-16.2429 -18.91797,-19.873 -3.40354,-1.6846 -5.6125,-2.1235 -10.60547,-2.1035 -4.7389,0.019 -8.9834,0.7635 -13.74609,2.4121 -8.41697,2.9136 -13.9708,6.9428 -18.73047,13.5859 -6.74157,9.4092 -12.49588,14.0682 -25.30273,20.4863 -11.89572,5.9616 -14.25177,6.5625 -25.83203,6.5625 -10.73193,0 -13.94736,-0.5052 -18.58594,-2.9394 -5.96792,-3.1317 -14.00958,-11.1795 -17.8125,-17.8262 -1.41697,-2.4765 -2.36181,-6.089 -2.74414,-10.4922 -1.06079,-12.2167 3.88085,-25.7646 14.04492,-38.5039 2.10581,-2.6394 7.80308,-8.8555 10.69727,-11.6719 1.80038,-1.752 3.48516,-4.1044 4.75781,-6.6425 1.66546,-3.3215 5.74667,-16.4747 6.24414,-20.125 0.14878,-1.0917 0.4014,-1.6827 0.96289,-2.2442 0.96033,-0.9603 2.42742,-1.0413 3.28711,-0.1816 0.53845,0.5385 0.56759,0.7584 0.39453,3.0508 -0.37556,4.975 -2.42208,14.2807 -4.22852,19.2304 -0.45341,1.2424 -0.82421,2.4646 -0.82421,2.7168 0,0.3867 0.73646,0.2106 4.6914,-1.125 4.9674,-1.6775 10.48758,-3.1681 12.71289,-3.4316 2.34128,-0.2773 3.76218,0.7825 2.98828,2.2285 -0.39196,0.7324 -0.42726,0.7514 -5.30078,2.7383 -5.40265,2.2026 -14.58893,6.5613 -18.01953,8.5508 -10.51719,6.0994 -17.44138,13.5722 -23.17383,25.0078 -6.9308,13.826 -5.97434,26.63 2.66602,35.6738 4.3991,4.6045 10.80674,8.2286 17.45508,9.8731 3.57305,0.8839 8.93035,1.1693 13.05078,0.6953 24.54903,-2.8241 44.92723,-19.4002 52.74414,-42.9024 2.36844,-7.1209 3.26062,-13.3044 3.26562,-22.6445 0.003,-6.1941 -0.28329,-10.0195 -1.09765,-14.6836 -2.88686,-16.5341 -15.05636,-38.5417 -28.88672,-52.2422 -2.58363,-2.5594 -8.43339,-7.3959 -11.07031,-9.1523 -1.73814,-1.1577 -3.80829,-1.9365 -5.17774,-1.9492 -1.72354,-0.016 -3.99687,0.7621 -9.58594,3.2851 -22.34837,10.0886 -34.82605,12.7322 -60.14648,12.7422 -13.85873,0.01 -25.33864,-0.5711 -32.875,-1.6523 -9.39374,-1.3476 -14.66939,-3.1673 -29.20898,-10.0782 -10.20946,-4.8526 -13.79734,-6.4885 -14.25586,-6.4785 z m -91.556644,111.6152 c 2.685003,0 2.972453,0.056 4.675781,0.8946 3.373229,1.6609 5.486441,4.8809 5.494141,8.3711 0.0036,1.6233 -0.131981,2.2036 -0.871094,3.705 -1.038468,2.1094 -4.117847,5.199 -6.195313,6.2149 -0.962362,0.4705 -1.920362,0.682 -3.382812,0.748 -1.834349,0.083 -2.204797,0.01 -3.69336,-0.7421 -2.08862,-1.0533 -4.680809,-3.6257 -5.705078,-5.6622 -0.681439,-1.3548 -0.786315,-1.8757 -0.791015,-3.8769 -0.0047,-1.971 0.10229,-2.5314 0.732422,-3.8145 1.002656,-2.0415 2.969643,-3.9642 5.107421,-4.9902 1.63356,-0.7843 1.984496,-0.8477 4.628907,-0.8477 z m 25.732424,4.3086 c 4.08367,0.031 8.27814,2.6698 10.36133,6.709 1.01002,1.9584 1.10919,3.2302 0.45117,5.8008 -1.08373,4.2338 -3.59283,7.7133 -6.53125,9.0586 -1.82231,0.8343 -4.3174,1.0574 -6.125,0.5469 -2.65673,-0.7503 -5.79612,-3.4532 -7.009768,-6.0352 -1.382183,-2.9404 -1.327063,-9.264 0.103516,-11.7051 1.123672,-1.9175 4.048592,-3.6806 7.011722,-4.2265 0.57233,-0.1055 1.1549,-0.1529 1.73828,-0.1485 z m 262.85937,5.2676 c 2.70794,0 5.96278,2.3952 6.86719,5.0547 1.74893,5.1428 -1.20016,12.5796 -5.74023,14.4766 -2.26607,0.9468 -5.26836,0.221 -6.93555,-1.6778 -3.17639,-3.6177 -3.71512,-10.8527 -1.08008,-14.4902 1.15248,-1.591 4.7833,-3.3633 6.88867,-3.3633 z m 21.66211,2.834 c 0.1397,-0.01 0.27723,-0.01 0.41406,0 1.40748,0.061 2.68377,0.7414 4.22657,2.1016 1.50544,1.3273 2.10905,2.5072 2.42968,4.75 0.65323,4.5694 -1.54181,9.0366 -5.31835,10.8261 -1.736,0.8226 -3.70627,0.9889 -5.5254,0.4649 -1.3122,-0.3781 -3.22329,-2.4345 -4.21093,-4.5313 -0.7506,-1.5935 -0.85928,-2.1114 -0.86328,-4.1328 -0.004,-1.9391 0.11196,-2.5595 0.71679,-3.8496 0.93133,-1.9865 2.64071,-3.6369 4.83594,-4.6699 1.25955,-0.5927 2.31701,-0.9184 3.29492,-0.959 z m -331.421873,1.0645 c 0.882829,0.018 1.388511,0.214 2.621094,0.832 1.261099,0.6322 2.53094,1.6201 4.144531,3.2265 3.865027,3.8477 4.597984,6.1889 2.964844,9.4571 -1.015929,2.033 -3.658328,4.5863 -5.865235,5.666 -4.527907,2.2153 -9.687791,0.01 -12.097656,-5.1797 -1.450885,-3.1223 -1.548971,-6.8459 -0.246094,-9.3867 1.313549,-2.5616 4.289678,-4.3975 7.429688,-4.584 0.418873,-0.025 0.754551,-0.037 1.048828,-0.031 z m 347.927733,13.3144 c 2.40015,-0.01 3.94689,0.6324 5.39063,2.2305 2.47307,2.7374 3.07059,6.0727 1.61132,8.998 -0.94014,1.8846 -3.56494,4.8373 -4.83789,5.4414 -2.83632,1.3459 -5.15391,0.5846 -8.57031,-2.8144 -3.66182,-3.6431 -3.79489,-6.0765 -0.55469,-10.166 2.08601,-2.6328 4.06174,-3.6795 6.96094,-3.6895 z m -322.632811,4.3535 c 2.670408,0.029 5.414107,0.1619 6.558594,0.3809 9.718127,1.8594 17.054317,8.8891 19.541017,18.7226 0.73911,2.9228 0.5536,5.3196 -0.66602,8.5606 -2.07763,5.5212 -5.57256,8.7493 -10.96679,10.1289 -1.86563,0.477 -6.83784,0.7338 -7.859379,0.4062 -0.149549,-0.048 -1.190885,-0.2972 -2.3125,-0.5546 -9.279476,-2.13 -18.922702,-10.9622 -21.0625,-19.2891 -0.600922,-2.3384 -0.54409,-5.7703 0.125,-7.5469 1.59968,-4.2476 7.101336,-9.7695 10.52539,-10.5644 0.849901,-0.1973 3.44678,-0.2732 6.117188,-0.2442 z m 293.242191,8.8672 c 1.93902,0 3.82819,0.155 4.98437,0.457 4.04698,1.0573 7.95412,3.756 9.95508,6.877 2.70178,4.2141 2.82389,9.9348 0.32031,14.9004 -3.36392,6.672 -9.43235,11.5782 -16.72461,13.5195 -2.79661,0.7446 -8.44448,0.9358 -10.95312,0.3711 -2.99954,-0.6753 -5.58222,-2.1364 -7.95313,-4.498 -3.03633,-3.0244 -3.54876,-4.2544 -3.68945,-8.8457 -0.14044,-4.5838 0.32448,-6.9712 2.0332,-10.4493 1.06554,-2.1689 1.64438,-2.9539 3.61328,-4.8945 3.36115,-3.3129 8.23173,-5.9066 13.13282,-6.9922 1.35326,-0.2994 3.34222,-0.4471 5.28125,-0.4453 z"
         transform="matrix(7.5,0,0,-7.5,0,15360)" />
    </g>
  </g>
</svg>
