<?xml version="1.0" encoding="UTF-8" standalone="no"?>
<svg
   version="1.0"
   width="767.33331pt"
   height="1101pt"
   viewBox="0 0 667.33324 1101"
   preserveAspectRatio="xMidYMid"
   id="svg60"
   sodipodi:docname="frohe_weihnachten.svg"
   inkscape:version="1.4.2 (2aeb623e1d, 2025-05-12)"
   xmlns:inkscape="http://www.inkscape.org/namespaces/inkscape"
   xmlns:sodipodi="http://sodipodi.sourceforge.net/DTD/sodipodi-0.dtd"
   xmlns="http://www.w3.org/2000/svg"
   xmlns:svg="http://www.w3.org/2000/svg">
  <defs
     id="defs60" />
  <sodipodi:namedview
     id="namedview60"
     pagecolor="#ffffff"
     bordercolor="#000000"
     borderopacity="0.25"
     inkscape:showpageshadow="2"
     inkscape:pageopacity="0.0"
     inkscape:pagecheckerboard="0"
     inkscape:deskcolor="#d1d1d1"
     inkscape:document-units="pt"
     inkscape:zoom="0.91943359"
     inkscape:cx="683.02921"
     inkscape:cy="1024"
     inkscape:window-width="3774"
     inkscape:window-height="2091"
     inkscape:window-x="0"
     inkscape:window-y="0"
     inkscape:window-maximized="1"
     inkscape:current-layer="svg60" />
 
 <g  allowDrag="true">
  <g

     transform="matrix(0.0520774,0,0,-0.0520774,26.836657,1117.1398)"
     fill="#000000"
     stroke="none"
     id="g60"
     style="display:inline">
    <path
       d="m 1348,8721 c -78,-25 -149,-72 -209,-140 -57,-63 -165,-222 -214,-312 -31,-59 -32,-59 -43,-34 -32,70 -152,43 -152,-34 0,-14 -6,-21 -20,-21 -46,0 -78,-76 -51,-119 6,-9 4,-23 -6,-38 -15,-22 -15,-26 4,-51 11,-15 29,-28 39,-30 10,-2 28,-18 39,-35 28,-44 63,-47 107,-8 23,20 41,28 55,25 41,-11 123,54 123,97 0,21 8,23 28,10 8,-5 14,-33 16,-73 4,-88 30,-158 75,-209 l 37,-43 -22,-47 c -37,-75 -47,-131 -42,-232 3,-80 8,-101 38,-162 44,-88 132,-182 224,-240 40,-25 78,-45 84,-45 6,0 13,-3 15,-7 3,-5 -60,-7 -139,-5 -212,4 -276,-11 -328,-82 -17,-22 -21,-42 -21,-104 0,-68 4,-84 34,-139 41,-76 115,-148 167,-162 60,-17 150,-13 254,10 170,37 230,12 230,-97 0,-50 -61,-445 -76,-491 -24,-73 -21,-71 -77,-60 -161,29 -326,-53 -398,-198 -55,-112 -49,-179 21,-239 39,-32 72,-41 98,-27 11,6 41,42 66,81 63,95 132,135 165,96 18,-21 1,-48 -90,-142 -87,-90 -99,-112 -99,-187 0,-52 39,-188 64,-222 12,-16 8,-28 -25,-89 -47,-86 -50,-124 -11,-165 42,-46 65,-48 106,-9 20,18 51,60 70,92 l 35,59 31,-64 c 57,-121 37,-158 -127,-240 -60,-30 -139,-74 -178,-100 -38,-25 -102,-67 -141,-93 -167,-108 -218,-225 -163,-373 59,-155 246,-235 420,-178 46,15 69,33 149,116 98,100 127,119 184,119 87,0 120,-151 81,-370 -8,-47 -15,-103 -15,-126 0,-41 0,-41 -72,-77 -136,-67 -240,-176 -318,-332 -95,-190 -104,-359 -29,-507 27,-54 116,-147 185,-194 30,-21 53,-39 51,-41 -6,-5 -125,45 -179,76 -29,16 -67,45 -84,63 -29,30 -32,41 -39,117 -28,338 -297,473 -544,273 -87,-71 -171,-235 -171,-335 0,-96 70,-168 168,-175 48,-3 62,0 86,19 39,31 56,77 56,153 0,92 42,159 77,123 7,-7 22,-49 34,-93 l 21,-81 -26,-38 c -57,-84 -12,-248 76,-277 5,-2 16,-42 23,-89 23,-155 61,-199 173,-199 75,0 128,20 144,54 15,33 24,33 58,-4 63,-67 76,-147 40,-243 -11,-30 -70,-129 -130,-221 -135,-207 -146,-239 -115,-343 29,-97 135,-168 293,-195 127,-21 160,11 243,231 41,110 63,154 91,184 35,37 39,39 80,32 105,-18 153,-68 197,-207 41,-127 61,-161 114,-192 59,-34 164,-52 224,-37 139,35 227,141 208,252 -11,62 -84,201 -194,368 -94,142 -101,157 -101,203 0,83 68,185 147,220 23,10 94,25 158,34 202,26 272,68 294,176 26,121 -57,221 -193,235 -36,4 -95,-4 -199,-26 -81,-17 -152,-31 -157,-31 -6,0 9,24 34,54 89,110 121,215 114,375 -4,83 -12,125 -35,193 -37,105 -102,224 -161,289 l -43,48 17,57 c 23,81 16,186 -18,247 -50,89 -60,138 -56,265 6,181 49,260 146,270 54,5 101,-14 185,-76 103,-74 215,-100 295,-66 116,48 199,234 148,332 -38,73 -105,109 -336,183 l -168,54 129,31 c 137,34 268,91 332,144 105,88 145,277 98,463 -37,142 -90,214 -280,377 -141,121 -159,132 -272,161 -101,26 -204,23 -294,-10 -33,-12 -67,-24 -76,-27 -14,-5 -18,6 -24,75 -9,100 6,131 85,179 116,69 202,29 284,-132 32,-62 74,-81 176,-81 144,0 228,43 285,146 27,48 30,63 30,139 0,128 -32,175 -160,234 -49,22 -83,47 -113,81 -37,42 -42,53 -42,97 0,27 -5,59 -11,71 -10,18 -9,23 7,32 41,22 161,153 184,200 51,103 19,249 -76,355 -40,45 -102,79 -141,80 -22,0 -23,4 -23,75 0,126 38,177 106,143 38,-18 61,-60 78,-143 10,-47 22,-75 36,-87 47,-38 168,-11 190,42 13,32 7,92 -21,198 -34,131 -69,178 -169,229 -48,24 -66,28 -140,28 -128,0 -184,-40 -261,-187 -54,-105 -69,-163 -69,-275 v -92 l -68,-33 c -37,-18 -70,-34 -73,-36 -9,-4 31,132 81,277 73,212 52,301 -108,459 l -84,84 14,31 c 17,42 17,173 -1,217 -33,81 -89,130 -149,130 -23,0 -31,5 -36,24 -15,61 -181,237 -275,294 -107,63 -255,80 -373,43 z m 271,-37 c 27,-8 75,-34 108,-57 105,-78 252,-251 231,-272 -3,-3 -93,-38 -199,-77 -207,-76 -224,-79 -370,-63 -60,6 -86,4 -126,-9 -67,-22 -132,-67 -161,-110 -22,-31 -26,-34 -52,-24 -26,8 -28,13 -23,44 7,43 -16,81 -57,91 l -29,8 72,120 c 40,66 94,149 121,183 128,163 299,221 485,166 z m 454,-375 c 56,-31 92,-120 84,-210 -7,-82 -33,-129 -86,-158 -40,-22 -61,-25 -210,-31 -194,-8 -221,-16 -441,-121 -80,-38 -155,-69 -166,-69 -62,0 -125,85 -146,198 -20,110 19,183 127,233 65,32 117,36 219,19 75,-12 104,-5 314,71 213,77 265,89 305,68 z M 851,8195 c 20,-34 51,-46 64,-25 9,14 38,12 59,-3 17,-12 17,-15 -3,-50 -25,-44 -27,-77 -6,-77 23,0 18,-34 -9,-59 -20,-19 -31,-22 -64,-16 -36,6 -41,4 -62,-25 -30,-43 -63,-38 -70,10 -5,32 -8,35 -38,32 -26,-2 -32,2 -32,17 0,11 7,26 15,35 21,20 19,31 -7,49 -19,12 -21,19 -12,34 6,10 26,20 45,23 30,4 34,9 34,35 0,40 11,55 41,55 18,0 31,-10 45,-35 z m 1381,-333 c 146,-152 157,-216 79,-450 -26,-81 -58,-182 -71,-225 -31,-106 -22,-113 72,-55 106,66 104,65 129,8 12,-27 27,-55 35,-61 12,-10 8,-18 -20,-49 -54,-60 -60,-163 -15,-270 10,-25 27,-82 38,-127 24,-97 41,-134 77,-162 32,-25 90,-28 121,-6 20,14 23,13 42,-11 11,-14 39,-41 63,-59 49,-39 62,-77 45,-132 -13,-40 -36,-58 -90,-67 -50,-9 -66,-41 -43,-87 9,-17 16,-33 16,-34 0,-2 -15,-5 -32,-9 -18,-4 -49,-20 -70,-36 -42,-34 -48,-36 -48,-15 0,29 -92,112 -137,124 -51,14 -119,1 -179,-34 -83,-48 -114,-112 -95,-194 l 9,-41 h -35 c -39,0 -79,-18 -107,-49 -31,-34 -53,-26 -77,25 -19,40 -48,64 -78,64 -4,0 -28,-13 -52,-30 -24,-16 -50,-30 -57,-30 -6,0 -28,18 -48,40 -20,22 -43,40 -51,40 -11,0 -14,7 -10,23 23,92 68,420 64,460 -5,52 -30,95 -68,114 -35,18 -143,16 -245,-6 -49,-10 -105,-16 -124,-14 -63,9 -77,53 -35,115 14,20 25,43 25,50 0,8 -16,31 -35,51 -20,21 -35,47 -35,61 0,34 39,77 100,110 l 52,29 152,-7 c 83,-3 171,-9 194,-12 39,-6 43,-4 40,12 -2,11 -16,21 -38,27 -221,53 -352,126 -445,249 -79,104 -90,136 -90,263 0,96 4,118 26,170 l 25,60 65,6 c 53,5 85,17 190,71 195,101 228,110 401,114 158,3 212,13 250,44 12,11 28,19 34,20 6,0 45,-35 86,-78 z m 576,-120 c 10,-7 10,-17 -2,-49 -8,-23 -18,-62 -21,-87 -7,-45 -8,-46 -44,-46 -40,0 -81,-23 -81,-46 0,-34 -26,-8 -83,83 l -27,42 32,37 c 18,21 51,45 73,55 41,19 130,25 153,11 z m 148,-87 c 47,-54 53,-82 23,-103 -13,-9 -43,-34 -66,-55 -24,-22 -43,-35 -43,-29 0,6 -14,28 -32,48 l -32,36 17,64 c 10,35 22,75 27,89 l 10,26 31,-18 c 17,-10 47,-36 65,-58 z m -346,-170 c 25,-28 27,-35 22,-102 -4,-67 -6,-73 -26,-73 -29,0 -127,50 -140,72 -13,21 3,87 40,168 l 25,54 26,-44 c 14,-25 38,-58 53,-75 z m 426,-22 c 22,-93 19,-120 -16,-138 -30,-16 -105,-21 -113,-7 -3,4 -8,26 -12,50 -7,43 -6,44 54,104 34,34 64,58 67,55 4,-3 13,-32 20,-64 z m -511,-171 c 17,-6 47,-13 68,-17 34,-5 37,-8 37,-39 0,-19 3,-47 6,-64 6,-28 3,-31 -51,-58 l -58,-28 -23,27 c -33,38 -57,128 -49,178 6,36 9,39 23,26 10,-7 31,-19 47,-25 z m 218,-46 c 65,-27 144,-157 154,-252 5,-47 2,-63 -25,-117 -17,-34 -43,-73 -57,-87 l -25,-23 v 27 c 0,51 -26,84 -78,99 -27,8 -48,21 -50,30 -2,9 9,37 23,62 32,53 25,71 -34,81 -57,10 -57,14 8,51 34,19 61,37 61,41 0,14 -15,27 -30,27 -10,0 -16,12 -18,38 -3,32 0,37 18,37 11,0 35,-6 53,-14 z m -128,-209 c 22,-6 41,-12 42,-12 2,-1 -6,-19 -17,-40 -35,-69 -21,-125 31,-125 45,0 67,-16 79,-58 17,-62 13,-71 -32,-92 -61,-28 -145,-27 -188,3 -54,36 -73,79 -78,174 l -5,84 48,45 c 33,32 52,43 63,38 10,-4 35,-12 57,-17 z M 1243,6924 c 3,-3 -10,-20 -29,-36 -73,-64 -82,-118 -28,-177 l 35,-40 -23,-31 c -14,-20 -23,-45 -23,-71 0,-21 -3,-39 -8,-39 -17,0 -93,89 -117,136 -46,93 -36,204 23,235 42,23 154,38 170,23 z m 1381,-274 c 42,0 44,-2 60,-41 32,-80 -22,-142 -99,-113 -20,8 -44,55 -61,119 -18,67 -19,66 21,49 19,-7 54,-14 79,-14 z m 307,-333 c 68,-45 97,-151 67,-249 -17,-59 -88,-133 -145,-152 -68,-23 -189,-21 -230,4 -18,11 -33,26 -33,34 0,25 66,73 119,86 56,13 61,24 31,63 -11,14 -20,30 -20,36 0,13 33,31 59,31 11,0 33,11 50,25 23,20 31,37 36,73 11,83 13,85 66,49 z M 1690,5850 c 39,-50 72,-52 125,-10 21,17 44,30 51,30 8,0 26,-19 40,-42 49,-80 72,-85 135,-32 34,28 49,34 78,32 33,-3 36,-6 39,-36 6,-63 -18,-145 -53,-177 -62,-58 -236,-100 -337,-81 l -35,6 -5,68 c -6,86 -34,142 -91,178 l -43,28 21,38 c 11,21 25,38 32,38 6,0 26,-18 43,-40 z m 885,-24 c 100,-26 166,-71 325,-222 51,-49 111,-116 132,-148 120,-185 111,-457 -19,-566 -82,-68 -233,-124 -471,-174 -63,-13 -116,-27 -119,-30 -11,-11 20,-36 43,-36 42,0 354,-90 407,-116 39,-21 35,-51 -13,-91 -45,-39 -51,-67 -20,-106 36,-45 24,-75 -47,-120 -23,-14 -43,-36 -45,-47 -3,-19 -9,-17 -68,26 -92,67 -166,104 -209,104 -55,-1 -116,-33 -150,-80 -68,-94 -82,-349 -26,-461 12,-22 11,-29 -11,-57 -31,-39 -45,-40 -88,-7 -48,37 -71,32 -126,-25 -27,-27 -52,-50 -58,-50 -13,0 -37,30 -60,76 -26,52 -42,65 -89,71 l -38,5 v 111 c 0,94 -4,120 -22,159 -54,118 -176,101 -303,-42 l -63,-71 -13,27 c -8,14 -24,34 -36,44 -75,59 -72,53 -58,92 7,19 10,46 7,60 -8,30 -60,58 -106,58 -18,0 -34,6 -37,14 -3,8 4,44 15,81 12,37 21,80 21,95 0,37 29,59 159,121 242,116 276,179 182,340 -47,81 -51,59 43,224 28,50 58,102 65,118 8,15 18,24 21,20 4,-5 41,-54 83,-109 75,-100 139,-164 164,-164 18,0 16,17 -7,66 -25,52 -43,199 -34,279 7,68 36,152 64,187 10,13 53,41 94,62 42,20 84,49 93,63 9,14 24,60 33,101 l 15,76 80,28 c 91,32 205,37 290,14 z m -1148,-43 c -3,-16 -12,-63 -18,-106 -12,-72 -15,-80 -43,-94 -30,-15 -30,-15 -67,28 -21,24 -46,59 -56,76 -17,32 -17,34 3,53 24,25 129,69 163,70 20,0 23,-4 18,-27 z m 136,-1 c 67,-23 121,-83 113,-124 -9,-43 -43,-86 -94,-119 -57,-36 -72,-36 -72,-3 0,16 -12,37 -30,54 -25,23 -30,36 -30,74 0,25 5,68 11,96 12,56 6,55 102,22 z m -343,-132 c 12,-23 36,-58 55,-79 l 35,-38 -38,-53 c -56,-80 -65,-83 -112,-33 -30,32 -40,51 -40,75 0,41 58,168 76,168 2,0 13,-18 24,-40 z m 475,-122 c -4,-35 -13,-88 -21,-119 -8,-31 -14,-66 -14,-77 0,-24 -11,-28 -103,-37 l -69,-7 8,24 c 4,12 10,54 13,92 l 6,69 43,15 c 25,8 62,33 85,57 23,23 46,43 50,43 5,1 6,-26 2,-60 z m 242,-28 c -2,-3 -16,-32 -32,-65 -29,-59 -30,-63 -30,-217 0,-87 -1,-158 -1,-158 -1,0 -41,49 -88,109 -95,121 -102,143 -72,233 8,24 17,57 21,74 l 6,32 99,-2 c 55,0 99,-3 97,-6 z m -457,-95 c 0,-8 -9,-41 -20,-72 -11,-32 -31,-107 -46,-168 -14,-60 -29,-114 -34,-118 -15,-16 -60,120 -60,181 0,75 13,97 85,148 67,47 75,50 75,29 z m 174,-157 c -9,-32 -27,-67 -97,-192 l -61,-108 -48,4 c -27,3 -51,7 -54,10 -2,3 5,29 16,58 12,29 27,83 35,119 7,36 17,73 20,83 10,27 65,43 158,47 35,1 38,-1 31,-21 z m -202,-338 h 30 l -32,-57 c -44,-80 -69,-103 -97,-92 -35,13 -39,53 -12,111 22,46 25,49 52,44 16,-3 43,-6 59,-6 z m 1553,-443 c 43,-41 45,-46 45,-98 -1,-87 -52,-178 -122,-215 -33,-17 -134,-19 -144,-2 -4,7 2,18 15,27 97,68 112,100 79,170 l -21,44 41,34 c 28,23 42,43 42,59 0,34 13,30 65,-19 z M 1170,4306 c -34,-99 -23,-126 52,-126 63,0 94,-42 67,-91 -15,-30 -2,-57 44,-90 44,-31 82,-88 69,-101 -4,-4 -36,-15 -72,-24 -186,-47 -355,61 -368,238 -7,94 48,177 174,262 47,32 49,33 52,12 1,-11 -6,-48 -18,-80 z m 708,-581 c 14,-4 32,-26 49,-58 30,-61 48,-76 87,-77 22,0 40,12 77,52 l 47,52 34,-25 c 18,-14 41,-28 51,-32 20,-7 66,12 86,37 22,26 29,19 40,-37 13,-60 2,-140 -28,-197 -27,-53 -70,-73 -155,-73 -125,0 -237,47 -297,125 -19,24 -42,49 -51,56 -21,15 -23,66 -7,142 8,40 14,50 27,46 10,-2 27,-7 40,-11 z m -6,-288 c 68,-68 141,-98 255,-105 102,-6 144,2 182,33 l 29,25 55,-73 c 100,-130 161,-281 173,-425 13,-155 -35,-282 -151,-398 -40,-40 -95,-84 -124,-98 -48,-25 -69,-56 -37,-56 8,0 49,14 91,31 87,34 277,80 344,82 56,2 72,-18 52,-65 -8,-18 -16,-49 -18,-69 -4,-33 -2,-37 26,-47 17,-6 31,-14 31,-18 0,-4 -10,-29 -22,-55 -21,-44 -26,-48 -59,-49 -43,0 -152,-34 -196,-61 -75,-46 -143,-158 -143,-234 0,-55 21,-99 105,-220 34,-49 74,-111 89,-137 l 28,-48 -22,-30 c -24,-34 -22,-34 -75,-19 -74,21 -125,-27 -125,-116 0,-24 -5,-47 -10,-50 -6,-4 -26,3 -45,15 -24,15 -47,21 -76,19 l -40,-3 -24,59 c -38,94 -128,169 -218,181 -42,6 -47,4 -89,-37 -34,-34 -53,-65 -79,-131 -19,-49 -38,-88 -42,-88 -5,0 -20,9 -34,20 -31,24 -64,25 -105,4 -38,-19 -48,-9 -48,52 0,66 -16,78 -109,85 -124,9 -125,12 -34,149 100,151 134,225 140,303 4,54 1,69 -24,117 -17,32 -46,67 -70,85 -36,26 -43,38 -56,97 -9,36 -39,125 -67,197 -27,72 -50,142 -50,156 v 26 l 28,-19 c 86,-61 367,-172 436,-172 34,0 14,31 -36,56 -167,84 -289,192 -341,301 -31,65 -32,73 -32,188 1,112 3,126 33,201 60,150 190,301 319,373 81,44 115,38 185,-32 z m -848,-423 c 23,-9 21,-98 -5,-154 -29,-65 -43,-77 -83,-72 -31,4 -36,9 -55,61 -11,31 -32,72 -46,91 l -25,34 22,9 c 78,31 159,44 192,31 z m 139,-105 c 44,-62 67,-134 70,-215 l 2,-57 -78,-54 c -43,-29 -84,-53 -91,-53 -7,0 -23,42 -40,108 l -28,108 37,67 c 24,44 38,84 42,122 6,54 7,55 27,42 12,-8 38,-38 59,-68 z m -349,-1 c 14,-24 30,-65 37,-91 10,-42 9,-53 -7,-90 -10,-23 -19,-44 -21,-46 -1,-2 -19,7 -40,19 -21,12 -64,32 -96,44 l -57,22 31,50 c 31,50 107,134 121,134 4,0 18,-19 32,-42 z M 677,2709 c 26,-11 72,-34 101,-52 54,-32 54,-32 49,-74 -7,-67 -30,-93 -78,-93 -84,0 -149,63 -149,143 0,46 11,97 20,97 5,0 30,-9 57,-21 z m 613,-349 c 49,-124 80,-232 80,-283 0,-34 -4,-40 -35,-53 -19,-7 -60,-14 -90,-14 -49,0 -61,4 -85,28 -26,27 -34,49 -54,168 l -5,31 55,6 c 61,6 117,34 122,60 5,23 -18,22 -65,-2 -21,-11 -56,-21 -77,-23 l -39,-3 -12,70 c -7,39 -16,86 -20,106 -6,35 -5,37 27,48 18,7 58,29 88,50 l 55,39 7,-64 c 4,-35 26,-108 48,-164 z m -255,58 c 9,-54 15,-103 13,-109 -2,-6 -16,12 -32,40 -30,56 -37,130 -15,157 6,8 13,13 15,12 1,-2 10,-47 19,-100 z m 1845,47 c 112,-58 118,-230 10,-285 -39,-20 -110,-27 -110,-11 0,4 9,20 21,35 27,34 21,66 -18,92 l -32,21 20,37 c 21,40 25,96 7,114 -18,18 66,16 102,-3 z M 1342,1391 c 22,-13 52,-19 89,-19 66,1 79,-5 79,-35 0,-12 5,-39 11,-59 9,-34 13,-38 44,-38 19,0 45,5 59,11 20,10 31,8 60,-11 20,-12 36,-29 36,-38 0,-30 -47,-119 -71,-136 -32,-22 -103,-20 -183,4 -123,38 -196,121 -196,222 0,44 21,118 34,118 3,0 20,-9 38,-19 z m 1287,-31 c 47,-109 41,-161 -27,-229 -54,-53 -101,-71 -188,-71 -65,1 -124,18 -156,47 -21,18 -57,88 -58,111 0,17 80,15 104,-3 29,-22 63,-19 77,8 7,12 17,25 23,30 8,5 7,10 -3,16 -20,13 -6,78 20,91 12,7 43,8 78,4 55,-6 59,-5 77,20 11,14 22,26 25,26 4,0 16,-22 28,-50 z"
       id="path45" />
    <path
       d="m 1807,7778 c -18,-15 -37,-59 -37,-89 0,-32 44,-69 83,-69 71,0 105,93 52,145 -26,27 -71,33 -98,13 z"
       id="path46" />
    <path
       d="m 1531,7714 c -27,-35 -27,-82 2,-116 33,-40 70,-46 101,-14 54,53 21,156 -49,156 -24,0 -39,-7 -54,-26 z"
       id="path47" />
    <path
       d="m 2077,7493 c -49,-67 -152,-164 -212,-199 -45,-26 -59,-29 -135,-29 -99,0 -142,18 -220,91 -45,42 -80,57 -80,33 0,-21 101,-108 157,-136 51,-24 69,-28 148,-28 81,0 95,3 145,30 30,16 91,66 135,110 87,88 126,148 109,165 -8,8 -21,-2 -47,-37 z"
       id="path48" />
    <path
       d="m 1952,6867 c -31,-14 -62,-77 -62,-125 0,-45 33,-100 70,-119 14,-7 44,-13 67,-13 75,0 144,86 126,159 -20,86 -123,136 -201,98 z m 135,-59 c 13,-13 26,-40 29,-60 5,-29 1,-40 -22,-66 -37,-40 -70,-47 -114,-25 -61,31 -71,123 -18,167 30,24 92,16 125,-16 z"
       id="path49" />
    <path
       d="m 2059,6487 c -63,-42 -75,-148 -22,-201 54,-54 138,-58 188,-8 47,47 59,116 30,172 -32,61 -132,80 -196,37 z m 146,-49 c 23,-27 26,-39 22,-72 -11,-83 -100,-115 -158,-57 -63,64 -17,160 78,161 23,0 38,-8 58,-32 z"
       id="path50" />
    <path
       d="m 2382,5397 c -38,-39 -43,-84 -12,-112 25,-22 75,-24 96,-3 24,24 30,93 10,123 -23,34 -56,32 -94,-8 z"
       id="path51" />
    <path
       d="m 2586,5269 c -35,-28 -38,-100 -4,-123 37,-26 75,-20 93,14 46,88 -17,166 -89,109 z"
       id="path52" />
    <path
       d="m 2250,5235 c -17,-20 -7,-106 20,-178 33,-88 108,-147 185,-147 50,1 175,84 175,116 0,21 -19,17 -54,-13 -36,-30 -102,-62 -129,-63 -35,0 -85,31 -110,69 -32,48 -57,131 -57,188 0,45 -9,53 -30,28 z"
       id="path53" />
    <path
       d="m 2035,4701 c -48,-29 -67,-57 -72,-103 -8,-82 59,-145 144,-135 127,14 165,196 51,241 -51,21 -86,20 -123,-3 z m 122,-36 c 29,-21 37,-65 19,-108 -17,-42 -41,-57 -91,-57 -91,0 -119,120 -37,164 35,20 82,20 109,1 z"
       id="path54" />
    <path
       d="m 1817,4370 c -62,-54 -66,-150 -8,-202 17,-15 42,-30 56,-34 69,-17 143,30 166,105 12,39 11,47 -7,79 -44,84 -144,108 -207,52 z m 126,-22 c 15,-6 35,-24 43,-40 45,-87 -72,-179 -149,-118 -52,41 -41,132 20,164 27,14 33,13 86,-6 z"
       id="path55" />
    <path
       d="m 1821,3146 c -34,-36 -40,-107 -12,-135 38,-38 102,-27 127,21 45,87 -51,182 -115,114 z"
       id="path56" />
    <path
       d="m 2051,3135 c -41,-47 -43,-94 -5,-124 35,-28 76,-27 110,3 53,45 24,147 -43,154 -24,2 -36,-4 -62,-33 z"
       id="path57" />
    <path
       d="m 2195,2851 c -3,-9 -18,-38 -34,-63 -39,-61 -117,-100 -197,-99 -81,1 -158,39 -184,92 -23,45 -50,52 -50,14 0,-17 15,-41 44,-70 92,-92 256,-101 364,-18 38,28 92,107 92,134 0,24 -28,32 -35,10 z"
       id="path58" />
    <path
       d="m 1915,2245 c -68,-24 -104,-94 -85,-166 28,-103 151,-128 227,-46 61,67 52,163 -20,207 -38,23 -67,24 -122,5 z m 113,-45 c 64,-60 23,-167 -69,-177 -42,-5 -48,-3 -72,27 -31,36 -34,68 -12,110 29,57 112,78 153,40 z"
       id="path59" />
    <path
       d="m 1922,1870 c -41,-25 -77,-99 -68,-142 26,-130 199,-147 262,-26 28,53 9,139 -37,172 -34,23 -116,21 -157,-4 z m 140,-37 c 49,-43 26,-142 -38,-169 -89,-37 -164,49 -118,137 28,55 111,71 156,32 z"
       id="path60" />
    <path
       allowFill="true"
       id="path61"
        fill="#4ab563"
       style="display:inline;stroke-width:2.39278"
       d="m 286.07227,990.83398 c -0.91227,0.004 -3.12729,0.98737 -4.92188,2.18555 -5.23429,3.49476 -9.94795,4.29116 -31.90625,5.38477 -24.66102,1.22821 -28.76933,2.3537 -53.19336,14.5703 -15.49513,7.7505 -23.61348,10.4824 -31.15625,10.4824 -3.42986,0 -3.7151,0.333 -6.74414,7.8848 -2.94641,7.3457 -3.16406,8.8901 -3.16406,22.5684 0,13.6785 0.2006,15.111 2.93555,20.9472 9.4972,20.2663 28.36447,35.0272 55.25195,43.2246 16.44361,5.0132 17.40234,5.438 17.40234,7.7422 0,2.4397 2.00588,2.38 -27.21289,0.8203 -22.73276,-1.2136 -23.53171,-1.1861 -27.73437,0.9746 -11.84161,6.088 -18.03014,13.3551 -15.48047,18.1797 0.63669,1.2048 2.79619,4.198 4.79687,6.6524 2.00068,2.4544 3.62934,5.1468 3.61914,5.9824 -0.0102,0.8357 -1.47191,3.966 -3.24609,6.957 -3.70461,6.2453 -4.05674,9.2802 -1.35938,11.711 3.4143,3.0769 7.54946,3.2217 22.1543,0.7754 10.04428,-1.6824 17.1499,-2.2603 23.59766,-1.9219 8.94723,0.4696 9.33328,0.6007 12.80469,4.3887 5.64075,6.155 6.31414,10.548 4.26953,27.8417 -0.96568,8.1679 -2.94642,22.1235 -4.40235,31.0137 l -2.64648,16.1641 5.55078,5.0449 c 8.11117,7.3693 8.31821,7.4072 15.70508,2.9531 3.54401,-2.137 7.23306,-3.8867 8.19922,-3.8867 2.74333,0 7.00352,3.8733 10.14648,9.2363 3.19699,5.4553 5.66248,6.1704 8.86524,2.5704 2.931,-3.2944 10.04542,-6.3197 14.92578,-6.3477 3.43653,-0.02 4.05457,-0.3523 3.59179,-1.9277 -4.02222,-13.6924 1.03201,-23.8841 15.33985,-30.9278 5.77899,-2.845 8.43309,-3.4959 14.43359,-3.5449 6.82346,-0.055 7.79761,0.249 13.5625,4.2188 6.69282,4.6088 11.45703,10.0226 11.45703,13.0214 0,1.5307 0.857,1.2526 4.74414,-1.539 2.60929,-1.8738 6.6488,-4.0719 8.97461,-4.8848 3.12358,-1.0917 4.13093,-1.9943 3.85742,-3.457 -2.11879,-11.3315 -1.56828,-12.5239 6.91602,-14.9903 6.52046,-1.8956 9.87015,-5.2741 10.95312,-11.0468 1.04166,-5.5526 -0.97524,-9.0246 -9.96875,-17.17 -7.01053,-6.3494 -8.38534,-7.18 -9.86132,-5.955 -0.94342,0.7829 -4.27887,1.4238 -7.41211,1.4238 -9.63172,0 -14.03309,-4.4942 -18.03321,-18.4121 -1.20348,-4.1874 -3.93189,-13.1932 -6.0625,-20.0117 -6.38167,-20.4229 -6.0814,-29.8956 1.24219,-39.1504 l 3.73828,-4.7246 -2.0332,-2.8614 c -1.11785,-1.5737 -2.7711,-4.6364 -3.67578,-6.8066 -0.90468,-2.1702 -2.21241,-4.2951 -2.9043,-4.7227 -0.6919,-0.4276 -5.56397,1.7079 -10.82812,4.7461 -5.26414,3.0381 -10.74487,5.6527 -12.17774,5.8106 -2.38993,0.2634 -2.58719,-0.072 -2.40429,-4.0625 0.10966,-2.3928 3.66662,-15.3538 7.90429,-28.8008 4.23769,-13.4469 8.20567,-27.5866 8.81836,-31.4219 1.53357,-9.5997 -0.0987,-16.7442 -5.66015,-24.7851 -5.4643,-7.9004 -19.33761,-22.12722 -21.56836,-22.11722 z m -39.42969,18.55272 c 4.41786,-0.085 6.95099,1.2568 8.97851,4.5821 3.23114,5.2994 2.82885,11.1476 -1.0332,15.0097 -4.25485,4.2548 -10.42683,4.4021 -15.22656,0.3633 -2.77309,-2.3333 -3.3457,-3.6106 -3.3457,-7.4531 0,-6.5082 3.75903,-11.9108 8.61328,-12.3789 0.712,-0.069 1.38254,-0.111 2.01367,-0.1231 z m -35.19531,6.2715 c 3.46286,0.016 6.89586,1.9481 8.78515,5.6016 3.06766,5.9322 1.17121,14.7652 -3.73437,17.3906 -3.94568,2.1117 -7.74516,1.2665 -11.58985,-2.5781 -4.86233,-4.8624 -5.2197,-11.7263 -0.88086,-16.8828 2.01641,-2.3964 4.72659,-3.5436 7.41993,-3.5313 z m 71.22461,27.4981 c 0.80288,-0.01 1.19921,0.806 1.19921,2.4335 0,6.9574 -22.20205,30.1499 -35.27343,36.8477 -3.34114,1.712 -6.9577,2.3572 -14.75782,2.6348 -11.67532,0.4156 -17.5682,-0.8678 -25.63671,-5.5821 -6.96534,-4.0697 -17.86915,-14.4702 -17.86915,-17.0449 0,-3.832 4.05624,-2.075 13.05274,5.6543 8.89165,7.6392 14.1607,9.9131 24.41797,10.541 10.23947,0.6269 15.70455,-0.6175 22.52148,-5.1328 7.20031,-4.7693 18.45735,-15.3781 24.875,-23.4433 3.66295,-4.6034 6.13256,-6.8957 7.47071,-6.9082 z m -15.25586,87.0703 c 12.66809,-0.1291 23.23368,11.3515 19.86132,22.6074 -1.5272,5.0973 -5.72597,10.3814 -10.00781,12.5957 -3.84066,1.986 -11.33208,1.986 -15.89844,0 -4.09078,-1.7792 -8.60973,-8.2419 -9.60156,-13.7324 -1.68848,-9.3468 4.98601,-20.2001 13.08985,-21.2871 0.85973,-0.1154 1.7121,-0.175 2.55664,-0.1836 z m 18.11328,49.4843 c 9.67052,0.098 16.12896,5.2663 17.43164,13.9532 1.2138,8.0942 -3.28505,16.9961 -10.46485,20.7089 -7.02726,3.634 -18.02511,0.6157 -23.20703,-6.371 -1.73669,-2.3416 -2.27453,-4.6664 -2.26953,-9.7891 0.0112,-11.8382 6.79454,-18.6204 18.50977,-18.502 z m 41.8457,91.1973 c -13.3089,-0.015 -15.52331,0.2719 -23.6582,3.0645 -7.74432,2.6585 -9.06221,3.4771 -9.61914,5.9804 -0.35496,1.5956 -1.63053,6.6901 -2.83399,11.3203 -2.50869,9.6519 -4.90766,12.3641 -16.26367,18.3887 -10.14013,5.3795 -14.16877,9.9187 -17.30273,19.4883 -2.26124,6.9048 -2.63681,10.0727 -2.56641,21.6816 0.0816,13.4526 1.28129,20.5461 5.31641,31.4356 2.15466,5.8147 1.05994,7.4956 -3.38477,5.1972 -4.25381,-2.1997 -12.49548,-11.1121 -22.05664,-23.8535 -4.37663,-5.8324 -8.32619,-10.6035 -8.77734,-10.6035 -0.93231,0 -18.92545,31.9137 -20.03711,35.5391 -0.51355,1.6748 0.70081,5.0749 4.15234,11.6191 11.54062,21.8813 7.82508,28.8469 -24.0957,45.1543 -17.88271,9.1357 -22.01563,12.3806 -22.01563,17.2813 0,1.4924 -1.04642,6.5288 -2.32422,11.1914 -1.2778,4.6626 -2.04098,9.2124 -1.69531,10.1133 0.36038,0.9392 2.69622,1.9486 5.47461,2.3652 5.87458,0.8809 11.36166,4.0436 12.53906,7.2265 0.47784,1.2917 0.41607,4.8376 -0.13672,7.879 l -1.0039,5.5293 5.98047,5.4375 c 3.28945,2.991 6.54161,6.5557 7.22656,7.9218 1.20602,2.4054 1.54321,2.179 10.70312,-7.1738 10.72466,-10.9506 17.02087,-14.5938 25.2168,-14.5938 6.74052,0 10.92043,2.852 14.33008,9.7754 2.23074,4.5297 2.58425,7.04 2.89258,20.5957 l 0.35156,15.4395 5.98633,1.2422 c 5.45907,1.1333 6.26102,1.6896 9.09179,6.3144 1.70738,2.7894 4.37571,6.9365 5.93165,9.2149 l 2.83007,4.1426 7.19141,-6.5899 c 8.30209,-7.6074 11.64046,-8.3181 18.19336,-3.8711 5.32633,3.6145 7.60888,3.4301 10.89844,-0.8828 l 2.74609,-3.6035 -2.32617,-5.9141 c -1.82589,-4.6404 -2.4327,-9.0036 -2.81641,-20.2578 -0.90173,-26.4485 4.3733,-40.5827 17.67969,-47.3711 9.43996,-4.8159 19.44412,-2.0291 37.25195,10.3789 l 7.86133,5.4766 3.55859,-3.4082 c 1.95735,-1.8747 5.63932,-5.1952 8.18165,-7.3789 2.54233,-2.1838 4.62304,-4.7258 4.62304,-5.6504 0,-0.9247 -1.26795,-3.8441 -2.8164,-6.4863 -3.51234,-5.9934 -3.03611,-8.0932 3.31445,-14.627 5.64486,-5.8078 6.05624,-7.7123 2.20703,-10.2344 -3.38966,-2.221 -24.83807,-9.0687 -40.47461,-12.9218 -6.4451,-1.5882 -13.50226,-3.3491 -15.68359,-3.9121 -3.56595,-0.9206 -6.19044,-3.7178 -4.79492,-5.1133 0.29517,-0.2952 9.48487,-2.6342 20.41992,-5.1973 53.55832,-12.5536 67.5591,-22.3853 71.49804,-50.1992 2.01699,-14.2426 -2.34427,-33.5845 -10.34179,-45.8633 -5.4706,-8.3991 -31.15992,-33.4658 -41.13086,-40.1348 -13.67001,-9.1431 -18.3445,-10.5337 -35.49219,-10.5527 z m -2.67187,52.7559 c 1.72059,-0.09 3.32483,0.6295 4.84765,2.1523 2.91961,2.9196 3.09109,13.8646 0.27149,17.3145 -3.55362,4.348 -12.91833,3.8217 -15.42774,-0.8672 -2.45933,-4.5953 -1.40092,-9.5756 3.02344,-14.2266 2.66815,-2.8048 5.07296,-4.2576 7.28516,-4.373 z m 27.02539,18.6875 c 1.63345,-0.013 2.73308,0.6627 4.52539,2.455 2.6362,2.6362 2.86993,3.5108 2.41406,9.0079 -0.40781,4.9177 -1.07062,6.5733 -3.45117,8.621 -3.39679,2.9218 -4.25971,3.0086 -9.08789,0.9102 -9.06291,-3.9388 -6.39563,-18.7405 3.74218,-20.7656 0.70864,-0.1416 1.31294,-0.2241 1.85743,-0.2285 z m -49.12305,5.5781 c 1.21792,0.054 1.93342,1.9102 1.94336,5.4141 0.0264,9.3341 5.18006,23.2219 10.44922,28.1562 1.7228,1.6133 4.97709,3.7032 7.23047,4.6445 3.86276,1.6136 4.40535,1.5778 9.50781,-0.6172 2.97656,-1.2805 7.73825,-3.9821 10.58203,-6.0039 2.84377,-2.0219 6.02937,-3.6757 7.07812,-3.6757 5.53876,0 -1.92831,9.0761 -11.74023,14.2714 -6.61862,3.5045 -9.62849,4.1368 -14.9668,3.1387 -12.40342,-2.319 -21.89335,-16.0105 -24.15039,-34.8457 -0.60064,-5.0124 -0.37037,-6.448 1.375,-8.6035 1.05028,-1.297 1.96066,-1.9116 2.69141,-1.8789 z m -22.55274,70.5234 c 2.41883,0.082 4.91345,0.6752 7.43165,1.7891 6.37118,2.8182 9.42759,7.5687 9.43359,14.6621 0.005,6.0327 -1.68789,9.7859 -6.46094,14.3242 -2.94131,2.7967 -4.37504,3.2829 -10.70117,3.6289 -6.26646,0.3427 -7.84583,0.034 -11.11133,-2.164 -10.0912,-6.7941 -10.00201,-20.2565 0.18945,-28.3965 3.367,-2.6893 7.18738,-3.9796 11.21875,-3.8438 z m -26.62109,42.5176 c 4.0451,0.089 8.21955,1.6336 11.93945,4.7637 6.6712,5.6135 8.32148,13.2888 4.47657,20.8222 -2.35588,4.616 -4.63493,6.8386 -9.57813,9.3418 -8.18279,4.1436 -18.89435,0.2554 -23.07226,-8.375 -2.77714,-5.7368 -2.83644,-9.7212 -0.22657,-15.4668 3.33373,-7.3391 9.71911,-11.2343 16.46094,-11.0859 z m -18.05859,121.5488 c -2.37454,0.084 -4.90172,1.0944 -8.36719,2.8477 -16.76132,8.48 -32.51924,25.8902 -42.27344,46.7051 -5.41971,11.5654 -6.69868,18.6732 -6.14648,34.1718 0.41359,11.6085 0.71482,13.0543 4.19336,20.1114 6.41629,13.0172 21.25256,26.8552 40.18359,37.4824 9.21311,5.172 11.96484,7.3482 11.96484,9.4629 0,2.3118 -6.51875,1.7729 -16.42773,-1.3574 -12.09409,-3.8205 -33.06432,-12.7635 -40.68359,-17.3516 -3.42968,-2.0653 -6.42995,-3.7559 -6.66797,-3.7559 -0.85451,0 1.09788,6.2865 7.77148,25.0157 3.73011,10.4684 7.41181,21.7134 8.17969,24.9902 1.17032,4.9941 2.40217,6.9301 7.61719,11.9648 8.19778,7.9145 11.93164,15.3385 11.93164,23.7188 0,11.8229 -3.85765,20.9612 -18.4336,43.6719 -4.05469,6.3176 -7.70552,12.5577 -8.11523,13.8672 -0.99307,3.1739 1.21104,4.2284 10.7793,5.1601 9.20808,0.8966 14.29355,2.3833 15.06836,4.4024 0.31772,0.828 0.91726,4.5177 1.33398,8.2011 0.74233,6.5613 0.81577,6.6836 3.59766,5.9532 7.70985,-2.0243 13.09421,-1.8521 16.97265,0.5449 l 3.84766,2.3789 2.29883,-5.2656 c 6.96587,-15.9477 8.75428,-19.1312 13.30664,-23.6836 4.53647,-4.5365 5.42527,-4.9668 10.25976,-4.9668 11.80697,0 26.76546,11.7152 31.91602,24.998 l 2.53516,6.543 h 5.46093 c 3.38121,0 6.90537,0.805 9.25196,2.1133 6.42803,3.5837 7.5957,2.6843 7.5957,-5.8477 0,-5.537 3.47762,-11.3162 8.16601,-13.5703 2.60477,-1.2524 4.29245,-1.3001 9.20313,-0.2617 l 6.01367,1.2715 2.89649,-3.5235 c 3.48084,-4.2354 4.35211,-2.2093 -11.20704,-26.0273 -6.5074,-9.9616 -12.55987,-20.1789 -13.45117,-22.7051 -2.64376,-7.4932 -2.07703,-13.762 2.01563,-22.2969 7.475,-15.5885 20.23052,-23.9473 40.4082,-26.4785 5.16663,-0.6482 5.58092,-0.9487 8.4043,-6.1191 1.63327,-2.991 2.98014,-5.9587 2.99414,-6.5957 0.014,-0.6369 -1.68757,-1.9762 -3.78125,-2.9746 -4.42102,-2.1083 -4.61217,-3.3664 -1.99414,-13.1915 0.99734,-3.743 1.50343,-7.618 1.12304,-8.6093 -1.58489,-4.1301 -22.8606,-0.644 -49.01562,8.0312 -8.89384,2.9499 -16.60314,5.0977 -17.13086,4.7715 -2.39662,-1.4812 -0.37147,-4.0662 6.92578,-8.8398 16.89582,-11.0525 29.85463,-27.5937 33.95703,-43.3438 5.7841,-22.2067 -2.37897,-52.0796 -21.23828,-77.7148 -6.52947,-8.8754 -7.38823,-9.6604 -8.75586,-8.0078 -3.26921,3.9504 -9.78775,5.7888 -20.54883,5.7988 -17.852,0.014 -28.17734,-3.5043 -39.69921,-13.5254 -6.74616,-5.8674 -10.27877,-8.3034 -14.23633,-8.1641 z m 13.69531,42.3946 c 5.32906,0 10.875,6.0184 10.875,11.8027 0,5.788 -1.90164,9.7518 -5.5957,11.6621 -4.8763,2.5216 -9.39471,1.9549 -12.97852,-1.6289 -6.71035,-6.7103 -1.37686,-21.8359 7.69922,-21.8359 z m 31.7207,0.1328 c 2.26505,-0.1415 4.46937,1.0377 6.9961,3.5644 3.12994,3.1299 3.69922,4.4635 3.69922,8.6836 0,3.9098 -0.64678,5.703 -2.99219,8.3047 -5.08148,5.6368 -12.81696,5.3622 -17.52344,-0.6211 -4.00912,-5.0968 -2.39993,-11.6262 4.24414,-17.2168 2.01592,-1.6963 3.81447,-2.6048 5.57617,-2.7148 z m 14.23633,40.7695 c 0.81258,0 1.57178,0.6055 2.31836,1.7891 3.04961,4.8347 -9.95702,20.6863 -20.08203,24.4746 -12.12763,4.5375 -24.80005,3.7373 -34.94336,-2.2071 -6.85275,-4.016 -11.74219,-10.1087 -11.74219,-14.6328 0,-5.2303 3.03475,-4.6043 7.61524,1.5703 4.90538,6.6125 9.54886,9.6684 17.05468,11.2266 14.60438,3.0319 27.6105,-3.3291 35.07618,-17.1523 1.84458,-3.4153 3.34882,-5.0743 4.70312,-5.0684 z m -32.03711,80.9356 c 11.64345,-0.059 19.5864,10.3806 16.53125,21.7265 -1.43642,5.3346 -6.88172,11.7714 -11.64062,13.7598 -8.31448,3.474 -17.72006,0.7449 -22.08203,-6.4063 -8.04919,-13.1962 1.29316,-28.999 17.1914,-29.08 z m 4.02735,48.9843 c 1.22954,-0.01 2.51962,0.057 3.875,0.1875 8.68868,0.8349 12.98046,6.51 12.98046,17.168 0,8.5745 -4.01504,14.4481 -12.21679,17.875 -15.7487,6.5802 -30.37979,-9.1447 -22.63477,-24.3262 3.78212,-7.4135 9.3893,-10.8573 17.9961,-10.9043 z"
       transform="matrix(7.5,0,0,-7.5,0,15360)" />
    <path
       allowFill="true"
       fill="#dc3545"
       style="stroke-width:2.39278"
       d="m 138.49468,970.41182 c -0.70109,-0.44605 -1.22931,-3.18441 -1.18461,-6.14116 0.0706,-4.67197 -0.34937,-5.7204 -3.37429,-8.42317 -1.90023,-1.69785 -4.42745,-3.087 -5.61604,-3.087 -1.82139,0 -0.77497,-2.26518 6.65732,-14.41105 4.85012,-7.92607 11.00214,-17.48128 13.67116,-21.23379 19.22818,-27.03385 47.26113,-35.99476 73.22751,-23.40762 6.65148,3.22428 10.3799,6.17855 20.1986,16.00464 12.07101,12.0801 19.72018,22.05373 18.13196,23.64196 -1.333,1.33299 -40.36376,15.76479 -47.95776,17.73259 -5.25843,1.36259 -10.87526,1.69526 -24.46594,1.44904 l -17.64057,-0.31958 -8.30811,4.09587 c -5.6242,2.77272 -9.88258,5.84706 -13.18193,9.51673 -4.63667,5.1571 -7.33839,6.376 -10.1573,4.58254 z"
       id="path67"
       transform="matrix(7.5,0,0,-7.5,0,15360)" />
  </g>
  </g>
   <g  allowDrag="true">
  <g
      
     id="g66"
     style="display:inline"
     transform="matrix(0.07607025,0,0,-0.07607025,0,1160.3539)">
    <path
       allowFill="true"
    fill="#17a2b8"
       id="path62"
       style="stroke-width:2.39278"
       d="m 561.14258,195.83789 c -2.59303,0.099 -5.37944,0.73067 -8.08399,1.96094 -7.39397,3.36344 -7.67004,4.12733 -9.26367,25.70898 -1.62393,21.99185 -3.16117,32.34752 -5.1289,34.53125 -2.7529,3.05508 -11.65617,2.60164 -15.02344,-0.76562 -1.46829,-1.4683 -2.66992,-3.31853 -2.66992,-4.11133 0,-8.79384 -6.34298,-48.84242 -8.01172,-50.58398 -1.8346,-1.91465 -15.40947,-2.30133 -17.2168,-0.49024 -1.12238,1.12472 -1.41797,11.33078 -1.41797,48.94336 0,43.39649 -0.1764,48.08023 -2.0332,53.95703 -3.43235,10.86341 -0.0723,24.31951 7.79883,31.23047 3.65276,3.20717 4.2274,3.35857 10.73828,2.83594 3.78358,-0.30372 8.10398,-1.35402 9.59961,-2.33399 3.24349,-2.12521 3.42786,-5.50443 1.48047,-26.95703 -1.40028,-15.42571 -0.67049,-19.23552 4.09375,-21.40625 3.41085,-1.55409 7.55982,-0.59826 12.10937,2.78906 6.52191,4.85584 10.2446,15.78111 11.67774,34.26954 0.50949,6.57281 1.25471,9.89349 2.4414,10.87695 1.83639,1.52187 10.80291,1.78795 15.93164,0.47266 l 3.14258,-0.80665 -0.75391,-10.00195 c -0.41519,-5.50098 -1.75614,-17.3435 -2.97851,-26.3164 -2.856,-20.96478 -2.37579,-48.13516 1.17187,-66.34571 3.23397,-16.60039 4.49644,-27.14478 3.7168,-31.04297 -0.85359,-4.26795 -5.61564,-6.63192 -11.32031,-6.41406 z m 74.5332,1.56641 -20.09961,0.043 c -30.89732,0.0654 -36.31387,2.44467 -38.10937,16.74414 -0.53577,4.26691 -2.29435,14.96055 -3.90625,23.76367 -3.98389,21.75732 -3.88571,38.07948 0.42578,71.22265 1.77182,13.62021 3.50838,25.05136 3.85937,25.40235 0.58836,0.58836 19.75713,3.02824 31.22461,3.97461 13.66505,1.12773 15.2462,0.93349 18.45508,-2.27539 3.49539,-3.4954 6.08862,-13.41378 4.91016,-18.7793 l -0.72657,-3.30859 -8.32812,0.6582 c -9.87641,0.78062 -12.27105,-0.17632 -16.89258,-6.75195 -3.55405,-5.05679 -5.33969,-15.62283 -2.89648,-17.13282 0.71068,-0.43922 6.49967,-1.43565 12.86523,-2.21484 14.00243,-1.71399 15.45627,-2.87618 15.44727,-12.3418 -0.0136,-13.727 -3.74512,-18.64062 -14.15821,-18.64062 -4.54136,0 -6.96304,-0.57154 -8.82617,-2.08008 -2.45166,-1.98504 -2.56836,-2.69533 -2.56836,-15.73047 0,-17.96542 -0.79082,-17.22411 18.22657,-17.0625 11.01049,0.0936 14.81989,-0.22395 15.20312,-1.26367 0.81921,-2.2226 -1.23182,-18.25645 -2.73437,-21.37695 z m -276,3.49414 -14.79101,0.71094 c -8.1349,0.39041 -27.02561,1.20214 -41.98047,1.80468 -24.85456,1.0014 -35.58385,2.02135 -37.08594,3.52344 -1.00357,1.00356 -2.46132,25.29006 -3.20313,53.35352 -0.6417,24.27634 -0.46095,29.48134 1.59766,45.83398 1.27731,10.14634 3.04153,21.8932 3.91992,26.10352 0.87839,4.21033 1.59717,7.98856 1.59766,8.39648 0.002,1.60923 6.60336,5.30809 12.12305,6.79297 3.20294,0.86164 9.1282,1.59927 13.16601,1.63867 7.29351,0.0711 7.34045,0.0515 7.37305,-2.91992 0.13836,-12.60221 2.32443,-49.48446 3.13281,-52.85547 2.01944,-8.42122 9.90704,-12.6137 23.95117,-12.73437 3.92924,-0.0338 8.85749,-0.65283 10.95117,-1.375 4.64345,-1.60166 4.73278,-3.4049 0.72071,-14.33399 l -2.79492,-7.61523 -5.2168,-0.7168 c -2.86966,-0.39438 -10.47957,-1.05197 -16.91016,-1.46289 l -11.6914,-0.74805 V 242.9082 c 0,-12.57714 0.70219,-14.77658 5.51172,-17.26367 4.42308,-2.28726 22.34994,-3.71686 37.34179,-2.97851 l 12.28516,0.60351 0.60547,-6.67773 c 0.33303,-3.67272 0.33451,-8.70609 0.002,-11.18555 z m 95.82031,21.33008 c -7.05248,0.30343 -14.3157,3.13025 -20.75195,8.43554 -9.62135,7.93074 -11.60342,16.19439 -11.63672,48.53516 l -0.0215,20.89062 3.37109,5.75782 c 7.00829,11.97336 9.91599,14.69054 17.29492,16.16601 2.09368,0.41865 8.42288,0.81792 14.06641,0.88672 13.48394,0.16437 17.86329,-1.81966 23.87109,-10.81641 7.27423,-10.89325 8.15189,-15.06984 7.39649,-35.21289 -1.0105,-26.94579 -4.85846,-40.02576 -14.10156,-47.9375 -5.59336,-4.78771 -12.4358,-7.00851 -19.48829,-6.70507 z m -98.90039,6.36914 c -8.18108,0.4962 -10.5836,5.14664 -11.5039,19.35156 -0.49869,7.69739 -0.19208,10.83202 1.66211,16.9707 1.8675,6.18272 2.46564,12.41781 3.3457,34.85352 0.58951,15.02803 0.88686,28.24398 0.66016,29.36719 -0.22671,1.12321 -0.66102,6.29548 -0.96485,11.49414 l -0.55273,9.45117 3.47851,0.48047 c 1.9125,0.26439 5.18953,0.30038 7.28321,0.0781 2.09368,-0.22226 5.58866,-0.40901 7.76562,-0.41601 7.1328,-0.0216 8.41449,-2.15627 10.13086,-16.8711 1.89205,-16.22096 2.86776,-19.0332 6.60156,-19.0332 3.81792,0 7.0593,3.79521 13.59766,15.92383 l 5.50391,10.21093 12.18945,-0.70898 c 6.70387,-0.39074 12.39714,-0.89277 12.65234,-1.11523 l 0.002,-0.002 c 0.23416,-0.24946 -2.08283,-4.04699 -5.16602,-8.46289 -3.09528,-4.43323 -7.58635,-12.11176 -9.98047,-17.0625 -5.73201,-11.85307 -5.80529,-16.5509 -0.41797,-26.71094 6.33663,-11.95103 6.3393,-25.5291 0.008,-39.8457 l -2.65235,-5.99805 -4.18164,1.49024 c -7.50332,2.67535 -25.64223,1.4016 -34.38476,-2.41406 -3.89234,-1.6988 -4.51162,-2.67987 -5.38086,-8.50782 -0.2675,-1.79349 -1.2892,-2.23277 -5.82227,-2.49804 -1.41712,-0.0829 -2.70432,-0.0963 -3.87305,-0.0254 z m 27.04297,22.8125 c 0.84739,-0.0164 1.78608,0.004 2.82813,0.0547 6.14477,0.29691 6.81312,0.587 9.05664,3.92383 3.12722,4.65121 5.51576,14.99242 4.02929,17.44336 -0.59849,0.98682 -2.79768,2.64639 -4.88867,3.68945 -4.40966,2.19973 -12.88022,3.48516 -14.70508,2.23047 -1.54486,-1.06219 -3.64062,-11.95914 -3.64062,-18.93164 0,-6.35779 1.38862,-8.295 7.32031,-8.41015 z m 74.73633,1.16015 c 0.82941,0.0237 1.59233,0.35263 2.6875,0.95703 5.08289,2.80515 7.1463,8.88784 7.1543,21.09766 0.008,11.87641 -1.34245,17.23934 -5.6211,22.32422 -2.23808,2.6598 -3.5513,3.23633 -7.375,3.23633 -9.53075,0 -13.09514,-6.29098 -12.35351,-21.80274 0.59394,-12.42278 4.57347,-21.11401 11.13672,-24.32617 2.12892,-1.04193 3.3047,-1.5168 4.37109,-1.48633 z"
       transform="matrix(7.5,0,0,-7.5,0,15360)" />
    <path
       d="m 3020,14871 c -20,-5 -36,-29 -78,-114 -41,-82 -58,-107 -73,-107 -11,0 -33,-7 -50,-16 -32,-16 -32,-21 -3,-93 8,-18 14,-48 14,-66 0,-76 -58,-179 -127,-226 -41,-29 -55,-60 -33,-74 6,-4 -3,-19 -21,-36 -27,-25 -31,-34 -25,-62 8,-38 30,-57 68,-57 21,0 31,-6 38,-24 12,-31 37,-25 79,18 38,39 76,39 85,0 5,-17 13,-24 30,-24 19,0 25,-6 29,-32 4,-27 -1,-39 -28,-68 -18,-19 -50,-60 -72,-91 -57,-82 -90,-119 -107,-119 -14,0 -15,12 -10,88 9,120 4,125 -120,118 -50,-2 -206,-9 -346,-14 -140,-6 -267,-15 -281,-20 -15,-6 -30,-19 -34,-29 -12,-28 -27,-454 -21,-598 6,-155 40,-404 60,-442 25,-49 74,-225 101,-363 33,-165 100,-410 126,-462 24,-47 52,-66 111,-74 65,-9 184,13 213,40 13,11 45,69 70,128 26,59 54,113 62,120 20,17 36,-5 64,-91 36,-111 77,-179 114,-191 47,-15 170,13 190,44 8,12 26,74 40,137 31,136 95,371 105,382 13,15 21,-233 12,-368 -13,-186 -2,-205 111,-205 104,1 308,24 335,39 14,7 22,21 22,38 0,26 0,26 23,-8 27,-41 62,-47 136,-25 45,13 55,13 86,0 20,-8 67,-14 115,-14 77,0 83,2 111,29 25,25 29,37 29,85 0,30 -5,90 -11,132 -11,71 -10,78 6,91 25,18 70,17 86,-3 8,-10 15,-62 19,-146 6,-127 8,-132 34,-155 33,-28 37,-28 109,-3 47,17 65,19 95,10 20,-5 70,-10 110,-10 68,0 76,2 103,29 32,33 36,67 20,194 -9,70 -4,147 10,147 4,0 22,-37 39,-82 31,-81 88,-197 113,-229 29,-37 104,-51 162,-29 52,20 57,54 69,430 l 12,346 29,59 c 36,74 101,140 184,187 l 65,37 25,-20 c 16,-13 33,-18 51,-14 23,5 28,0 57,-58 40,-81 61,-180 43,-202 -17,-21 -40,-19 -40,4 0,50 -85,69 -146,32 -62,-38 -72,-67 -154,-431 -32,-145 -61,-226 -100,-280 -11,-15 -20,-42 -20,-58 0,-29 2,-30 63,-41 106,-18 162,-15 194,13 27,24 28,27 26,112 -3,97 9,124 54,124 28,0 57,-42 79,-118 20,-67 53,-106 108,-127 58,-22 87,-17 106,20 8,17 16,32 18,34 1,3 12,-5 25,-17 53,-50 190,-75 262,-48 58,23 75,48 74,111 0,69 -19,116 -52,135 -25,14 -30,13 -56,-1 -27,-16 -31,-16 -58,0 -51,32 -54,40 -38,113 26,124 66,178 132,178 64,0 83,24 83,103 0,69 -18,107 -51,107 -17,0 -18,3 -9,20 6,11 11,59 11,105 0,46 4,87 10,90 5,4 9,16 9,28 0,43 48,123 147,247 145,182 249,266 320,258 35,-4 87,-71 109,-141 21,-69 29,-213 14,-252 l -11,-30 -62,67 c -34,37 -73,72 -86,78 -36,18 -147,15 -177,-5 -33,-21 -43,-50 -60,-170 -18,-129 -47,-214 -92,-273 -19,-26 -39,-65 -43,-87 -13,-63 -11,-583 2,-607 22,-42 125,-62 179,-35 24,12 25,17 30,132 5,130 8,135 65,121 18,-5 26,-17 35,-58 21,-87 50,-157 73,-173 31,-22 99,-19 130,5 l 25,20 -1,249 -2,249 23,-9 c 13,-5 66,-9 117,-9 160,0 167,-18 145,-342 -10,-145 -11,-190 -1,-201 8,-10 43,-16 114,-20 56,-3 125,-10 152,-16 28,-5 108,-10 178,-10 124,-1 129,0 154,25 21,21 24,32 20,62 -9,53 -28,65 -102,70 -64,4 -66,5 -63,30 3,26 30,41 100,56 35,8 47,48 27,85 -12,21 -24,27 -64,31 -53,5 -63,18 -51,66 6,21 12,24 54,24 79,0 87,-13 85,-120 -3,-96 18,-232 39,-257 10,-12 30,-14 113,-8 131,9 139,14 131,73 -15,99 -18,162 -9,162 5,0 28,-40 51,-89 54,-114 80,-146 134,-159 45,-10 165,-5 173,8 2,4 28,-4 56,-17 62,-30 162,-39 273,-25 74,10 80,9 125,-15 58,-31 128,-28 166,7 47,45 25,85 -76,135 -109,55 -104,36 -104,415 l -1,325 -26,56 c -36,79 -85,115 -152,112 l -51,-2 30,24 c 17,13 33,24 36,25 3,0 14,18 24,39 27,62 15,118 -41,180 -39,43 -45,56 -50,110 -10,89 -27,80 -40,-20 -5,-35 -16,-62 -34,-83 -34,-39 -50,-86 -50,-146 0,-71 17,-110 56,-126 19,-8 34,-21 34,-30 0,-12 10,-14 58,-8 44,5 66,2 90,-10 43,-22 47,-34 19,-56 -13,-11 -31,-33 -39,-51 -14,-27 -14,-39 -2,-88 16,-66 18,-130 4,-151 -18,-28 -31,5 -40,99 -5,50 -16,114 -25,142 -16,48 -18,50 -46,44 -27,-6 -31,-3 -49,37 -28,64 -51,82 -97,75 -82,-14 -126,-75 -127,-178 l -1,-69 h -68 c -106,0 -107,-2 -107,-125 0,-58 -4,-105 -9,-105 -4,0 -26,37 -47,82 -21,45 -50,105 -64,133 l -25,50 -119,-1 c -139,-2 -140,-2 -150,-96 -3,-34 -7,-62 -9,-63 -1,-1 -23,-5 -49,-7 l -48,-6 v 32 c 0,17 -5,48 -11,69 -15,55 -52,68 -229,78 -232,13 -387,10 -465,-7 -38,-9 -77,-15 -85,-15 -54,3 -154,1 -170,-4 -28,-9 -32,-28 -39,-180 l -6,-140 -26,-3 c -34,-4 -39,13 -39,148 0,122 -9,143 -69,161 l -39,11 19,43 c 16,36 28,95 55,271 2,18 14,44 25,58 18,23 28,26 77,26 72,0 98,-14 168,-90 89,-95 124,-73 124,80 0,134 -46,271 -106,319 -82,65 -214,-11 -377,-217 -114,-144 -150,-196 -168,-244 l -13,-38 -22,21 c -18,17 -21,26 -13,46 5,13 9,41 9,62 0,51 25,108 50,116 67,21 143,143 139,224 -1,25 2,54 6,64 11,27 -1,150 -25,240 -53,208 -134,294 -258,273 -50,-8 -149,-58 -219,-111 -33,-24 -71,-47 -86,-50 -15,-4 -36,-18 -46,-31 -11,-14 -22,-21 -25,-15 -9,14 -218,103 -225,96 -3,-4 -6,-39 -6,-78 1,-76 18,-123 72,-196 21,-27 22,-31 7,-23 -11,5 -55,17 -99,25 -133,26 -153,27 -166,11 -15,-18 -9,-19 106,-34 50,-6 97,-14 105,-16 37,-13 -104,-54 -184,-54 -41,0 -65,-15 -50,-30 9,-9 32,-9 89,0 42,6 78,10 79,8 2,-2 6,-15 10,-30 5,-24 1,-30 -41,-54 -84,-47 -122,-76 -129,-96 -10,-33 5,-33 39,0 35,34 49,40 46,20 -5,-37 0,-41 50,-34 l 49,6 -19,-37 c -21,-41 -25,-88 -8,-99 6,-3 24,6 40,22 16,15 29,24 30,18 0,-5 2,-44 2,-88 l 2,-78 -68,-44 c -79,-51 -147,-118 -184,-181 -23,-40 -27,-43 -43,-28 -24,22 -117,20 -156,-4 -34,-21 -39,-39 -51,-203 -3,-49 -10,-88 -14,-88 -5,0 -9,6 -9,13 0,17 -95,212 -121,248 -21,30 -21,32 -4,67 10,21 20,66 22,102 4,54 2,69 -14,89 -18,22 -22,23 -78,13 -33,-5 -69,-6 -81,-2 -21,9 -41,46 -46,90 -3,25 -2,25 83,30 51,3 93,11 102,19 39,32 46,165 12,232 -20,39 -44,49 -109,49 -66,0 -69,5 -64,120 l 3,75 117,-4 c 111,-3 117,-2 128,19 12,23 6,123 -11,192 -12,47 -32,58 -104,58 -50,0 -56,2 -50,18 18,46 27,113 21,147 -9,44 -54,95 -85,95 -31,0 -26,22 14,60 46,45 48,86 5,127 -16,15 -30,38 -30,50 0,35 -31,103 -46,103 -18,0 -18,-38 -1,-59 7,-9 18,-28 24,-42 10,-24 9,-27 -23,-38 -23,-8 -34,-19 -34,-32 0,-15 -7,-19 -32,-19 -41,0 -105,-37 -90,-52 6,-6 19,-5 38,5 16,8 39,18 52,21 19,7 22,4 22,-23 0,-21 9,-36 30,-53 l 31,-24 -26,-35 c -58,-80 -65,-94 -65,-139 1,-25 7,-56 15,-70 21,-36 20,-37 -35,-49 -28,-6 -65,-18 -82,-27 -29,-15 -31,-15 -58,11 -37,36 -100,43 -168,21 -27,-9 -56,-25 -65,-34 -17,-20 -34,-134 -42,-291 -4,-63 -11,-123 -16,-133 -11,-21 -52,-24 -66,-5 -6,6 -15,59 -22,117 -39,354 -68,427 -199,503 -55,32 -77,63 -62,86 6,10 12,11 30,1 37,-20 47,1 28,59 -13,42 -14,51 -2,55 20,8 17,50 -6,96 -11,22 -20,43 -20,48 0,9 133,77 198,102 17,7 32,19 32,26 0,19 -1,19 -135,-35 -120,-48 -120,-48 -147,-30 -14,11 -31,19 -37,19 -14,0 -14,1 9,51 13,30 20,66 20,115 0,91 -14,134 -45,134 -28,0 -80,-22 -124,-53 l -34,-23 -42,41 c -86,86 -262,136 -375,106 z m 254,-65 c 84,-41 129,-82 106,-96 -65,-40 -338,-77 -413,-56 l -37,11 41,87 c 47,98 47,98 158,93 61,-3 88,-10 145,-39 z m 331,-100 c 8,-73 1,-118 -26,-162 -26,-43 -24,-51 19,-73 47,-24 141,-172 99,-155 -24,9 -28,-9 -13,-65 13,-50 13,-51 -10,-51 -13,0 -27,-8 -33,-17 -8,-15 -12,-16 -22,-5 -22,20 -75,14 -107,-13 -38,-32 -62,-92 -71,-175 l -7,-65 -20,32 c -16,25 -23,30 -32,21 -7,-7 -12,-20 -12,-30 0,-24 -28,-23 -65,3 -74,50 -151,82 -198,83 -45,1 -51,-2 -79,-36 -16,-21 -34,-38 -38,-38 -5,0 -10,15 -12,33 -2,27 -7,32 -28,32 -21,0 -26,6 -28,33 -3,27 -7,32 -21,27 -15,-4 -17,-1 -14,19 3,13 0,27 -6,30 -6,4 3,24 24,52 36,47 44,81 24,101 -9,9 -4,18 20,38 35,30 42,74 14,96 -39,33 -133,151 -133,168 0,28 77,45 145,31 44,-9 56,-17 76,-48 23,-36 27,-37 99,-44 84,-8 152,3 220,36 38,18 47,29 62,70 9,26 25,57 35,68 19,21 100,67 120,68 7,0 14,-25 18,-64 z m -200,-48 c -19,-67 -131,-114 -245,-102 -64,6 -72,9 -85,34 l -14,27 87,6 c 51,3 118,16 162,30 97,32 103,32 95,5 z m -495,-231 43,-48 -29,-30 c -29,-31 -122,-84 -131,-76 -2,3 10,32 27,64 17,33 34,79 37,102 3,23 7,40 8,39 1,-2 21,-25 45,-51 z m 1700,-100 c 14,-25 13,-28 -14,-56 -49,-52 -86,-7 -44,55 26,38 37,39 58,1 z m -1703,-73 c 5,-16 -34,-62 -68,-80 -30,-15 -61,-11 -126,19 -21,10 -21,10 11,32 21,14 43,21 59,18 13,-3 38,2 53,11 32,17 65,17 71,0 z m 708,-119 c 36,-35 32,-72 -20,-171 -25,-47 -45,-92 -45,-100 0,-21 -33,-17 -58,6 -45,43 -20,215 39,264 38,32 53,33 84,1 z m -840,-5 c 22,-24 32,-25 51,-5 20,20 38,19 30,-1 -3,-9 -6,-19 -6,-24 0,-4 -20,-24 -46,-45 -42,-34 -46,-36 -63,-21 -9,9 -32,19 -49,22 -25,5 -32,11 -32,31 0,19 9,28 43,43 52,24 50,24 72,0 z m 1854,1 c 26,-26 35,-79 22,-127 -16,-59 -33,-77 -72,-76 -40,1 -65,28 -75,78 -9,47 2,82 36,115 33,34 62,37 89,10 z m -863,-121 c 34,-25 55,-51 66,-79 l 16,-41 h -58 c -78,0 -107,-14 -120,-59 -5,-20 -10,-46 -10,-58 0,-13 -3,-23 -7,-23 -17,0 -73,66 -73,86 0,13 20,64 45,115 25,51 45,99 45,106 0,18 26,5 96,-47 z m -556,-41 c 93,-60 122,-71 161,-66 24,3 45,0 58,-10 27,-18 21,-29 -21,-37 -18,-3 -49,-22 -68,-41 l -36,-35 -17,34 c -18,39 -42,53 -142,86 -38,12 -76,27 -82,33 -20,15 -15,44 10,62 29,21 79,12 137,-26 z m 2896,-24 c 54,-35 124,-245 124,-370 v -71 l -34,4 c -32,4 -34,5 -39,57 -10,99 -66,175 -128,175 -32,0 -41,5 -59,35 -40,64 -74,85 -143,85 -58,1 -61,2 -42,16 38,30 158,85 199,93 45,8 86,0 122,-24 z m -2964,-81 c 45,-15 92,-37 105,-50 34,-34 31,-87 -9,-146 -34,-50 -50,-61 -42,-30 7,26 -36,84 -76,104 -39,19 -181,42 -217,35 -13,-2 -23,-2 -23,1 0,12 84,114 109,131 25,18 26,18 49,1 13,-10 60,-31 104,-46 z m 1121,25 c 12,-7 25,-17 29,-23 15,-21 8,-113 -17,-231 -34,-160 -42,-319 -22,-460 30,-210 40,-326 28,-338 -15,-15 -115,-21 -140,-8 -17,10 -21,21 -21,64 0,78 -18,177 -41,224 -37,76 -122,108 -155,58 -15,-23 -16,-38 -5,-139 6,-61 11,-131 11,-155 0,-39 -3,-43 -35,-57 -19,-7 -55,-14 -81,-14 -40,0 -51,5 -79,34 -22,23 -38,56 -50,100 -18,65 -18,67 5,142 21,71 22,87 15,223 -5,80 -8,231 -9,334 -1,222 -1,221 96,215 32,-2 60,-7 63,-10 7,-7 32,-165 45,-283 13,-124 16,-131 49,-145 44,-18 84,-9 98,21 7,15 17,98 23,185 14,232 14,234 87,260 47,16 78,17 106,3 z m 516,-13 c 13,-16 32,-162 24,-184 -5,-12 -24,-13 -113,-7 -139,9 -140,9 -140,-125 0,-121 6,-130 89,-130 69,0 85,-13 101,-85 13,-57 5,-118 -17,-137 -9,-7 -53,-15 -101,-18 -103,-6 -113,-15 -94,-87 8,-30 24,-59 43,-76 28,-26 35,-28 102,-25 l 72,3 3,-30 c 7,-53 -17,-134 -44,-152 -22,-14 -39,-14 -167,-3 -78,7 -158,16 -177,19 l -35,7 -12,109 c -7,61 -20,165 -29,233 -20,146 -15,243 21,429 14,70 25,144 25,164 0,79 76,106 301,108 106,1 139,-2 148,-13 z m -2071,-66 c 2,-25 1,-63 -2,-85 l -6,-40 -136,3 c -152,3 -233,-9 -260,-40 -16,-16 -19,-36 -19,-107 v -86 l 50,-2 c 28,-2 87,-5 133,-9 79,-6 82,-7 82,-30 0,-14 9,-43 21,-65 40,-79 20,-96 -109,-98 -90,-1 -145,-25 -161,-71 -14,-43 -23,-154 -25,-312 l -1,-133 -60,1 c -80,0 -171,28 -190,58 -10,15 -26,99 -42,222 -25,195 -25,204 -15,493 6,161 15,298 20,303 14,14 172,28 337,29 83,0 173,4 200,9 28,4 79,7 115,6 l 65,-1 z m 2820,-6 c 50,-22 76,-40 79,-54 4,-15 10,-19 22,-14 35,15 59,15 131,0 115,-24 202,-72 290,-161 l 75,-75 -46,6 c -41,6 -48,4 -63,-17 -23,-33 -6,-45 42,-31 56,17 72,15 72,-7 0,-11 -4,-23 -10,-26 -16,-10 -12,-35 6,-35 12,0 15,-6 10,-20 -3,-11 -9,-29 -12,-40 -8,-24 17,-28 36,-5 15,18 19,101 6,128 -8,16 -5,18 25,15 31,-3 34,-6 37,-38 2,-24 -7,-55 -30,-100 -28,-56 -40,-69 -83,-90 -41,-21 -51,-31 -58,-61 -7,-30 -14,-38 -38,-43 -16,-3 -47,-14 -69,-25 -22,-10 -40,-18 -40,-16 0,2 4,15 10,29 14,39 -7,43 -28,6 -23,-43 -54,-82 -46,-57 11,30 -25,20 -44,-13 -19,-33 -60,-47 -90,-31 -11,6 -48,41 -82,78 -73,81 -132,123 -172,123 -21,0 -28,5 -28,19 0,33 -20,35 -51,5 l -29,-28 11,32 c 6,18 27,49 45,69 41,43 47,72 11,48 -20,-13 -118,-38 -124,-31 -1,1 0,11 3,23 3,12 30,38 60,57 52,35 93,81 81,92 -3,3 -14,1 -25,-5 -28,-15 -42,-14 -36,4 8,20 61,35 119,32 39,-2 50,1 50,13 0,11 -10,15 -33,13 -29,-1 -33,2 -29,18 3,12 -11,47 -34,87 -26,46 -42,86 -46,122 l -6,53 29,-7 c 16,-4 62,-23 102,-42 z m -2010,13 c 23,-6 42,-15 42,-19 0,-17 63,-78 81,-78 17,0 19,-8 19,-72 v -73 l -19,30 c -28,44 -81,92 -123,109 -48,20 -154,21 -192,1 -16,-9 -31,-14 -33,-12 -2,3 13,24 32,48 40,49 111,93 135,84 8,-4 34,-11 58,-18 z m 2352,7 c 24,-5 42,-21 74,-65 40,-56 42,-58 78,-52 34,5 38,3 63,-35 15,-22 29,-60 32,-84 l 5,-43 -65,68 c -48,49 -84,76 -138,102 -79,37 -175,65 -222,65 -16,0 -26,4 -22,10 3,6 1,10 -6,10 -26,0 4,14 44,21 58,9 118,10 157,3 z m -2820,-95 c 56,-12 110,-51 110,-80 0,-23 -40,-35 -68,-20 -33,17 -42,13 -42,-19 0,-16 -2,-30 -4,-30 -2,0 -11,-3 -20,-6 -13,-5 -16,2 -16,36 0,34 -3,41 -17,38 -13,-2 -19,-16 -23,-48 l -5,-45 -22,23 c -14,13 -23,34 -23,53 0,17 -4,28 -10,24 -5,-3 -10,-24 -10,-46 0,-26 -4,-39 -14,-39 -26,0 -39,28 -32,70 4,24 2,40 -4,40 -14,0 -30,-35 -30,-64 0,-16 -6,-26 -14,-26 -36,0 -23,76 21,122 25,26 33,28 99,28 40,0 96,-5 124,-11 z m 441,-40 c 126,-38 181,-166 183,-424 1,-139 1,-141 -32,-208 -20,-41 -47,-78 -69,-94 -35,-27 -42,-28 -147,-28 -141,0 -164,12 -221,110 l -40,70 3,180 c 4,217 11,256 59,309 72,81 170,113 264,85 z m -916,-66 c -8,-21 -17,-64 -20,-97 l -7,-58 -36,6 c -21,3 -75,6 -121,6 h -83 l 4,65 c 6,98 29,112 190,114 l 86,1 z m 175,-1 c 0,-45 30,-64 122,-77 93,-14 165,-9 189,12 15,12 19,7 45,-54 24,-57 29,-81 29,-153 0,-79 -2,-89 -32,-134 -45,-68 -45,-118 3,-211 19,-38 48,-86 63,-105 28,-35 51,-74 51,-84 0,-3 -35,-6 -77,-7 -43,0 -87,-4 -98,-9 -18,-7 -25,3 -65,84 -31,62 -54,96 -72,106 -44,24 -58,1 -68,-116 -11,-120 -15,-132 -49,-142 -29,-8 -167,-10 -174,-2 -2,3 0,39 5,80 5,41 7,138 3,215 -4,77 -8,178 -8,225 -2,59 -7,95 -20,117 -28,53 -17,224 18,263 14,16 30,20 77,20 57,0 58,0 58,-28 z m 406,-72 -14,-45 -16,37 c -9,21 -16,39 -16,42 0,4 49,13 57,11 1,-1 -4,-21 -11,-45 z m 5330,-327 c 56,-60 53,-141 -6,-183 l -28,-20 -6,43 c -8,49 -20,72 -33,64 -6,-4 -7,-26 -2,-59 9,-57 7,-63 -16,-54 -48,18 -44,167 6,217 26,26 55,24 85,-8 z m -5906,-39 c 11,-30 15,-85 14,-234 v -195 l -35,-46 c -22,-29 -43,-74 -58,-125 -31,-108 -51,-164 -60,-164 -10,0 -46,81 -92,205 l -34,90 v 195 c 0,226 5,263 42,287 22,15 160,34 198,28 6,-1 17,-19 25,-41 z m 2919,2 c 15,-8 61,-51 101,-96 l 73,-80 -8,-102 c -9,-136 -18,-157 -34,-85 -14,64 -95,237 -111,237 -5,0 -10,-6 -10,-14 0,-22 -26,-26 -43,-8 -44,48 -51,162 -10,162 8,0 27,-7 42,-14 z m -2334,-136 c 42,-83 64,-107 119,-131 72,-32 213,-34 271,-3 22,12 49,31 59,43 11,12 22,21 26,21 4,0 13,-25 19,-57 10,-40 23,-67 50,-96 34,-36 44,-41 93,-45 68,-5 123,12 145,44 13,21 15,42 8,147 -11,156 -10,176 4,190 18,18 62,-12 89,-60 17,-32 25,-68 32,-150 10,-127 15,-141 47,-154 33,-12 109,-11 156,2 51,14 56,6 13,-19 l -34,-20 5,-104 c 6,-134 -3,-152 -73,-156 -69,-4 -76,7 -82,126 -5,110 -11,121 -78,147 -50,19 -88,14 -98,-12 -11,-28 -46,-242 -53,-321 -6,-70 -7,-72 -25,-55 -20,18 -55,21 -130,9 -44,-7 -48,-10 -58,-44 -5,-20 -10,-90 -10,-154 v -117 l -26,14 c -17,9 -44,11 -79,8 -74,-8 -97,7 -93,60 3,45 10,50 91,62 49,8 63,35 47,93 -13,51 -38,68 -112,77 -55,6 -58,8 -64,40 -11,61 -5,68 66,80 l 65,10 -2,70 c -1,59 -5,72 -24,88 -21,17 -35,18 -140,12 l -116,-7 v 53 c 1,55 -25,110 -88,193 -35,46 -85,157 -85,189 0,16 5,38 12,50 11,20 13,19 19,-24 4,-25 19,-70 34,-99 z m 2875,36 c 0,-54 -19,-81 -68,-98 -138,-49 -215,-145 -178,-219 16,-31 15,-34 -9,-69 -14,-21 -36,-47 -48,-58 -24,-22 -136,-92 -148,-92 -4,0 -10,28 -14,62 -7,57 -6,62 16,79 13,10 32,16 42,13 29,-9 56,67 63,183 l 7,101 46,5 c 26,3 96,30 161,61 63,31 118,56 123,56 4,0 7,-11 7,-24 z m 18,-132 c 20,-14 22,-23 22,-109 0,-126 -8,-141 -75,-148 -148,-15 -274,-136 -316,-302 l -12,-48 -39,83 c -21,45 -38,84 -38,86 0,1 27,17 60,35 67,35 164,132 174,173 4,16 0,38 -9,56 -14,26 -14,33 -1,58 20,39 52,65 121,100 69,36 82,38 113,16 z m -3105,-95 c 37,-72 47,-101 42,-124 -10,-57 -68,-245 -74,-245 -4,0 -17,30 -29,68 -12,37 -32,85 -45,107 l -23,40 19,27 c 18,24 30,97 36,216 2,32 29,-1 74,-89 z m 5408,44 c 20,-40 29,-48 56,-51 39,-4 52,-34 59,-147 7,-98 20,-142 45,-155 29,-16 55,3 66,48 10,37 8,56 -12,168 -6,37 -4,45 23,75 l 30,34 17,-60 c 15,-51 16,-78 9,-199 -5,-76 -6,-212 -2,-300 10,-204 14,-214 119,-266 95,-48 107,-70 52,-99 -32,-17 -58,-14 -111,13 -46,23 -54,24 -192,19 -133,-5 -149,-4 -195,16 l -50,21 v 153 c 0,83 -9,243 -20,355 -16,168 -22,205 -36,213 -42,22 -29,130 21,181 20,20 38,28 63,28 32,0 37,-4 58,-47 z m -3852,-122 c 0,-3 -4,-14 -7,-24 -6,-15 -10,-14 -24,11 -17,29 -17,29 7,24 14,-2 25,-7 24,-11 z m 591,-21 c 10,-23 11,-100 5,-333 -8,-333 -14,-393 -46,-419 -32,-27 -94,-23 -124,6 -28,28 -81,132 -119,232 -36,95 -47,110 -73,96 -41,-22 -47,-63 -33,-196 14,-136 9,-161 -35,-172 -39,-10 -163,0 -177,14 -9,9 -9,62 1,244 7,128 17,296 21,373 4,77 10,147 13,155 6,12 25,15 95,13 48,-1 90,-2 95,-2 4,-1 43,-76 88,-167 62,-128 84,-165 97,-162 13,2 18,15 19,58 2,30 7,100 13,155 12,119 24,135 100,135 43,0 49,-3 60,-30 z m -1860,-10 c 0,-17 -9,-56 -21,-88 -34,-93 -88,-283 -143,-502 -58,-235 -57,-233 -170,-234 -60,-1 -60,-1 -82,39 -13,21 -37,79 -54,127 -17,48 -40,98 -50,110 -15,19 -21,21 -44,10 -27,-12 -78,-102 -117,-207 -11,-30 -29,-60 -40,-66 -11,-5 -55,-14 -98,-19 -106,-12 -145,-1 -170,48 -22,43 -102,338 -126,462 -9,47 -28,131 -42,188 -14,57 -23,106 -19,109 3,3 20,0 38,-8 18,-7 66,-13 108,-14 h 77 l 47,-131 c 26,-72 56,-145 67,-163 39,-64 76,-23 120,129 16,58 38,116 48,130 17,24 22,25 122,23 l 104,-2 23,-38 c 12,-21 36,-82 53,-136 41,-131 52,-128 101,23 21,63 44,141 53,172 l 15,57 93,4 c 50,1 95,4 100,5 4,1 7,-12 7,-28 z m 1205,6 c 31,-32 39,-103 31,-285 -3,-81 -9,-221 -12,-313 l -7,-167 -26,-10 c -115,-48 -123,-40 -131,125 -7,138 -12,159 -41,174 -28,15 -92,12 -118,-6 -22,-16 -23,-21 -17,-83 23,-247 24,-243 -75,-249 -36,-2 -82,1 -104,7 l -40,11 -3,177 c -2,98 2,228 8,288 11,113 47,314 60,328 4,4 29,0 56,-10 l 49,-19 6,-108 c 5,-98 7,-111 28,-127 33,-27 130,-26 162,0 22,18 24,27 27,138 4,124 6,128 57,145 39,12 66,8 90,-16 z m 1087,-46 c 3,-25 11,-78 17,-118 8,-51 27,-106 62,-180 27,-59 60,-143 73,-188 13,-44 33,-99 45,-122 25,-48 27,-94 6,-112 -12,-10 -24,-9 -59,4 -54,21 -71,39 -86,96 -16,61 -56,136 -75,144 -36,13 -76,6 -101,-19 -24,-24 -25,-30 -22,-116 4,-118 -2,-123 -119,-115 -111,8 -118,11 -94,45 60,84 94,188 136,408 34,179 58,253 92,285 34,31 49,37 88,35 27,-2 30,-6 37,-47 z m 1823,29 c 66,-12 77,-26 79,-96 l 1,-58 -104,-3 c -58,-1 -110,-7 -117,-13 -22,-18 -24,-80 -10,-275 14,-196 9,-279 -15,-295 -19,-12 -146,-11 -154,1 -4,6 -1,97 6,203 14,215 9,275 -26,315 -22,26 -29,27 -137,33 -62,3 -121,9 -130,13 -21,10 -32,63 -25,118 7,50 13,56 68,68 52,11 492,2 564,-11 z m 472,-1 c 5,-7 29,-57 54,-111 48,-107 88,-161 116,-155 16,3 19,18 23,118 l 5,115 93,3 c 88,3 92,2 92,-18 0,-12 9,-128 21,-258 19,-217 20,-363 2,-408 -4,-10 -27,-14 -88,-14 -103,0 -113,8 -184,152 -53,109 -76,133 -98,102 -16,-22 -17,-124 -1,-175 6,-22 8,-42 5,-45 -8,-8 -186,-28 -192,-22 -17,16 -34,172 -29,258 8,134 -8,300 -31,316 -15,11 -16,21 -8,76 l 8,63 60,6 c 106,10 142,9 152,-3 z m -1150,-20 c 4,-7 10,-157 14,-333 7,-356 7,-355 -57,-355 -45,0 -67,32 -95,135 -26,98 -42,118 -100,118 -62,0 -69,-16 -69,-145 0,-125 -7,-135 -86,-123 -76,11 -74,4 -73,293 0,290 6,342 39,377 28,29 74,33 102,8 15,-14 18,-32 18,-129 0,-144 7,-164 58,-164 70,0 74,9 79,166 2,76 6,145 8,152 3,8 28,12 79,12 49,0 77,-4 83,-12 z m -559,-60 c 7,-7 12,-35 12,-63 0,-28 -5,-56 -12,-63 -7,-7 -32,-12 -56,-12 -38,0 -50,-5 -78,-35 -34,-37 -65,-118 -78,-206 -8,-53 9,-82 68,-113 34,-18 39,-18 70,-4 40,20 50,14 66,-37 30,-102 -5,-147 -113,-146 -128,1 -209,60 -257,189 -33,89 -37,167 -10,253 20,66 29,80 93,144 54,53 85,75 122,87 59,20 156,23 173,6 z m -2593,-49 c 4,-27 5,-53 2,-55 -3,-3 -30,-8 -61,-11 -31,-3 -61,-12 -67,-20 -15,-17 -5,-121 13,-139 7,-8 36,-17 63,-20 65,-8 92,-26 97,-64 5,-36 -12,-50 -64,-50 -57,0 -78,-23 -78,-86 0,-78 19,-94 113,-94 43,0 78,-5 85,-12 14,-14 16,-104 3,-112 -15,-9 -141,-25 -259,-32 -87,-6 -115,-4 -128,7 -15,12 -16,33 -9,190 4,115 3,221 -5,305 -9,97 -9,140 -1,171 19,70 26,73 166,73 h 123 z m 4064,-43 c 6,-7 14,-47 17,-89 l 7,-76 -43,10 c -87,20 -130,-10 -130,-92 0,-52 8,-59 70,-59 75,0 80,-53 5,-64 -58,-9 -85,-35 -85,-80 0,-48 28,-66 102,-66 43,0 58,-4 58,-14 0,-8 3,-21 6,-29 3,-8 -3,-22 -13,-32 -15,-16 -32,-17 -168,-12 -162,6 -201,13 -187,31 19,24 22,120 7,310 -8,109 -12,209 -9,222 6,23 9,24 103,24 53,0 119,7 146,14 65,18 100,19 114,2 z m -3742,-222 c 21,-33 41,-324 24,-360 -11,-24 -96,-50 -129,-39 -37,11 -52,74 -52,213 0,207 1,209 92,211 41,1 50,-3 65,-25 z"
       id="path1"
       style="display:inline" />
    <path
       d="m 3518,14659 c -20,-11 -78,-92 -78,-108 0,-6 8,-15 18,-20 37,-20 112,57 112,113 0,28 -20,34 -52,15 z"
       id="path2"
       style="display:inline" />
    <path
       d="m 2885,14570 c -3,-5 13,-30 36,-55 46,-49 82,-57 87,-19 6,43 -102,108 -123,74 z"
       id="path3"
       style="display:inline" />
    <path
       d="m 3220,14485 c -19,-7 -52,-14 -72,-14 -26,-1 -40,-7 -48,-20 -17,-33 -11,-78 14,-107 20,-24 32,-28 89,-32 132,-8 187,21 187,101 0,29 -6,49 -18,60 -25,22 -109,30 -152,12 z m 115,-27 c 30,-13 35,-61 8,-90 -26,-29 -51,-22 -67,17 -19,44 -32,44 -40,0 -5,-26 -13,-36 -32,-41 -52,-13 -96,33 -80,84 5,14 17,19 50,20 25,1 55,6 68,11 32,13 63,13 93,-1 z"
       id="path4"
       style="display:inline" />
    <path
       d="m 3293,14414 c -9,-25 12,-38 31,-19 9,9 14,21 11,26 -10,14 -35,10 -42,-7 z"
       id="path5"
       style="display:inline" />
    <path
       d="m 3167,14407 c -3,-8 -2,-20 3,-27 11,-18 42,-4 38,17 -4,22 -34,29 -41,10 z"
       id="path6"
       style="display:inline" />
    <path
       d="m 3445,14420 c -8,-13 20,-24 41,-16 20,8 9,26 -16,26 -10,0 -22,-5 -25,-10 z"
       id="path7"
       style="display:inline" />
    <path
       d="m 3500,14361 c 0,-12 29,-41 41,-41 16,0 10,38 -7,44 -22,9 -34,7 -34,-3 z"
       id="path8"
       style="display:inline" />
    <path
       d="m 3450,14333 c 0,-3 7,-14 15,-23 12,-14 13,-23 4,-51 -16,-47 -54,-96 -89,-114 -61,-31 -179,-11 -256,45 -47,33 -65,27 -34,-12 25,-32 126,-77 188,-85 86,-10 187,55 213,136 6,20 16,41 21,48 17,22 -18,63 -53,63 -5,0 -9,-3 -9,-7 z"
       id="path9"
       style="display:inline" />
    <path
       d="m 3340,14301 c 0,-22 -40,-33 -85,-23 -69,15 -72,0 -11,-51 70,-61 98,-62 126,-6 26,50 23,83 -7,87 -13,2 -23,-1 -23,-7 z"
       id="path10"
       style="display:inline" />
    <path
       d="m 3036,14234 c -4,-9 -4,-19 -2,-21 8,-8 26,8 26,23 0,19 -16,18 -24,-2 z"
       id="path11"
       style="display:inline" />
    <path
       d="m 3000,14230 c 0,-5 5,-10 10,-10 6,0 10,5 10,10 0,6 -4,10 -10,10 -5,0 -10,-4 -10,-10 z"
       id="path12"
       style="display:inline" />
    <path
       d="m 2945,14199 c -4,-11 -5,-23 -2,-25 6,-6 37,25 37,37 0,18 -29,9 -35,-12 z"
       id="path13"
       style="display:inline" />
    <path
       d="m 2984,14179 c -3,-6 -1,-16 5,-22 9,-9 14,-8 21,3 9,15 4,30 -10,30 -5,0 -12,-5 -16,-11 z"
       id="path14"
       style="display:inline" />
    <path
       d="m 2755,14091 c -8,-14 5,-62 16,-55 12,7 12,51 0,59 -5,3 -12,1 -16,-4 z"
       id="path15"
       style="display:inline" />
    <path
       d="m 5443,13783 c -10,-25 38,-107 64,-111 12,-2 27,-10 33,-18 7,-8 16,-14 21,-14 29,0 -15,95 -61,134 -37,30 -48,32 -57,9 z"
       id="path16"
       style="display:inline" />
    <path
       d="m 5700,13642 c 0,-5 -16,-16 -35,-25 -43,-21 -60,-54 -51,-102 6,-29 14,-39 40,-50 18,-8 42,-12 53,-9 15,4 22,0 26,-15 4,-16 13,-21 42,-21 47,0 71,13 90,50 19,38 19,109 -1,138 -13,19 -24,22 -80,22 -36,0 -64,4 -64,10 0,6 -4,10 -10,10 -5,0 -10,-4 -10,-8 z m 3,-62 c 3,-11 10,-20 16,-20 6,0 15,9 21,20 8,15 21,20 50,20 48,0 65,-24 57,-84 -6,-44 -28,-66 -64,-66 -18,0 -25,7 -29,30 -6,29 -27,40 -39,20 -9,-14 -48,-13 -63,2 -18,18 -14,56 8,78 11,11 24,20 29,20 5,0 11,-9 14,-20 z"
       id="path17"
       style="display:inline" />
    <path
       d="m 5778,13544 c -12,-11 4,-34 24,-34 13,0 18,6 16,17 -3,18 -29,29 -40,17 z"
       id="path18"
       style="display:inline" />
    <path
       d="m 5499,13508 c -7,-14 -4,-54 4,-60 7,-4 7,-11 -2,-22 -11,-13 -11,-16 0,-16 8,0 22,11 32,25 16,23 16,24 0,34 -17,9 -17,10 -1,16 22,9 14,25 -13,25 -10,0 -20,-1 -20,-2 z"
       id="path19"
       style="display:inline" />
    <path
       d="m 5537,13404 c -22,-22 4,-97 51,-146 47,-50 61,-22 16,31 -14,17 -34,52 -43,76 -10,25 -20,42 -24,39 z"
       id="path20"
       style="display:inline" />
    <path
       d="m 5643,13394 c -12,-32 65,-144 100,-144 5,0 30,20 55,45 50,51 48,64 -11,70 -20,1 -48,12 -63,24 -32,25 -72,27 -81,5 z"
       id="path21"
       style="display:inline" />
    <path
       d="m 5960,13380 c 0,-5 7,-10 16,-10 8,0 12,5 9,10 -3,6 -10,10 -16,10 -5,0 -9,-4 -9,-10 z"
       id="path22"
       style="display:inline" />
    <path
       d="m 6015,13381 c -6,-11 32,-41 52,-41 19,0 16,9 -9,31 -26,21 -34,23 -43,10 z"
       id="path23"
       style="display:inline" />
    <path
       d="m 5930,13321 c -34,-83 -133,-127 -226,-101 -47,14 -60,10 -51,-14 8,-20 121,-31 174,-17 23,6 55,22 71,36 35,30 70,101 55,116 -7,7 -14,0 -23,-20 z"
       id="path24"
       style="display:inline" />
    <path
       d="m 6004,13309 c -9,-16 20,-41 39,-33 19,7 14,19 -13,34 -13,7 -21,7 -26,-1 z"
       id="path25"
       style="display:inline" />
    <path
       d="m 3380,13432 c -69,-69 -80,-263 -17,-307 29,-20 80,-19 100,3 30,33 47,91 48,165 1,145 -60,210 -131,139 z m 86,-37 c 36,-86 4,-255 -49,-255 -43,0 -58,30 -58,112 0,86 21,150 54,166 33,16 37,15 53,-23 z"
       id="path26"
       style="display:inline" />
    <path
       d="m 2854,13470 c -12,-4 -24,-16 -27,-25 -7,-16 9,-150 19,-166 14,-24 128,1 145,32 20,37 -25,159 -59,159 -9,0 -26,2 -37,5 -11,2 -29,0 -41,-5 z m 91,-60 c 8,-16 15,-43 15,-59 0,-27 -5,-32 -40,-42 -22,-7 -42,-10 -45,-8 -2,3 -7,35 -11,72 l -7,67 h 36 c 30,0 39,-5 52,-30 z"
       id="path27"
       style="display:inline" />
    <path
       d="m 3709,12704 c -7,-8 -14,-39 -17,-67 -4,-48 -1,-56 26,-85 24,-26 38,-32 70,-32 43,0 89,30 93,60 5,48 -3,74 -35,106 -29,29 -41,34 -79,34 -28,0 -49,-6 -58,-16 z m 96,-20 c 18,-7 45,-55 45,-80 0,-27 -30,-54 -61,-54 -49,0 -84,69 -63,124 6,16 48,21 79,10 z"
       id="path28"
       style="display:inline" />
    <path
       d="m 5436,12507 c -21,-31 -46,-104 -46,-133 0,-44 66,-69 105,-40 29,21 32,121 6,164 -24,38 -45,41 -65,9 z m 51,-84 c 6,-56 -11,-79 -48,-68 -24,8 -22,34 6,101 20,48 36,35 42,-33 z"
       id="path29"
       style="display:inline" />
    <path
       d="m 3729,14578 c -48,-39 -59,-54 -46,-56 16,-3 32,7 111,70 15,12 18,20 10,28 -8,8 -28,-3 -75,-42 z"
       id="path30"
       style="display:inline" />
    <path
       d="m 4692,14488 c -16,-16 -15,-38 2,-38 18,0 39,27 31,40 -8,13 -18,13 -33,-2 z"
       id="path31"
       style="display:inline" />
    <path
       d="m 4440,14425 c 0,-14 29,-35 49,-35 17,0 13,21 -6,36 -24,18 -43,17 -43,-1 z"
       id="path32"
       style="display:inline" />
    <path
       d="m 3730,14399 c 0,-30 1,-31 35,-25 30,6 41,2 73,-23 20,-17 45,-31 56,-31 18,0 18,2 -5,26 -42,46 -101,84 -131,84 -25,0 -28,-4 -28,-31 z"
       id="path33"
       style="display:inline" />
    <path
       d="m 4723,14353 c -29,-11 -10,-23 37,-23 38,0 50,4 50,15 0,11 -10,15 -37,14 -21,0 -44,-3 -50,-6 z"
       id="path34"
       style="display:inline" />
    <path
       d="m 4478,14226 c -19,-14 -24,-36 -10,-36 10,0 42,33 42,43 0,11 -13,8 -32,-7 z"
       id="path35"
       style="display:inline" />
    <path
       d="m 4727,14223 c -8,-7 41,-63 55,-63 17,0 7,40 -14,54 -25,18 -32,19 -41,9 z"
       id="path36"
       style="display:inline" />
    <path
       d="m 8470,13660 c -16,-30 -26,-149 -12,-135 15,14 42,138 32,149 -4,4 -14,-2 -20,-14 z"
       id="path37"
       style="display:inline" />
    <path
       d="m 8205,13543 c 21,-50 43,-83 55,-83 14,0 12,16 -6,53 -35,68 -75,93 -49,30 z"
       id="path38"
       style="display:inline" />
    <path
       d="m 8631,13489 c -40,-34 -70,-63 -68,-66 15,-14 157,94 157,119 0,17 -19,6 -89,-53 z"
       id="path39"
       style="display:inline" />
    <path
       d="m 8020,13411 c 0,-14 117,-91 137,-91 30,0 5,24 -65,62 -40,22 -72,35 -72,29 z"
       id="path40"
       style="display:inline" />
    <path
       d="m 8745,13288 c -21,-12 -36,-30 -31,-36 7,-7 116,30 116,39 0,13 -61,11 -85,-3 z"
       id="path41"
       style="display:inline" />
    <path
       d="m 8053,13187 c -48,-11 -58,-28 -15,-26 41,1 75,13 80,27 4,14 -6,14 -65,-1 z"
       id="path42"
       style="display:inline" />
    <path
       d="m 8662,13099 c 5,-15 98,-31 111,-19 13,12 -7,20 -64,27 -42,5 -51,3 -47,-8 z"
       id="path43"
       style="display:inline" />
    <path
       d="m 8132,13017 c -32,-33 -39,-47 -23,-47 11,0 71,61 71,72 0,16 -17,7 -48,-25 z"
       id="path44"
       style="display:inline" />
    <path
    allowFill="true"
    fill="#dc3545"
       id="path66"
       style="stroke-width:2.39278"
       d="m 410.07617,69.023438 c -7.25768,0.425114 -9.80616,4.179445 -15.14648,16.082031 l -3.27735,7.308594 3.48047,1.080078 c 7.70807,2.391313 40.18912,-1.36677 51.67578,-5.978516 l 4.6875,-1.880859 -3.05664,-3.197266 C 443.13299,76.887183 428.93542,70.623139 419.18164,69.529297 415.4381,69.109475 412.4954,68.881733 410.07617,69.023438 Z M 802.125,186.52734 c -7.03118,0 -8.52912,0.45377 -19.57812,5.92774 l -11.9629,5.92773 7.06055,0.92383 c 8.62946,1.13005 12.4736,3.26605 17.21485,9.56836 3.58243,4.76194 5.19238,5.74618 11.54101,7.04883 7.29629,1.49709 13.21392,11.05943 15.32813,24.77148 0.44468,2.88406 1.3588,4.42527 3.02343,5.09571 5.33724,2.14961 5.46291,1.88912 4.8086,-10.04883 -1.02392,-18.68169 -8.99915,-41.49535 -16.33594,-46.72852 -2.83397,-2.0214 -4.91022,-2.48633 -11.09961,-2.48633 z"
       transform="matrix(7.5,0,0,-7.5,0,15360)" />
    <path
    allowFill="true"
       id="path63"
       fill="#fd7e14"
       style="stroke-width:2.39278"
       d="m 673.99414,343.7793 c -0.94215,0.002 -2.02351,0.0734 -3.26562,0.13281 -6.50993,0.31146 -6.79456,0.44876 -8.61524,4.16992 -1.69825,3.47092 -2.51767,9.21233 -4.69531,32.92969 -0.77245,8.41311 -2.72588,10.41098 -6.10156,6.24219 -1.104,-1.36338 -6.43229,-11.24914 -11.8418,-21.96875 l -9.83594,-19.49024 -12.1582,0.30664 -12.16016,0.30664 -0.72851,4.35157 c -0.40125,2.39277 -1.85346,24.82706 -3.22657,49.85351 -1.76501,32.16936 -2.16262,46.03155 -1.35742,47.31055 0.62641,0.99501 2.55454,2.11822 4.28516,2.49609 1.73061,0.37787 6.63952,0.74561 10.91016,0.81641 6.1718,0.10228 8.2931,-0.30035 10.33398,-1.96094 2.46642,-2.00684 2.54651,-2.53094 2.05469,-13.32226 -1.119,-24.55242 -0.84367,-28.72451 2.10351,-31.85938 1.55786,-1.65706 3.60657,-2.71761 4.89453,-2.5332 2.53504,0.36294 3.91358,2.86125 11.36133,20.59179 7.48438,17.81775 11.91004,24.44507 17.29297,25.89454 6.10858,1.64487 10.86531,-0.24188 12.90234,-5.11719 2.33287,-5.58333 3.55046,-24.98409 3.875,-61.7168 0.30133,-34.10482 0.5677,-37.44891 -6.02734,-37.43359 z m -245.54883,1.06836 c -1.15315,-0.0243 -2.77887,0.0902 -5.11133,0.31054 -4.02389,0.38005 -9.62304,0.69522 -12.4414,0.69922 -5.11794,0.008 -5.12528,0.0142 -6.29492,4.63086 -3.28079,12.94954 -12.3062,38.85392 -14.10352,40.48047 -1.93388,1.75013 -2.12808,1.71343 -3.70117,-0.69141 -0.91338,-1.3963 -3.44286,-7.67794 -5.62109,-13.95898 -2.17823,-6.28104 -4.96271,-13.21463 -6.1875,-15.4082 l -2.22852,-3.98828 -10.15039,-0.76172 c -12.21239,-0.9156 -17.20722,-0.1292 -19.44141,3.06054 -0.92191,1.31621 -3.67983,8.51673 -6.1289,16 -5.15042,15.73737 -6.59654,18.84219 -9.82227,21.10157 -4.87239,3.41276 -7.54178,-0.41351 -15.65039,-22.42774 -2.7036,-7.34006 -5.45042,-14.69286 -6.10352,-16.33789 -1.13137,-2.84972 -1.53481,-2.99023 -8.52148,-2.99023 -7.01036,0 -15.89336,-1.22638 -19.78516,-2.73047 -1.36719,-0.52839 -1.71675,-0.2059 -1.39257,1.28515 11.48598,52.82905 14.65273,65.97628 20.70117,85.94727 4.11075,13.57304 5.54705,16.0273 10.79297,18.45117 3.68548,1.70287 14.99493,1.22215 23.80273,-1.01172 5.9368,-1.50571 5.66085,-1.1199 14.68359,-20.60937 5.84971,-12.6356 9.42252,-17.16211 13.54493,-17.16211 3.40912,0 4.66289,2.02828 11.08398,17.94531 8.62524,21.38082 8.664,21.42023 20.35742,20.42578 11.54768,-0.98205 10.61025,0.90706 23.0625,-46.47851 3.92269,-14.92734 9.63278,-35.10837 12.68946,-44.84571 3.05666,-9.73733 5.24446,-18.51642 4.86328,-19.50976 -0.36825,-0.95965 -0.97457,-1.3853 -2.89649,-1.42578 z m 156.25782,0.18945 c -3.08352,0.13648 -6.50401,1.24619 -8.20704,2.94922 -1.61768,1.61768 -2.13799,4.46605 -2.7207,14.89453 -0.9264,16.5791 -1.35673,18.61268 -4.35937,20.58008 -6.07404,3.97987 -21.04644,2.7453 -23.55469,-1.94141 -1.02524,-1.91569 -2.84883,-18.23234 -3.08008,-27.55469 -0.0415,-1.67448 -1.41749,-2.72194 -5.50391,-4.1914 -2.99625,-1.07743 -6.11727,-1.70071 -6.93554,-1.38672 -1.70736,0.65518 -5.28528,18.28974 -7.75586,38.22266 -1.92452,15.52722 -2.27739,65.30333 -0.47071,66.41992 0.62827,0.38829 3.44257,1.11925 6.25391,1.62304 5.66543,1.01521 17.05335,0.35462 19.86914,-1.15234 2.69114,-1.44026 3.22346,-6.16848 2.09766,-18.65625 -0.55598,-6.16708 -1.02873,-13.80747 -1.04883,-16.97852 -0.0353,-5.56364 0.0967,-5.82104 3.73633,-7.34179 5.82573,-2.43415 12.96972,-2.03992 16.39258,0.90429 2.75985,2.37393 2.94304,3.22321 4.30078,19.84961 0.78013,9.55305 1.75062,18.18691 2.15625,19.1875 1.24939,3.08196 3.9714,3.26406 11.10937,0.74414 6.38691,-2.25477 6.86333,-2.65264 6.89453,-5.75585 0.0184,-1.83351 0.70558,-19.73003 1.52539,-39.76954 1.9623,-47.96662 1.03565,-56.60335 -6.42773,-60.0039 -0.82556,-0.37615 -1.85455,-0.5837 -2.97656,-0.64063 -0.42076,-0.0213 -0.85442,-0.0215 -1.29492,-0.002 z m 146.29296,3.00391 c -7.13167,0 -13.08675,6.54106 -16.33398,17.94531 -0.68131,2.39278 -3.19305,13.64993 -5.58203,25.01562 -5.49821,26.15807 -9.59592,39.35241 -15.16406,48.83008 -2.42356,4.1252 -4.18538,7.72088 -3.91602,7.99024 0.26935,0.26936 4.07222,0.86489 8.45117,1.32421 12.85909,1.34881 14.64028,1.25285 17.34766,-0.93945 2.40307,-1.94589 2.55812,-2.79577 2.57812,-14.125 0.0202,-11.44991 0.16085,-12.19404 2.78907,-14.82226 2.93316,-2.93315 8.97765,-4.48199 13.27929,-3.40235 2.94526,0.73921 7.27324,7.95239 10.63672,17.72852 1.18118,3.43317 2.88148,7.36413 3.7793,8.73437 2.16877,3.30997 9.74173,7.08208 13.375,6.66211 2.48647,-0.28741 2.95708,-0.91301 3.24023,-4.30859 0.18215,-2.18441 -0.47339,-5.85421 -1.45703,-8.15625 -0.98364,-2.30205 -3.74428,-9.81413 -6.13476,-16.69336 -2.39047,-6.87924 -6.97645,-18.62805 -10.18946,-26.10742 -5.93929,-13.82574 -8.43589,-22.54358 -9.81054,-34.25586 -1.20697,-10.2836 -1.89133,-11.41992 -6.88868,-11.41992 z m 210.88868,0.33007 c -35.74704,-0.65875 -41.29579,-0.10824 -43.66797,4.32422 -1.66813,3.11695 -1.6612,13.69246 0.0117,16.81836 1.61725,3.02185 2.97317,3.33565 19.46093,4.51758 23.13261,1.65826 23.43542,2.36628 21.58203,50.33594 l -0.91015,23.57812 3.66406,0.49219 c 4.87267,0.65475 15.37538,-0.27707 16.62109,-1.47461 2.0408,-1.96189 2.70682,-14.08418 1.69922,-30.94531 -1.50182,-25.13123 -1.36462,-41.03962 0.37305,-43.41602 1.21214,-1.65772 3.64736,-2.04851 15.88672,-2.54492 l 14.45508,-0.58594 -0.43555,-6.84765 c -0.81371,-12.77907 -2.96582,-13.40842 -48.74023,-14.25196 z m 100.60543,0.47852 -12.914,0.63672 c -7.1027,0.34996 -13.1099,0.8305 -13.3477,1.06836 -0.2379,0.23786 -0.8241,3.69747 -1.3047,7.68945 -0.6229,5.17406 -0.4968,7.79916 0.4414,9.13867 3.0065,4.29235 3.9272,11.92064 4.8184,39.9336 0.5139,16.15124 1.4926,31.23688 2.1758,33.52343 l 1.2422,4.15625 7.2695,-0.76367 c 17.0015,-1.78954 17.0832,-1.8177 16.8125,-5.40429 -1.4323,-18.97023 -1.4852,-22.02326 -0.4336,-24.71485 2.5762,-6.59395 7.2624,-2.95981 14.2559,11.05078 6.0203,12.06058 9.5689,17.29435 12.9824,19.15039 3.2259,1.75406 19.2898,2.15749 21.8398,0.54883 2.7159,-1.71354 2.7082,-27.67762 -0.018,-60.91406 -1.3009,-15.86165 -2.5292,-29.00863 -2.7285,-29.21484 -0.5033,-0.52087 -5.0784,-0.63927 -14.7617,-0.38477 l -8.2617,0.2168 -0.7285,14.38867 c -0.7972,15.75063 -1.7859,18.38954 -6.0391,16.11328 -3.5409,-1.89506 -7.5835,-8.15164 -14.7754,-22.86719 z m -163.03512,2.50977 c -4.05431,-0.0369 -8.10088,0.21791 -9.00195,0.79101 -0.80497,0.51199 -1.52512,5.84664 -1.94336,14.39453 -0.96287,19.67899 -1.62791,24.80173 -3.45899,26.63281 -1.77223,1.77223 -10.80078,2.23485 -13.2539,0.67969 -1.81497,-1.1506 -3.36561,-12.87762 -3.41211,-25.79883 -0.0306,-8.5048 -0.34429,-10.1696 -2.22657,-11.87304 -2.84812,-2.57751 -8.04433,-2.52851 -10.99804,0.10351 -5.37688,4.7913 -5.73225,7.35003 -6.17969,44.45313 -0.47477,39.3695 -0.10057,42.34696 5.53711,43.97656 5.98403,1.72971 11.46641,1.42663 12.55664,-0.69531 0.53785,-1.04684 1.2688,-7.95286 1.62305,-15.34571 0.81094,-16.92332 1.70152,-18.64257 9.66601,-18.64257 7.68779,0 9.98675,2.39095 13.53516,14.08593 1.55146,5.11337 3.75901,11.1526 4.90625,13.41993 3.42228,6.76359 11.78118,8.13865 14,2.30273 1.22373,-3.21878 1.26168,-37.9713 0.0723,-66.60937 -0.6379,-15.35895 -1.18364,-20.16712 -2.37304,-20.91993 -0.93179,-0.58976 -4.99453,-0.91824 -9.04883,-0.95507 z m -376.94922,5.29882 c -1.20159,0.004 -2.45499,0.25095 -3.74023,0.74414 -2.93669,1.12691 -2.25917,9.40751 1.0957,13.39454 3.29036,3.91038 7.06326,4.34298 10.23437,1.17187 3.00854,-3.00854 2.74912,-7.8547 -0.63867,-11.88086 -1.91585,-2.27686 -4.30768,-3.43878 -6.95117,-3.42969 z m 306.25,2.78125 c -2.21005,-0.0881 -4.88107,0.11128 -7.97461,0.60547 -9.81874,1.56855 -14.77428,4.41594 -24.32227,13.97852 -6.43917,6.449 -8.81184,9.71778 -10.74218,14.80273 -4.82471,12.70936 -4.07939,27.44294 2.04297,40.38867 5.23876,11.07735 10.86654,16.2374 21.3125,19.54102 6.39844,2.02356 15.65723,1.84787 20.12109,-0.38281 5.51779,-2.75737 7.11871,-6.78059 5.5293,-13.88282 -0.69842,-3.12089 -1.88121,-6.51066 -2.62891,-7.5332 -1.27916,-1.74933 -1.63028,-1.75114 -5.95312,-0.0215 -3.94803,1.57968 -5.08046,1.63741 -8.05274,0.40625 -5.0901,-2.10838 -10.39934,-7.17646 -11.16406,-10.65821 -0.90719,-4.13042 1.94072,-17.20739 5.44922,-25.02539 4.08836,-9.11006 8.28579,-12.7262 15.73242,-13.55078 3.78922,-0.41959 6.48061,-1.34417 7.3418,-2.52148 1.60919,-2.19989 1.80353,-10.54432 0.31054,-13.33399 -0.91983,-1.71872 -3.31854,-2.66567 -7.00195,-2.8125 z m -340.32617,0.24414 -15.01367,0.64258 c -8.25823,0.35319 -16.05325,1.1978 -17.32227,1.87696 -5.03058,2.69227 -5.25705,5.19277 -4.61719,51.0957 0.35902,25.75627 1.03017,43.50524 1.67578,44.32031 1.31539,1.66066 14.35619,1.77516 29.08789,0.25586 22.61988,-2.33283 23.50303,-2.75458 22.40821,-10.74219 -0.3712,-2.70817 -1.17747,-5.42746 -1.79102,-6.04101 -0.61355,-0.61354 -5.60282,-1.43259 -11.08594,-1.82032 -9.14491,-0.64668 -10.18379,-0.95602 -12.58203,-3.74414 -2.31015,-2.68572 -2.56302,-3.85641 -2.16797,-10.06054 0.51641,-8.11012 2.94987,-11.08203 9.07618,-11.08203 6.3073,0 9.19531,-1.6984 9.19531,-5.41016 0,-4.2455 -3.15961,-7.34195 -8.36914,-8.20313 -2.27659,-0.37634 -6.09746,-1.26097 -8.49024,-1.96484 -4.13311,-1.2158 -4.42363,-1.59173 -5.83203,-7.52344 -0.81535,-3.43404 -1.16563,-7.92894 -0.77929,-9.98828 0.77285,-4.11966 3.03157,-5.29038 12.86523,-6.67187 5.70407,-0.80134 5.97209,-1.44403 4.44336,-10.69922 z m 538.03121,12.38477 c -2.6273,0.0354 -6.4195,0.53875 -11.82613,1.51562 -4.78555,0.86465 -13.16886,1.58848 -18.62891,1.60938 -7.35655,0.0281 -10.26998,0.45001 -11.25,1.63086 -1.04013,1.25328 -0.95693,7.69742 0.38867,30.18164 1.58976,26.5642 1.36897,38.4088 -0.7793,41.88477 -0.81761,1.32292 2.13784,2.10444 10.69141,2.82812 2.39278,0.20244 11.00426,0.45022 19.13672,0.55078 12.85184,0.15891 15.01084,-0.0663 16.49614,-1.7207 2.3213,-2.58537 1.2855,-7.49952 -1.752,-8.31445 -1.2866,-0.34518 -4.3872,-0.63458 -6.8906,-0.64258 -9.70013,-0.0316 -13.62788,-4.30145 -11.26174,-12.24414 1.31265,-4.4063 3.92547,-6.26285 11.79104,-8.37891 4.8375,-1.30143 7.0375,-3.96926 4.5449,-5.50977 -0.7843,-0.48474 -3.6716,-1.19578 -6.4141,-1.58203 -8.9851,-1.26548 -8.79294,-1.07608 -8.79294,-8.66211 0,-11.21718 5.3106,-15.17023 16.89454,-12.57421 2.831,0.63442 5.2583,1.01557 5.3945,0.8457 0.6933,-0.86497 -1.9189,-18.9326 -2.9101,-20.12695 -0.742,-0.89397 -2.2047,-1.32645 -4.8321,-1.29102 z m -277.91012,5.49805 c 1.57454,0.0395 3.21048,1.12066 4.79297,3.25 4.02827,5.42027 3.82981,18.58033 -0.34375,22.7539 -3.67006,3.67005 -12.04125,2.12768 -14.20312,-2.61718 -1.39419,-3.05991 0.96487,-12.64999 4.80078,-19.51758 1.46324,-2.61971 3.16864,-3.91395 4.95312,-3.86914 z m -222.94922,21.67968 c -0.99518,-0.01 -2.10837,0.0616 -3.35742,0.18164 -8.50999,0.8177 -8.94804,1.73406 -9.36914,19.61524 -0.44644,18.95778 0.40108,27.64934 3.13477,32.14453 1.79373,2.94956 2.71755,3.43945 6.49218,3.43945 5.51522,0 11.40724,-2.39951 12.94532,-5.27343 1.47955,-2.76453 1.48686,-11.35898 0.0234,-27.35547 -1.7085,-18.67545 -2.90288,-22.68456 -9.86914,-22.75196 z"
       transform="matrix(7.5,0,0,-7.5,0,15360)" />
  </g>
   </g>
</svg>
